<?xml version="1.0" encoding="UTF-8"?>
<svg id="Layer_3" data-name="Layer 3" xmlns="http://www.w3.org/2000/svg" xmlns:xlink="http://www.w3.org/1999/xlink" version="1.1" viewBox="0 0 500 500">
  <defs>
    <style>
      .cls-1 {
        fill: #318bc9;
      }

      .cls-1, .cls-2, .cls-3, .cls-4, .cls-5, .cls-6, .cls-7, .cls-8, .cls-9, .cls-10, .cls-11, .cls-12, .cls-13 {
        stroke-width: 0px;
      }

      .cls-2 {
        fill: #fefefe;
      }

      .cls-14 {
        clip-path: url(#clippath);
      }

      .cls-3 {
        fill: none;
      }

      .cls-4 {
        fill: #5bbb61;
      }

      .cls-5 {
        fill: #26728c;
      }

      .cls-6 {
        fill: #226bad;
      }

      .cls-15 {
        stroke: #1c68ac;
        stroke-miterlimit: 10;
        stroke-width: 0px;
      }

      .cls-15, .cls-7 {
        fill: #1c68ac;
      }

      .cls-8 {
        fill: #2d9060;
      }

      .cls-9 {
        fill: #59b862;
      }

      .cls-10 {
        fill: #f2f5f6;
      }

      .cls-11 {
        fill: #a6b0c7;
      }

      .cls-12 {
        fill: #319163;
      }

      .cls-13 {
        fill: #2e9160;
      }
    </style>
    <clipPath id="clippath">
      <ellipse class="cls-3" cx="249.55" cy="250.84" rx="247.33" ry="249.43"/>
    </clipPath>
  </defs>
  <path class="cls-1" d="M223.02,101.4"/>
  <path class="cls-15" d="M246.17,105.19"/>
  <g class="cls-14">
    <path class="cls-7" d="M431.08,118.34c5.63-.34,11.26.02,16.79,1.16,1.32.27,2.7-.38,3.08-1.75.34-1.24-.42-2.8-1.75-3.08-5.96-1.22-12.05-1.7-18.12-1.33-1.35.08-2.5,1.09-2.5,2.5,0,1.29,1.15,2.58,2.5,2.5h0Z"/>
    <path class="cls-2" d="M-35.38,536.46c0-189.65.04-379.3-.17-568.96,0-6.22,1.21-7.45,7.38-7.45,180.25.21,360.49.21,540.74,0,6.17,0,7.39,1.22,7.38,7.44-.21,187.23-.21,374.46,0,561.68,0,6.22-1.21,7.45-7.38,7.45-182.65-.21-365.3-.17-547.95-.17ZM355.85,23.6l.09.06c-3.21-4.35-8.34-4.99-12.88-6.76-10.22-3.18-20.44-6.37-30.66-9.55-9.75-4.09-19.72-6.82-30.42-5.07-.57-.17-1.14-.32-1.72-.43-2.07-3.32-5.19-1.86-8.02-1.82-4.78.06-9.76.92-14.29-.14-11.56-2.72-22.92-1.95-34.36.19-1.24.74-2.48,1.49-3.73,2.23-9.42-3.26-18.03.26-26.71,3.23-4.53,2.81-10.39,1.82-14.69,5.27-13.86,1.1-26.59,5.16-37.31,14.49-17.44,6.85-32.7,17.26-46.92,29.35-8.34,2.65-12.74,9.76-17.86,16.06-4.89,3.84-9.28,8.18-13.07,13.12-6.4.56-6.13,7.35-9.25,10.89-7,7.97-14.96,15.82-17.48,26.95-1.2,2.04-2.4,4.09-3.59,6.13-3.9,4.02-6.31,8.69-8.16,14.13-3.15,9.24-7.59,18.04-11.49,27.03-1.25,8.88-3.88,17.38-6.97,25.75-.09,2.61.14,5.27-.32,7.81-3.49,19.59-6.18,39.24-5.23,59.23,1.26,9.5,2.64,19,3.9,28.49,2.77,20.93,9.11,40.57,16.95,60,5.95,14.75,14.22,28.04,22.37,41.48,4.45,5.83,8.41,12.14,13.45,17.39,9.92,10.31,17.44,23.27,31.08,29.61,4.93,8,13.09,12.14,20.38,17.32,42.16,29.94,88.96,44.77,140.59,43.83,2.99.11,5.99.42,8.97.29,60.97-2.67,114.33-24.52,159.27-66.05,38.8-35.85,64.09-79.9,74.76-132.15,2.44-6.35,1.04-13.24,2.33-19.58,4.39-21.57,2.93-43.18,1.17-64.74-.4-4.94.48-10.83-3.47-15.21,1.23-4.05.65-7.88-1.43-11.52-5.77-29.08-18.77-55.03-34.16-79.93.13-3.15-2.78-4.62-4.34-6.31-6.85-7.4-10.47-17.58-19.48-23.06-.05-.37-.2-.68-.46-.94-3.27-6.27-8.21-10.89-14.1-14.59-10.91-8.99-21.64-18.23-33.59-25.85-5.59-3.66-11.17-7.33-16.76-10.99-3.78-2.67-7.36-5.77-12.39-5.6Z"/>
    <path class="cls-1" d="M32.97,127.76c1.2-2.04,2.4-4.09,3.59-6.13,8.1.07,16.22.58,24.28.1,10.51-.62,18.48-9.61,18.49-19.92,0-10.13-6.24-17.14-16.04-18.02,7.48-8.37,17.7-18.68,30.94-29.18,5.65-4.49,22.35-17.28,46.92-29.35C172.86,9.68,202.12,3.04,223.58.05c9.24-.98,18.47-1.96,27.71-2.93-.02,28.33-.04,56.65-.05,84.98-3,.1-5.99.29-8.99.3-36.03.03-72.06-.08-108.09.09-21.31.1-36.31,15.1-36.17,35.62.13,19.78,15.52,34.57,36.18,34.71,9.91.07,19.82.09,29.72-.01,6.88-.07,13.24,1.05,13.41,9.61.16,8.44-5.98,10.35-12.93,10.27-7.2-.08-13.64,1.81-19.12,6.58-8.86,7.7-12.05,19.37-8.39,30.5,3.66,11.11,14.65,18.96,27.9,19.11,20.71.24,41.44-.12,62.15.15,8.6.11,16.69-1.2,24.35-5.15.01,22.3-.03,44.59.09,66.89.02,3.16-1.23,6.7,1.72,9.37-.16,3.77-.31,7.53-.46,11.3-3,9.17-.51,18.61-1.34,27.89-9.59.18-19.18.39-28.77.55-20.08.33-35.28,15.1-35.55,34.57-.27,19.14,15.1,34.76,34.84,35.34,9.87.29,19.74.47,29.61.69-.06,5.07-.13,10.14-.19,15.21-20.1.1-40.2.13-60.3.33-15.04.15-24.7,9.23-24.67,22.92.03,13.9,9.23,22.21,24.81,22.36,20.09.19,40.19.33,60.28.5-.85,9.32,1.84,18.88-1.8,28.02-24,.44-46.96-2.53-68.89-8.84-35.1-10.1-59.15-26.37-71.7-34.99-11.05-7.58-19.82-14.79-26.13-20.35,10.97,2.03,19.96,2.65,26.38,2.82,4.63.12,5.97-.21,7.16-.28,11.98-.65,21.03-10.51,21.33-22.59.31-12.61-7.56-23.86-19.28-24.25-24.77-.83-49.59-1.4-74.38.33-8.15-13.44-16.41-26.73-22.37-41.48-10.15-25.14-14.45-46.15-16.95-60-2.1-11.64-3.24-21.47-3.9-28.49,2.55.03,16.81-.02,27.18-11.3,3.99-4.35,6.86-9.81,8.27-16.13,3.5-15.67-4.58-32.33-19.05-39.34-3.59-1.74-7.15-3.35-10.85-.27,3.09-8.37,5.72-16.87,6.97-25.75,4.1-2.03,6.79,2.57,11.06,2.08,7.98-.92,16.14-.21,24.22-.28,14.18-.12,23.63-8.31,23.7-20.44.07-11.79-9.59-19.98-23.68-20.56-5.23-.21-10.82,1.81-15.64-1.96ZM119.43,261.83v.04c-14.09,0-28.17-.05-42.26.01-12.99.06-21.94,8.3-21.91,20.03.03,11.3,8.9,19.99,21.17,20.06,28.47.16,56.94.14,85.41-.03,12.18-.07,20.89-8.8,20.8-20.18-.09-11.67-8.6-19.84-20.96-19.92-14.08-.09-28.17-.02-42.26-.02Z"/>
    <path class="cls-15" d="M253.07,300.14c-2.95-2.67-1.7-6.21-1.72-9.37-.12-22.3-.08-44.59-.09-66.89.07-.64.13-1.28.2-1.91,14.96-10.47,14.96-30.31,0-43.43-.18-.43-.31-.88-.4-1.34.09-8.04.18-16.07.27-24.11,0,0,.11-.57.11-.57,3.57.1,7.14.28,10.71.28,16.71,0,27.87-7.39,34.1-22.52,18.87-.2,37.75-.38,56.62-.63,11.29-.15,17.38-5.48,17.35-15.03-.03-9.46-6.19-14.71-17.39-14.82-19.78-.2-39.55-.4-59.33-.6-9.89-16.4-25.38-18.1-42.19-16.35,0,0-.07-.76-.07-.76-.08-28.35-.16-56.7-.23-85.05,30.99.26,74.87,5.95,117.24,32.15,6.65,4.11,12.78,8.43,18.43,12.84-2.64-.41-6.8-.78-11.75.06-4.62.78-12.57,2.09-18.05,9.06-3.3,4.2-5.1,9.63-4.97,15.86.27,13.08,10.02,22.3,23.99,22.56,13.43.25,26.86.38,40.29.56-1.9,12.38,1.12,19.26,10.7,21.33,9.93,2.14,20.11,2.49,30.08-.52,15.39,24.9,28.39,50.84,34.16,79.93.43,3.51.85,7.02,1.28,10.53-16.65,0-33.31,0-49.96,0-.82-.78-1.51-.58-2.1.3-25.6,3.58-41.78,21.54-44.25,49.1-3.88.11-7.77.28-11.65.32-13.88.13-22.84,7.75-23.19,19.78-.36,12.46,9.37,21.54,23.44,21.73,11.37.16,22.74.18,34.11.26,7.88,6.75,17.23,9.07,27.28,9.1,15.48.04,30.96-.04,46.44-.08-10.67,52.25-35.96,96.3-74.76,132.15-44.94,41.52-98.3,63.38-159.27,66.05-2.98.13-5.98-.18-8.97-.29,3.64-9.14.96-18.7,1.8-28.02,0,0,.24-.76.24-.76,27.9.07,55.8.35,83.7.1,12.66-.11,21.01-9.6,20.99-22.38-.02-10.76-6.08-17.25-14.88-21.89,17.65-1.94,35.35-.44,53.02-.8,7.03-.14,12.99-2.18,17.33-7.9,10.03-13.2,3.5-30.18-13.32-34.13-4.16-.98-8.18-1.91-7.74-6.88.44-4.99,4.94-5.48,8.94-5.63,4.5-.16,9.01-.11,13.51-.06,8.18.09,13.48-3.97,16.81-11.31,3.28-7.24,1.42-13.63-2.93-19.54-3.97-5.4-9.76-6.37-16.06-6.33-19.52.13-39.04.09-58.56-.01-4.06-.02-8.34-.95-8.78-5.89-.34-3.86,2.79-5.4,6.35-6.35,10.75-2.89,15.64-8.92,14.53-17.32-1.12-8.5-8.24-13.53-19.31-13.54-24.62-.02-49.25.22-73.87-.13-7.99-.11-14.01,2.31-18.25,9.11Z"/>
    <path class="cls-13" d="M396.09,250.8c2.47-27.56,18.65-45.52,44.25-49.1.7-.1,1.4-.2,2.1-.3,16.05-.03,32.1-.06,48.16-.08.61.01,1.21.03,1.82.04,2.72,11.6,5.03,25.7,5.67,41.82.92,23.63-2.09,43.71-5.56,58.72-15.48.03-30.96.12-46.44.08-10.05-.03-19.41-2.35-27.28-9.1,9.31-.11,18.62-.1,27.92-.35,13.47-.36,22.64-8.95,22.53-20.88-.11-12.23-9.07-20.37-22.71-20.5-16.82-.16-33.63-.24-50.45-.36Z"/>
    <path class="cls-4" d="M44.02,391.68c24.78-1.73,49.61-1.16,74.38-.33,11.72.39,19.59,11.64,19.28,24.25-.3,12.08-9.35,21.93-21.33,22.59-1.5.08-2.28.26-7.16.28-9.81.03-17.64.15-22.74.24-6.81-5.11-11.64-9.87-14.84-13.34-3.54-3.84-4.97-6.76-14.14-16.29-5.05-5.24-9-11.56-13.45-17.39Z"/>
    <path class="cls-8" d="M416.18,90.14c-13.43-.18-26.86-.32-40.29-.56-13.97-.26-23.73-9.48-23.99-22.56-.13-6.23,1.67-11.66,4.97-15.86,5.45-6.95,13.38-8.26,18.05-9.06,5.03-.86,9.26-.48,11.95-.06,5.67,3.66,11.62,7.8,17.75,12.5,5.05,3.87,9.7,7.73,13.97,11.49,2.4,2,4.97,4.34,7.59,7.06,2.5,2.6,4.66,5.15,6.51,7.53.26.26.41.57.46.94-7.19-.24-12.94,2.43-16.97,8.56Z"/>
    <path class="cls-10" d="M32.97,127.76c4.82,3.76,10.41,1.74,15.64,1.96,14.1.58,23.75,8.77,23.68,20.56-.07,12.13-9.53,20.32-23.7,20.44-8.08.07-16.24-.64-24.22.28-4.26.49-6.95-4.11-11.06-2.08,3.9-8.99,8.34-17.79,11.49-27.03,1.86-5.44,4.26-10.1,8.16-14.13Z"/>
    <path class="cls-9" d="M6.34,194.67c3.7-3.08,7.26-1.47,10.85.27,14.47,7,22.55,23.67,19.05,39.34-3.72,16.64-17.52,27.32-35.45,27.43-.95-19.99,1.74-39.64,5.23-59.23.45-2.54.23-5.2.32-7.81Z"/>
    <path class="cls-10" d="M63.29,83.79c9.8.88,16.05,7.89,16.04,18.02,0,10.3-7.98,19.3-18.49,19.92-8.07.47-16.19-.03-24.28-.1,2.53-11.12,10.48-18.98,17.48-26.95,3.11-3.54,2.84-10.33,9.25-10.89Z"/>
    <path class="cls-4" d="M251.05,177.2c.09.46.22.91.39,1.34,0,14.47,0,28.95,0,43.43-.07.64-.13,1.28-.2,1.91-7.65,3.95-15.75,5.26-24.35,5.15-20.71-.27-41.43.1-62.15-.15-13.25-.16-24.25-8-27.9-19.11-3.66-11.13-.48-22.8,8.39-30.5,5.49-4.77,11.93-6.66,19.12-6.58,6.94.08,13.09-1.83,12.93-10.27-.16-8.57-6.53-9.68-13.41-9.61-9.91.1-19.82.08-29.72.01-20.66-.14-36.05-14.93-36.18-34.71-.14-20.52,14.87-35.52,36.17-35.62,36.03-.18,72.06-.06,108.09-.09,3,0,5.99-.19,8.99-.3,0,0,.07.76.06.76.04,23.22.09,46.44.14,69.67,0,0-.11.57-.11.57-8.69-.1-17.39-.14-26.08-.32-7.31-.16-14.44.24-15.3,9.76-.62,6.94,4.8,10.42,15.8,10.18,8.79-.2,17.35.2,25.3,4.5Z"/>
    <path class="cls-11" d="M253.07,300.14c4.24-6.81,10.25-9.23,18.25-9.11,24.62.35,49.25.11,73.87.13,11.08.01,18.19,5.04,19.31,13.54,1.11,8.4-3.79,14.43-14.53,17.32-3.56.96-6.69,2.49-6.35,6.35.44,4.94,4.72,5.87,8.78,5.89,19.52.1,39.04.14,58.56.01,6.3-.04,12.1.93,16.06,6.33,4.34,5.91,6.21,12.3,2.93,19.54-3.33,7.34-8.63,11.4-16.81,11.31-4.5-.05-9.01-.1-13.51.06-4,.14-8.5.63-8.94,5.63-.44,4.97,3.58,5.9,7.74,6.88,16.82,3.95,23.34,20.93,13.32,34.13-4.34,5.71-10.29,7.76-17.33,7.9-17.67.36-35.38-1.14-53.02.8-5-.38-10-.77-15-1.15-6.76-3.6-12.14-8.43-14.17-16.23.09-18.35,7.35-25.59,25.74-25.68,3-.01,6.01.08,9.01,0,4.93-.14,11.79,1.32,11.59-6.21-.2-7.27-7.1-5.96-11.99-6-17.11-.14-34.33-1.21-51.31.29-15.87,1.4-29.19-16.44-18.2-30.61,6.83-8.96,16.64-6.74,25.75-6.81,4.83-.03,8.86-1.45,8.79-6.7-.07-4.99-4.36-5.76-8.59-5.74-10.8.05-21.62-.25-32.41.07-8.42.25-14.57-2.66-17.99-10.64.16-3.77.31-7.53.47-11.3Z"/>
    <path class="cls-4" d="M119.43,261.83c14.09,0,28.17-.07,42.26.02,12.36.08,20.87,8.25,20.96,19.92.09,11.38-8.62,20.11-20.8,20.18-28.47.17-56.94.19-85.41.03-12.28-.07-21.14-8.76-21.17-20.06-.03-11.73,8.92-19.97,21.91-20.03,14.08-.06,28.17-.01,42.26-.01v-.04Z"/>
    <path class="cls-4" d="M251.39,410.48c-9.87-.23-19.74-.41-29.61-.69-19.74-.58-35.12-16.2-34.84-35.34.28-19.47,15.48-34.24,35.55-34.57,9.59-.16,19.18-.36,28.77-.55.52.35,1.05.7,1.57,1.06-2.71,22.99-1.29,46.06-1.21,69.1-.18.31-.25.64-.23.99Z"/>
    <path class="cls-4" d="M251.33,471.79c-20.09-.16-40.19-.31-60.28-.5-15.58-.14-24.78-8.46-24.81-22.36-.03-13.69,9.63-22.77,24.67-22.92,20.1-.2,40.2-.22,60.3-.33.17.35.37.69.58,1.02-.07,14.77-.14,29.55-.2,44.32l-.24.76Z"/>
    <path class="cls-6" d="M252.83,340.39c-.52-.35-1.05-.7-1.57-1.06.83-9.28-1.66-18.72,1.34-27.89,3.42,7.98,9.57,10.89,17.99,10.64,10.79-.32,21.61-.03,32.41-.07,4.23-.02,8.52.75,8.59,5.74.07,5.25-3.96,6.67-8.79,6.7-9.11.06-18.92-2.16-25.75,6.81-7.99-2.53-16.12-1.12-24.21-.87Z"/>
    <path class="cls-6" d="M251.77,426.71c-.21-.33-.4-.67-.58-1.02.06-5.07.13-10.14.19-15.21-.02-.35.06-.68.23-.99,3.55.1,7.11.07,10.65.34,4.7.37,8.03,2.85,8.33,7.73.33,5.45-3.22,8.16-8.18,8.79-3.51.44-7.1.26-10.65.36Z"/>
    <path class="cls-13" d="M251.77,426.71c3.55-.1,7.14.08,10.65-.36,4.96-.63,8.51-3.33,8.18-8.79-.3-4.88-3.63-7.36-8.33-7.73-3.54-.28-7.1-.24-10.65-.34-.08-23.04-1.5-46.11,1.21-69.1,8.09-.25,16.22-1.66,24.21.87-10.99,14.16,2.33,32,18.2,30.6,16.98-1.5,34.2-.42,51.31-.29,4.88.04,11.79-1.27,11.99,6,.2,7.53-6.66,6.07-11.59,6.21-3,.09-6,0-9.01,0-18.39.09-25.65,7.33-25.74,25.68-6.03.24-9.81,3.25-9.41,9.47.39,6.14,5.34,7.47,10.38,7.55,4.4.07,8.9,1,13.2-.79,5,.38,10,.77,15,1.15,8.8,4.64,14.86,11.13,14.88,21.89.02,12.77-8.33,22.26-20.99,22.38-27.9.25-55.8-.03-83.7-.1.07-14.77.14-29.55.21-44.32Z"/>
    <path class="cls-11" d="M396.09,250.8c16.82.11,33.63.19,50.45.36,13.63.13,22.6,8.27,22.71,20.5.11,11.93-9.06,20.51-22.53,20.88-9.3.25-18.61.24-27.92.35-11.37-.08-22.74-.1-34.11-.26-14.06-.19-23.8-9.27-23.44-21.73.35-12.03,9.31-19.65,23.19-19.78,3.89-.04,7.77-.21,11.65-.32Z"/>
    <path class="cls-11" d="M293.49,99.21c19.78.2,39.55.4,59.33.6,11.2.11,17.36,5.36,17.39,14.82.03,9.56-6.06,14.89-17.35,15.03-18.87.24-37.75.42-56.62.62-6.26-.21-12.53-.31-18.79-.66-8.79-.5-14.78-6.54-15.01-14.88-.21-7.51,6.7-14.48,14.96-14.95,5.35-.3,10.72-.39,16.08-.58Z"/>
    <path class="cls-12" d="M293.49,99.21c-5.36.18-10.73.27-16.08.58-8.27.47-15.17,7.45-14.96,14.95.23,8.34,6.23,14.39,15.01,14.88,6.25.35,12.52.45,18.79.66-6.23,15.14-17.39,22.53-34.1,22.53-3.57,0-7.14-.18-10.71-.28-.04-23.22-.09-46.45-.13-69.67,16.81-1.75,32.3-.04,42.19,16.35Z"/>
    <path class="cls-1" d="M251.05,177.2c-7.95-4.29-16.51-4.69-25.3-4.5-11.01.25-16.43-3.24-15.8-10.18.85-9.52,7.99-9.92,15.3-9.76,8.69.19,17.39.22,26.08.32-.09,8.04-.18,16.07-.27,24.11Z"/>
    <path class="cls-12" d="M250.85,224.12c.07-15.63.14-31.27.21-46.9.98.74,12.38,9.69,11.68,24.75-.63,13.56-10.57,21.18-11.89,22.15Z"/>
    <path class="cls-5" d="M442.45,201.4c-.7.1-1.4.2-2.1.3.59-.88,1.28-1.08,2.1-.3Z"/>
    <path class="cls-7" d="M326.38,425.72c-4.3,1.79-8.8.86-13.2.79-5.04-.08-9.98-1.41-10.38-7.55-.4-6.22,3.38-9.23,9.41-9.47,2.02,7.81,7.4,12.64,14.17,16.24Z"/>
    <path class="cls-11" d="M363.16,405.86c0,12.01-11.5,20.03-25.44,21.75-11.88,1.47-25.28-9.2-25.44-21.75-.21-15.44,11.14-22.3,25.44-21.75,14.04.53,25.44,9.74,25.44,21.75Z"/>
    <rect class="cls-7" x="310.41" y="426.3" width="53.55" height="15.66"/>
    <rect class="cls-13" x="283.02" y="426.27" width="53.55" height="15.66"/>
    <path class="cls-13" d="M306.04,447.67c0-11.84,11.33-19.74,25.07-21.44,11.71-1.45,24.91,9.07,25.07,21.44.21,15.22-10.98,21.97-25.07,21.44-13.84-.53-25.07-9.6-25.07-21.44Z"/>
    <rect class="cls-1" x="172.16" y="410.14" width="78.92" height="16.7"/>
    <rect class="cls-6" x="323.83" y="425.11" width="3.81" height="1.09"/>
    <rect class="cls-6" x="250.78" y="410.16" width="9.06" height="16.7"/>
    <rect class="cls-13" x="250.82" y="426.89" width="38.67" height="44.41"/>
    <rect class="cls-1" x="177.04" y="471.03" width="74.1" height="29.87"/>
    <rect class="cls-7" x="250.86" y="471.16" width="74.1" height="29.98"/>
    <path class="cls-11" d="M324.87,424.06l1.92,1.78c-.59-.05-1.52-.43-2.41-1.01-1.36-.88-2.26-1.96-2-2.38s1.61-.04,2.98.84c.03.02.06.04.09.06l-.58.71Z"/>
    <rect class="cls-11" x="326.74" y="424.63" width="2.8" height="1.21"/>
    <ellipse class="cls-11" cx="431.22" cy="97.3" rx="17.4" ry="15.68"/>
    <rect class="cls-11" x="431.83" y="81.58" width="34.74" height="31.41"/>
    <path class="cls-12" d="M251.64,224.29"/>
    <polygon class="cls-15" points="251.09 224.55 251.79 224.09 251.51 223.67 250.82 224.12 251.09 224.55"/>
    <path class="cls-1" d="M101.45,445.64"/>
    <path class="cls-1" d="M130.87,456.69"/>
    <rect class="cls-10" x="-7.88" y="147.09" width="63.56" height="23.7"/>
    <rect class="cls-1" x="-7.92" y="170.04" width="63.56" height="23.7"/>
    <rect class="cls-1" x="29.45" y="121.71" width="35.71" height="8.06"/>
    <rect class="cls-10" x="-12.57" y="129.9" width="63.56" height="23.7"/>
    <rect class="cls-1" x="207.48" y="229.17" width="43.46" height="110.29"/>
    <rect class="cls-7" x="250.83" y="224.11" width="12.67" height="107.52"/>
    <ellipse class="cls-11" cx="270.43" cy="306.61" rx="18.29" ry="15.64"/>
    <rect class="cls-11" x="269.76" y="291.02" width="35.11" height="31.26"/>
    <rect class="cls-7" x="250.8" y="325.6" width="30.06" height="14.26"/>
    <rect class="cls-13" x="249.47" y="339.61" width="21.4" height="70.74"/>
    <rect class="cls-4" x="229.32" y="339.57" width="21.4" height="69.32"/>
    <rect class="cls-13" x="263.01" y="339.63" width="15.94" height="3.98"/>
    <ellipse class="cls-11" cx="291.83" cy="351.52" rx="18.52" ry="17.37"/>
  </g>
</svg>