<?xml version="1.0" encoding="UTF-8"?>
<svg id="Layer_4" data-name="Layer 4" xmlns="http://www.w3.org/2000/svg" xmlns:xlink="http://www.w3.org/1999/xlink" version="1.1" viewBox="0 0 500 500">
  <defs>
    <style>
      .cls-1 {
        fill: #318bc9;
      }

      .cls-1, .cls-2, .cls-3, .cls-4, .cls-5, .cls-6, .cls-7, .cls-8, .cls-9, .cls-10, .cls-11, .cls-12, .cls-13 {
        stroke-width: 0px;
      }

      .cls-2 {
        fill: #fefefe;
      }

      .cls-14 {
        clip-path: url(#clippath);
      }

      .cls-3 {
        fill: none;
      }

      .cls-4 {
        fill: #5bbb61;
      }

      .cls-5 {
        fill: #26728c;
      }

      .cls-6 {
        fill: #226bad;
      }

      .cls-15 {
        stroke: #1c68ac;
        stroke-miterlimit: 10;
        stroke-width: 0px;
      }

      .cls-15, .cls-7 {
        fill: #1c68ac;
      }

      .cls-8 {
        fill: #2d9060;
      }

      .cls-9 {
        fill: #59b862;
      }

      .cls-10 {
        fill: #f2f5f6;
      }

      .cls-11 {
        fill: #a6b0c7;
      }

      .cls-12 {
        fill: #319163;
      }

      .cls-13 {
        fill: #2e9160;
      }
    </style>
    <clipPath id="clippath">
      <circle class="cls-3" cx="253.9" cy="235.75" r="137.13"/>
    </clipPath>
  </defs>
  <g class="cls-14">
    <path class="cls-7" d="M354.55,164.03c1.59-.09,3.18-.09,4.77.01.4.03.81.06,1.21.1.19.02.37.04.56.06.17.02.7.17.08,0,.77.2,1.61.25,2.4.41,1.28.26,2.76-.37,3.08-1.75.28-1.25-.38-2.8-1.75-3.08-3.4-.69-6.88-.98-10.34-.77-1.3.08-2.56,1.09-2.5,2.5.06,1.29,1.1,2.58,2.5,2.5h0Z"/>
    <g>
      <path class="cls-2" d="M95.92,392.79c0-104.27.02-208.54-.1-312.81,0-3.42.67-4.1,4.09-4.09,99.94.12,199.88.12,299.81,0,3.42,0,4.1.67,4.09,4.09-.12,102.94-.12,205.88,0,308.81,0,3.42-.67,4.1-4.09,4.09-101.27-.12-202.54-.1-303.81-.1ZM312.83,110.82l.05.03c-1.78-2.39-4.62-2.74-7.14-3.72-5.67-1.75-11.33-3.5-17-5.25-5.4-2.25-10.93-3.75-16.87-2.79-.31-.09-.63-.17-.96-.24-1.15-1.82-2.88-1.02-4.45-1-2.65.03-5.41.51-7.93-.08-6.41-1.5-12.71-1.07-19.05.1-.69.41-1.38.82-2.07,1.23-5.22-1.79-10,.14-14.81,1.77-2.51,1.54-5.76,1-8.14,2.9-7.68.61-14.74,2.84-20.69,7.97-9.67,3.77-18.13,9.49-26.01,16.14-4.63,1.46-7.06,5.37-9.9,8.83-2.71,2.11-5.15,4.5-7.25,7.21-3.55.31-3.4,4.04-5.13,5.99-3.88,4.38-8.29,8.7-9.69,14.81-.66,1.12-1.33,2.25-1.99,3.37-2.16,2.21-3.5,4.78-4.53,7.77-1.75,5.08-4.21,9.92-6.37,14.86-.69,4.88-2.15,9.56-3.86,14.16-.05,1.43.08,2.9-.18,4.29-1.93,10.77-3.43,21.58-2.9,32.57.7,5.22,1.46,10.45,2.16,15.66,1.54,11.5,5.05,22.3,9.4,32.99,3.3,8.11,7.88,15.42,12.4,22.8,2.47,3.21,4.66,6.68,7.46,9.56,5.5,5.67,9.67,12.79,17.23,16.28,2.73,4.4,7.26,6.67,11.3,9.52,23.38,16.46,49.32,24.62,77.95,24.1,1.66.06,3.32.23,4.97.16,33.81-1.47,63.39-13.48,88.31-36.31,21.51-19.71,35.53-43.93,41.45-72.66,1.35-3.49.58-7.28,1.29-10.76,2.43-11.86,1.62-23.74.65-35.59-.22-2.72.27-5.95-1.92-8.36.68-2.23.36-4.33-.79-6.33-3.2-15.99-10.41-30.25-18.94-43.95.07-1.73-1.54-2.54-2.41-3.47-3.8-4.07-5.8-9.66-10.8-12.68-.03-.2-.11-.37-.26-.52-1.82-3.45-4.55-5.99-7.82-8.02-6.05-4.94-12-10.02-18.62-14.21-3.1-2.01-6.19-4.03-9.29-6.04-2.09-1.47-4.08-3.17-6.87-3.08Z"/>
      <path class="cls-1" d="M133.81,168.09c.66-1.12,1.33-2.25,1.99-3.37,4.49.04,8.99.32,13.46.06,5.83-.34,10.25-5.29,10.25-10.95,0-5.57-3.46-9.42-8.89-9.91,4.14-4.6,9.82-10.27,17.15-16.04,3.14-2.47,12.39-9.5,26.01-16.14,17.58-8.57,33.81-12.22,45.71-13.86,5.12-.54,10.24-1.07,15.36-1.61,0,15.57-.02,31.15-.03,46.72-1.66.06-3.32.16-4.98.16-19.98.02-39.95-.04-59.93.05-11.81.06-20.13,8.3-20.06,19.59.07,10.87,8.61,19.01,20.06,19.08,5.49.04,10.99.05,16.48,0,3.82-.04,7.34.58,7.43,5.29.09,4.64-3.32,5.69-7.17,5.65-3.99-.05-7.56,1-10.6,3.62-4.92,4.24-6.68,10.65-4.65,16.77,2.03,6.11,8.13,10.42,15.47,10.51,11.48.13,22.97-.07,34.46.08,4.77.06,9.26-.66,13.5-2.83,0,12.26-.01,24.52.05,36.78,0,1.74-.68,3.68.95,5.15-.09,2.07-.17,4.14-.26,6.21-1.67,5.04-.28,10.23-.74,15.34-5.32.1-10.64.21-15.95.3-11.13.18-19.56,8.3-19.71,19.01-.15,10.52,8.37,19.11,19.32,19.43,5.47.16,10.95.26,16.42.38-.04,2.79-.07,5.58-.11,8.36-11.14.06-22.29.07-33.43.18-8.34.08-13.69,5.07-13.68,12.6.02,7.64,5.12,12.21,13.76,12.29,11.14.1,22.28.18,33.42.27-.47,5.13,1.02,10.38-1,15.41-13.31.24-26.04-1.39-38.2-4.86-19.46-5.55-32.79-14.5-39.75-19.24-6.12-4.17-10.99-8.13-14.49-11.19,6.08,1.11,11.07,1.46,14.63,1.55,2.57.07,3.31-.12,3.97-.15,6.64-.36,11.66-5.78,11.83-12.42.17-6.93-4.19-13.12-10.69-13.33-13.73-.46-27.5-.77-41.24.18-4.52-7.39-9.1-14.7-12.4-22.8-5.63-13.82-8.01-25.37-9.4-32.99-1.17-6.4-1.8-11.8-2.16-15.66,1.42.02,9.32-.01,15.07-6.21,2.21-2.39,3.8-5.39,4.59-8.87,1.94-8.62-2.54-17.78-10.56-21.63-1.99-.96-3.97-1.84-6.02-.15,1.71-4.6,3.17-9.28,3.86-14.16,2.27-1.12,3.77,1.42,6.13,1.14,4.42-.51,8.95-.12,13.43-.15,7.86-.07,13.1-4.57,13.14-11.24.04-6.48-5.32-10.99-13.13-11.3-2.9-.12-6,.99-8.67-1.08ZM181.75,241.79v.02c-7.81,0-15.62-.03-23.43,0-7.21.03-12.17,4.56-12.15,11.01.02,6.21,4.93,10.99,11.74,11.03,15.78.09,31.57.08,47.36-.02,6.75-.04,11.58-4.84,11.53-11.09-.05-6.42-4.77-10.91-11.62-10.95-7.81-.05-15.62-.01-23.43-.01Z"/>
      <path class="cls-15" d="M255.85,262.86c-1.63-1.47-.94-3.42-.95-5.15-.07-12.26-.04-24.52-.05-36.78.04-.35.07-.7.11-1.05,8.3-5.75,8.29-16.66,0-23.88-.1-.24-.17-.48-.22-.74.05-4.42.1-8.84.15-13.26,0,0,.06-.32.06-.32,1.98.05,3.96.16,5.94.16,9.26,0,15.45-4.06,18.91-12.38,10.46-.11,20.93-.21,31.39-.34,6.26-.08,9.63-3.01,9.62-8.27-.02-5.2-3.43-8.09-9.64-8.15-10.97-.11-21.93-.22-32.9-.33-5.48-9.01-14.07-9.95-23.39-8.99,0,0-.04-.42-.04-.42-.04-15.59-.09-31.17-.13-46.76,17.18.15,41.51,3.27,65,17.67,3.69,2.26,7.08,4.63,10.22,7.06-1.46-.23-3.77-.43-6.52.03-2.56.43-6.97,1.15-10.01,4.98-1.83,2.31-2.83,5.29-2.76,8.72.15,7.19,5.56,12.26,13.3,12.4,7.44.13,14.89.21,22.34.31-1.05,6.81.62,10.59,5.94,11.73,5.5,1.17,11.15,1.37,16.68-.29,8.53,13.69,15.74,27.95,18.94,43.94.24,1.93.47,3.86.71,5.79-9.23,0-18.47,0-27.7,0-.46-.43-.84-.32-1.17.17-14.19,1.97-23.17,11.84-24.54,26.99-2.15.06-4.31.15-6.46.17-7.69.07-12.66,4.26-12.85,10.87-.2,6.85,5.2,11.84,13,11.95,6.3.09,12.61.1,18.91.14,4.37,3.71,9.55,4.99,15.13,5,8.58.02,17.17-.02,25.75-.04-5.92,28.73-19.94,52.95-41.45,72.66-24.92,22.83-54.5,34.84-88.31,36.31-1.65.07-3.32-.1-4.97-.16,2.02-5.03.53-10.28,1-15.41,0,0,.13-.42.13-.42,15.47.04,30.94.19,46.41.05,7.02-.06,11.65-5.28,11.64-12.3,0-5.92-3.37-9.48-8.25-12.04,9.78-1.07,19.6-.24,29.4-.44,3.9-.08,7.2-1.2,9.61-4.34,5.56-7.26,1.94-16.59-7.38-18.77-2.31-.54-4.53-1.05-4.29-3.78.24-2.75,2.74-3.01,4.96-3.09,2.49-.09,4.99-.06,7.49-.03,4.53.05,7.47-2.18,9.32-6.22,1.82-3.98.79-7.49-1.62-10.74-2.2-2.97-5.41-3.5-8.91-3.48-10.82.07-21.64.05-32.47,0-2.25-.01-4.62-.52-4.87-3.24-.19-2.12,1.55-2.97,3.52-3.49,5.96-1.59,8.67-4.91,8.06-9.52-.62-4.67-4.57-7.44-10.71-7.44-13.65-.01-27.31.12-40.96-.07-4.43-.06-7.77,1.27-10.12,5.01Z"/>
      <path class="cls-13" d="M335.15,235.73c1.37-15.15,10.34-25.03,24.54-26.99.39-.05.78-.11,1.17-.17,8.9-.02,17.8-.03,26.7-.05.34,0,.67.02,1.01.02,1.51,6.38,2.79,14.13,3.14,22.99.51,12.99-1.16,24.03-3.08,32.29-8.58.02-17.17.07-25.75.04-5.57-.02-10.76-1.29-15.13-5,5.16-.06,10.32-.06,15.48-.19,7.47-.2,12.55-4.92,12.49-11.48-.06-6.72-5.03-11.2-12.59-11.27-9.32-.09-18.65-.13-27.97-.2Z"/>
      <path class="cls-4" d="M139.94,313.19c13.74-.95,27.5-.64,41.24-.18,6.5.22,10.86,6.4,10.69,13.33-.17,6.64-5.18,12.06-11.83,12.42-.83.04-1.26.14-3.97.15-5.44.02-9.78.08-12.61.13-3.77-2.81-6.45-5.43-8.23-7.34-1.96-2.11-2.76-3.72-7.84-8.96-2.8-2.88-4.99-6.35-7.46-9.56Z"/>
      <path class="cls-8" d="M346.28,147.4c-7.45-.1-14.89-.17-22.34-.31-7.75-.14-13.16-5.21-13.3-12.4-.07-3.42.93-6.41,2.76-8.72,3.02-3.82,7.42-4.54,10.01-4.98,2.79-.47,5.14-.26,6.63-.03,3.14,2.01,6.44,4.29,9.84,6.87,2.8,2.13,5.38,4.25,7.75,6.32,1.33,1.1,2.76,2.39,4.21,3.88,1.39,1.43,2.58,2.83,3.61,4.14.14.14.23.32.26.52-3.99-.13-7.17,1.34-9.41,4.71Z"/>
      <path class="cls-10" d="M133.81,168.09c2.67,2.07,5.77.96,8.67,1.08,7.82.32,13.17,4.82,13.13,11.3-.04,6.67-5.28,11.17-13.14,11.24-4.48.04-9-.35-13.43.15-2.36.27-3.86-2.26-6.13-1.14,2.16-4.94,4.62-9.78,6.37-14.86,1.03-2.99,2.36-5.55,4.53-7.77Z"/>
      <path class="cls-9" d="M119.05,204.87c2.05-1.69,4.02-.81,6.02.15,8.02,3.85,12.5,13.01,10.56,21.63-2.06,9.15-9.71,15.02-19.65,15.08-.53-10.99.97-21.79,2.9-32.57.25-1.4.13-2.86.18-4.29Z"/>
      <path class="cls-10" d="M150.63,143.91c5.44.48,8.9,4.34,8.89,9.91,0,5.67-4.42,10.61-10.25,10.95-4.47.26-8.98-.02-13.46-.06,1.4-6.11,5.81-10.43,9.69-14.81,1.73-1.95,1.58-5.68,5.13-5.99Z"/>
      <path class="cls-4" d="M254.73,195.27c.05.25.12.5.22.74,0,7.96,0,15.92,0,23.88-.04.35-.07.7-.11,1.05-4.24,2.17-8.73,2.89-13.5,2.83-11.48-.15-22.97.05-34.46-.08-7.35-.09-13.44-4.4-15.47-10.51-2.03-6.12-.26-12.53,4.65-16.77,3.04-2.62,6.61-3.66,10.6-3.62,3.85.04,7.26-1.01,7.17-5.65-.09-4.71-3.62-5.32-7.43-5.29-5.49.05-10.99.04-16.48,0-11.46-.08-19.99-8.21-20.06-19.08-.07-11.28,8.24-19.53,20.06-19.59,19.98-.1,39.95-.03,59.93-.05,1.66,0,3.32-.11,4.98-.16,0,0,.04.42.03.42.02,12.77.05,25.53.08,38.3,0,0-.06.32-.06.32-4.82-.06-9.64-.07-14.46-.18-4.05-.09-8.01.13-8.48,5.37-.35,3.81,2.66,5.73,8.76,5.59,4.87-.11,9.62.11,14.03,2.47Z"/>
      <path class="cls-11" d="M255.85,262.86c2.35-3.74,5.68-5.07,10.12-5.01,13.65.19,27.31.06,40.96.07,6.14,0,10.08,2.77,10.71,7.44.62,4.62-2.1,7.93-8.06,9.52-1.97.53-3.71,1.37-3.52,3.49.24,2.72,2.61,3.23,4.87,3.24,10.82.06,21.65.08,32.47,0,3.49-.02,6.71.51,8.91,3.48,2.41,3.25,3.44,6.77,1.62,10.74-1.84,4.03-4.78,6.27-9.32,6.22-2.5-.03-5-.05-7.49.03-2.22.08-4.71.35-4.96,3.09-.24,2.73,1.99,3.25,4.29,3.78,9.32,2.17,12.94,11.51,7.38,18.77-2.41,3.14-5.71,4.26-9.61,4.34-9.8.2-19.61-.63-29.4.44-2.77-.21-5.54-.42-8.32-.63-3.75-1.98-6.73-4.63-7.85-8.92.05-10.09,4.07-14.07,14.27-14.12,1.66,0,3.33.04,4.99,0,2.73-.08,6.54.72,6.43-3.42-.11-4-3.94-3.28-6.65-3.3-9.49-.08-19.03-.67-28.45.16-8.8.77-16.19-9.04-10.09-16.83,3.79-4.93,9.23-3.71,14.28-3.74,2.68-.02,4.91-.8,4.87-3.68-.04-2.75-2.42-3.17-4.76-3.16-5.99.02-11.98-.14-17.97.04-4.67.14-8.08-1.46-9.98-5.85.09-2.07.17-4.14.26-6.21Z"/>
      <path class="cls-4" d="M181.75,241.79c7.81,0,15.62-.04,23.43.01,6.86.04,11.57,4.53,11.62,10.95.05,6.26-4.78,11.05-11.53,11.09-15.78.09-31.57.1-47.36.02-6.81-.04-11.72-4.82-11.74-11.03-.02-6.45,4.94-10.98,12.15-11.01,7.81-.04,15.62,0,23.43,0v-.02Z"/>
      <path class="cls-4" d="M254.92,323.53c-5.47-.13-10.95-.22-16.42-.38-10.95-.32-19.47-8.91-19.32-19.43.15-10.7,8.58-18.82,19.71-19.01,5.32-.09,10.64-.2,15.95-.3.29.19.58.39.87.58-1.5,12.64-.72,25.32-.67,37.99-.1.17-.14.35-.13.54Z"/>
      <path class="cls-4" d="M254.88,357.23c-11.14-.09-22.28-.17-33.42-.27-8.64-.08-13.74-4.65-13.76-12.29-.02-7.53,5.34-12.52,13.68-12.6,11.14-.11,22.29-.12,33.43-.18.1.19.2.38.32.56-.04,8.12-.08,16.24-.11,24.37l-.13.42Z"/>
      <path class="cls-6" d="M255.72,284.99c-.29-.19-.58-.39-.87-.58.46-5.1-.92-10.29.74-15.34,1.9,4.39,5.31,5.99,9.98,5.85,5.98-.18,11.98-.02,17.97-.04,2.35,0,4.72.41,4.76,3.16.04,2.89-2.19,3.67-4.87,3.68-5.05.04-10.49-1.19-14.28,3.74-4.43-1.39-8.94-.62-13.42-.48Z"/>
      <path class="cls-6" d="M255.13,332.45c-.12-.18-.22-.37-.32-.56.04-2.79.07-5.58.11-8.36-.01-.19.03-.38.13-.54,1.97.06,3.94.04,5.91.19,2.61.2,4.45,1.57,4.62,4.25.18,3-1.78,4.49-4.53,4.83-1.95.24-3.94.14-5.91.2Z"/>
      <path class="cls-13" d="M255.13,332.45c1.97-.05,3.96.05,5.91-.2,2.75-.35,4.72-1.83,4.53-4.83-.16-2.68-2.01-4.05-4.62-4.25-1.96-.15-3.94-.13-5.91-.19-.04-12.67-.83-25.35.67-37.99,4.48-.14,8.99-.91,13.42.48-6.09,7.79,1.29,17.59,10.09,16.82,9.42-.82,18.96-.23,28.45-.16,2.71.02,6.54-.7,6.65,3.3.11,4.14-3.69,3.34-6.43,3.42-1.66.05-3.33,0-4.99,0-10.2.05-14.22,4.03-14.27,14.12-3.34.13-5.44,1.79-5.22,5.21.22,3.38,2.96,4.11,5.75,4.15,2.44.04,4.93.55,7.32-.43,2.77.21,5.54.42,8.32.63,4.88,2.55,8.24,6.12,8.25,12.03.01,7.02-4.62,12.24-11.64,12.3-15.47.14-30.94-.02-46.41-.05.04-8.12.08-16.24.12-24.37Z"/>
      <path class="cls-11" d="M335.15,235.73c9.32.06,18.65.11,27.97.2,7.56.07,12.53,4.55,12.59,11.27.06,6.56-5.02,11.28-12.49,11.48-5.16.14-10.32.13-15.48.19-6.3-.04-12.61-.06-18.91-.14-7.8-.11-13.19-5.1-13-11.95.19-6.61,5.16-10.8,12.85-10.87,2.15-.02,4.31-.11,6.46-.17Z"/>
      <path class="cls-11" d="M278.26,152.39c10.97.11,21.93.22,32.9.33,6.21.06,9.63,2.95,9.64,8.15.02,5.25-3.36,8.19-9.62,8.27-10.46.13-20.93.23-31.39.34-3.47-.12-6.95-.17-10.42-.36-4.87-.27-8.2-3.6-8.32-8.18-.11-4.13,3.71-7.96,8.3-8.22,2.97-.17,5.94-.22,8.92-.32Z"/>
      <path class="cls-12" d="M278.26,152.39c-2.97.1-5.95.15-8.92.32-4.58.26-8.41,4.09-8.3,8.22.13,4.59,3.45,7.91,8.32,8.18,3.47.19,6.94.25,10.42.36-3.46,8.32-9.64,12.39-18.91,12.39-1.98,0-3.96-.1-5.94-.16-.02-12.77-.05-25.54-.07-38.3,9.32-.96,17.91-.02,23.39,8.99Z"/>
      <path class="cls-1" d="M254.73,195.27c-4.41-2.36-9.16-2.58-14.03-2.47-6.1.14-9.11-1.78-8.76-5.59.47-5.23,4.43-5.45,8.48-5.37,4.82.1,9.64.12,14.46.18-.05,4.42-.1,8.84-.15,13.26Z"/>
      <path class="cls-12" d="M254.62,221.06c.04-8.59.08-17.19.12-25.78.54.41,6.87,5.33,6.48,13.61-.35,7.46-5.86,11.64-6.59,12.18Z"/>
      <path class="cls-5" d="M360.85,208.57c-.39.06-.78.11-1.17.17.33-.48.71-.59,1.17-.17Z"/>
      <path class="cls-7" d="M296.5,331.9c-2.39.98-4.88.47-7.32.43-2.79-.05-5.53-.78-5.75-4.15-.22-3.42,1.87-5.08,5.22-5.21,1.12,4.29,4.1,6.95,7.85,8.93Z"/>
      <path class="cls-11" d="M316.89,320.98c0,6.61-6.37,11.01-14.11,11.96-6.59.81-14.01-5.06-14.11-11.96-.12-8.49,6.18-12.26,14.11-11.96s14.11,5.35,14.11,11.96Z"/>
      <rect class="cls-7" x="287.64" y="332.22" width="29.69" height="8.61"/>
      <rect class="cls-13" x="272.45" y="332.2" width="29.69" height="8.61"/>
      <path class="cls-13" d="M285.22,343.97c0-6.51,6.28-10.85,13.9-11.79,6.49-.8,13.81,4.99,13.9,11.79.11,8.37-6.09,12.08-13.9,11.79s-13.9-5.28-13.9-11.79Z"/>
      <rect class="cls-1" x="210.99" y="323.34" width="43.75" height="9.18"/>
      <rect class="cls-6" x="295.08" y="331.57" width="2.11" height=".6"/>
      <rect class="cls-6" x="254.58" y="323.35" width="5.02" height="9.18"/>
      <rect class="cls-13" x="254.6" y="332.55" width="21.44" height="24.41"/>
      <rect class="cls-1" x="213.69" y="356.81" width="41.09" height="16.42"/>
      <rect class="cls-7" x="254.62" y="356.88" width="41.09" height="16.48"/>
      <path class="cls-11" d="M295.66,330.99l1.06.98c-.33-.02-.84-.24-1.34-.56-.76-.49-1.26-1.08-1.11-1.31s.89-.02,1.65.46c.02.01.03.02.05.03l-.32.39Z"/>
      <rect class="cls-11" x="296.7" y="331.3" width="1.55" height=".67"/>
      <ellipse class="cls-11" cx="354.63" cy="151.34" rx="9.65" ry="8.62"/>
      <rect class="cls-11" x="354.96" y="142.7" width="19.26" height="17.27"/>
      <path class="cls-1" d="M223.02,101.4"/>
      <path class="cls-15" d="M246.17,105.19"/>
      <path class="cls-12" d="M255.05,221.16"/>
      <rect class="cls-15" x="254.64" y="220.92" width=".46" height=".28" transform="translate(-79.35 174.99) rotate(-33.09)"/>
      <path class="cls-1" d="M171.78,342.85"/>
      <path class="cls-1" d="M188.1,348.93"/>
    </g>
    <g>
      <rect class="cls-10" x="111.17" y="178.71" width="35.24" height="13.03"/>
      <rect class="cls-1" x="111.14" y="191.33" width="35.24" height="13.03"/>
      <rect class="cls-1" x="131.86" y="164.76" width="19.8" height="4.43"/>
      <rect class="cls-10" x="108.56" y="169.26" width="35.24" height="13.03"/>
      <rect class="cls-1" x="230.57" y="223.84" width="24.1" height="60.64"/>
      <rect class="cls-7" x="254.61" y="221.06" width="7.02" height="59.12"/>
      <ellipse class="cls-11" cx="265.48" cy="266.42" rx="10.14" ry="8.6"/>
      <rect class="cls-11" x="265.1" y="257.84" width="19.47" height="17.19"/>
      <rect class="cls-7" x="254.59" y="276.86" width="16.67" height="7.84"/>
      <rect class="cls-13" x="253.85" y="290.04" width="11.86" height="38.89"/>
      <rect class="cls-4" x="242.68" y="284.54" width="11.86" height="38.11"/>
      <rect class="cls-13" x="261.36" y="284.57" width="8.84" height="2.19"/>
      <ellipse class="cls-11" cx="277.34" cy="291.11" rx="10.27" ry="9.55"/>
    </g>
  </g>
</svg>