<?xml version="1.0" encoding="iso-8859-1"?>
<!-- Uploaded to: SVG Repo, www.svgrepo.com, Generator: SVG Repo Mixer Tools -->
<!DOCTYPE svg PUBLIC "-//W3C//DTD SVG 1.1//EN" "http://www.w3.org/Graphics/SVG/1.1/DTD/svg11.dtd">
<svg height="800px" width="800px" version="1.1" id="Capa_1" xmlns="http://www.w3.org/2000/svg" xmlns:xlink="http://www.w3.org/1999/xlink" 
	 viewBox="0 0 415.481 415.481" xml:space="preserve">
<g>
	<circle style="fill:#EDC148;" cx="315.031" cy="280.908" r="65.997"/>
	<g>
		<path style="fill:#B3B3B3;" d="M315.031,381.358c-25.735,0-51.47-9.796-71.062-29.388L97.606,205.606
			c-2.539-2.539-2.539-6.654,0-9.192c2.538-2.538,6.654-2.538,9.192,0l146.364,146.364c34.115,34.115,89.624,34.115,123.739,0
			c34.115-34.115,34.115-89.625,0-123.739l-80.602-80.602c-2.539-2.539-2.539-6.654,0-9.192c2.538-2.538,6.654-2.538,9.192,0
			l80.602,80.602c39.184,39.184,39.184,102.94,0,142.124C366.501,371.562,340.766,381.358,315.031,381.358z"/>
		<path style="fill:#B3B3B3;" d="M276.502,115.946c-1.664,0-3.327-0.635-4.596-1.904l-41.368-41.368
			c-2.539-2.539-2.539-6.654,0-9.192c2.538-2.538,6.654-2.538,9.192,0l41.368,41.368c2.539,2.539,2.539,6.654,0,9.192
			C279.829,115.312,278.165,115.946,276.502,115.946z"/>
		<g>
			<path style="fill:#B3B3B3;" d="M45.7,97.622c-1.664,0-3.327-0.635-4.596-1.904l-39.2-39.2c-2.539-2.539-2.539-6.654,0-9.192
				c2.538-2.538,6.654-2.538,9.192,0l39.2,39.2c2.539,2.539,2.539,6.654,0,9.192C49.027,96.987,47.364,97.622,45.7,97.622z"/>
			<path style="fill:#B3B3B3;" d="M215.869,267.791c-1.664,0-3.327-0.635-4.596-1.904l-155.37-155.37
				c-2.539-2.539-2.539-6.654,0-9.192c2.538-2.538,6.654-2.538,9.192,0l155.37,155.37c2.539,2.539,2.539,6.654,0,9.192
				C219.196,267.156,217.533,267.791,215.869,267.791z"/>
			<path style="fill:#B3B3B3;" d="M207.915,180.292c-1.664,0-3.327-0.635-4.596-1.904L120.591,95.66
				c-2.539-2.539-2.539-6.654,0-9.192c2.538-2.538,6.654-2.538,9.192,0l82.728,82.728c2.539,2.539,2.539,6.654,0,9.192
				C211.242,179.657,209.579,180.292,207.915,180.292z"/>
			<path style="fill:#B3B3B3;" d="M246.096,218.473c-1.664,0-3.327-0.635-4.596-1.904l-18.03-18.03
				c-2.539-2.539-2.539-6.654,0-9.192c2.538-2.538,6.654-2.538,9.192,0l18.03,18.03c2.539,2.539,2.539,6.654,0,9.192
				C249.423,217.838,247.76,218.473,246.096,218.473z"/>
			<path style="fill:#B3B3B3;" d="M214.809,107.64c-1.664,0-3.327-0.635-4.596-1.904l-60.517-60.517
				c-2.539-2.539-2.539-6.654,0-9.192c2.538-2.538,6.654-2.538,9.192,0l60.517,60.517c2.539,2.539,2.539,6.654,0,9.192
				C218.136,107.005,216.472,107.64,214.809,107.64z"/>
			<path style="fill:#B3B3B3;" d="M295.415,188.246c-1.664,0-3.327-0.635-4.596-1.904l-59.394-59.394
				c-2.539-2.539-2.539-6.654,0-9.192c2.538-2.538,6.654-2.538,9.192,0l59.394,59.394c2.539,2.539,2.539,6.654,0,9.192
				C298.742,187.611,297.078,188.246,295.415,188.246z"/>
		</g>
	</g>
	<circle style="fill:#B2863F;" cx="291.916" cy="262.982" r="12.749"/>
	<circle style="fill:#B2863F;" cx="343.67" cy="294.567" r="19.412"/>
	<path style="fill:#B2863F;" d="M288.915,312.981c-0.42,0-0.85-0.04-1.27-0.13c-0.41-0.08-0.82-0.21-1.21-0.37
		c-0.4-0.16-0.77-0.36-1.13-0.6c-0.35-0.23-0.69-0.51-0.99-0.8c-0.3-0.3-0.57-0.64-0.8-0.99c-0.24-0.36-0.44-0.73-0.6-1.13
		c-0.16-0.39-0.29-0.8-0.37-1.21c-0.09-0.42-0.13-0.85-0.13-1.27c0-0.43,0.04-0.85,0.13-1.27c0.08-0.42,0.21-0.83,0.37-1.22
		c0.16-0.39,0.36-0.77,0.6-1.12c0.23-0.36,0.5-0.69,0.8-0.99c0.3-0.3,0.64-0.57,0.99-0.81c0.36-0.23,0.73-0.43,1.13-0.59
		c0.39-0.17,0.8-0.29,1.21-0.37c2.11-0.43,4.36,0.26,5.87,1.77c0.3,0.3,0.57,0.63,0.81,0.99c0.23,0.35,0.43,0.73,0.59,1.12
		c0.17,0.39,0.29,0.8,0.37,1.22c0.09,0.42,0.13,0.84,0.13,1.27c0,0.42-0.04,0.85-0.13,1.27c-0.08,0.41-0.2,0.82-0.37,1.21
		c-0.16,0.4-0.36,0.77-0.59,1.13c-0.24,0.35-0.51,0.69-0.81,0.99C292.305,312.281,290.625,312.981,288.915,312.981z"/>
	<path style="fill:#B2863F;" d="M335.415,254.481c-1.71,0-3.39-0.69-4.6-1.9c-0.3-0.3-0.57-0.63-0.81-0.99
		c-0.23-0.35-0.43-0.73-0.59-1.12c-0.17-0.4-0.29-0.8-0.37-1.22c-0.09-0.42-0.13-0.85-0.13-1.27c0-1.71,0.69-3.38,1.9-4.59
		c0.3-0.3,0.63-0.58,0.99-0.81c0.35-0.24,0.73-0.44,1.12-0.6c0.4-0.16,0.8-0.29,1.22-0.37c2.11-0.42,4.36,0.27,5.86,1.78
		c1.22,1.2,1.91,2.88,1.91,4.59c0,0.42-0.04,0.85-0.13,1.27c-0.08,0.42-0.21,0.82-0.37,1.22c-0.16,0.39-0.36,0.77-0.6,1.12
		c-0.23,0.36-0.51,0.69-0.81,0.99C338.795,253.791,337.125,254.481,335.415,254.481z"/>
	<path style="fill:#B2863F;" d="M311.415,327.981c-1.71,0-3.39-0.7-4.6-1.91c-1.21-1.2-1.9-2.88-1.9-4.59s0.69-3.39,1.9-4.6
		c1.21-1.21,2.89-1.9,4.6-1.9s3.39,0.69,4.6,1.9c1.21,1.21,1.9,2.89,1.9,4.6s-0.69,3.38-1.9,4.59S313.125,327.981,311.415,327.981z"
		/>
</g>
</svg>