<?xml version="1.0" encoding="utf-8"?>
<!-- Designed by Vexels.com - 2020 All Rights Reserved - https://vexels.com/terms-and-conditions/  -->
<svg version="1.1" id="Capa_1" xmlns="http://www.w3.org/2000/svg" xmlns:xlink="http://www.w3.org/1999/xlink" x="0px" y="0px"
	 viewBox="0 0 1200 1200" enable-background="new 0 0 1200 1200" xml:space="preserve">
<g>
	<path fill="none" d="M798.574,834.313c0.24-0.257,0.488-0.506,0.742-0.749C799.062,833.807,798.814,834.056,798.574,834.313z"/>
	<path fill="none" d="M581.879,819.908c-0.511-0.489-1.007-0.995-1.495-1.51C580.872,818.913,581.368,819.419,581.879,819.908z"/>
	<path fill="none" d="M701.935,924.381c2.573-2.167,5.136-4.347,7.715-6.506c0.632-0.325,1.264-0.65,1.895-0.975
		c-0.632,0.325-1.263,0.65-1.895,0.975C707.07,920.034,704.508,922.214,701.935,924.381z"/>
	<path fill="none" d="M742.003,889.801c0.358-0.361,0.717-0.721,1.081-1.077h0C742.721,889.08,742.362,889.44,742.003,889.801z"/>
	<path fill="none" d="M801.63,830.631L801.63,830.631c3.53-3.829,7.06-7.657,10.589-11.484l0,0
		C808.689,822.975,805.16,826.803,801.63,830.631z"/>
	<path fill="none" d="M666.939,703.001c0.65,0.508,1.349,0.963,2.012,1.457c0,0,0,0,0,0
		C668.288,703.964,667.589,703.509,666.939,703.001z"/>
	<path fill="none" d="M637.698,972.12c0.5-0.066,1-0.133,1.501-0.2c2.341,1.603,4.635,3.28,7.032,4.794
		c-2.397-1.515-4.691-3.192-7.029-4.795C638.698,971.987,638.198,972.053,637.698,972.12L637.698,972.12z"/>
	<path fill="none" d="M542.932,853.04c0.38,0.342,0.769,0.674,1.165,0.999C543.701,853.714,543.312,853.382,542.932,853.04z"/>
	<path fill="none" d="M542.369,852.519c-0.925-0.883-1.785-1.839-2.536-2.913h0C540.584,850.68,541.444,851.636,542.369,852.519z"/>
	<path fill="none" d="M578.225,816.04c-0.477-0.527-0.956-1.052-1.444-1.567c0.454-0.543,0.886-1.107,1.348-1.643
		c-0.462,0.536-0.895,1.099-1.349,1.642c-0.281,0.017-0.563,0.034-0.845,0.051c0.281-0.017,0.563-0.034,0.845-0.051
		C577.268,814.989,577.747,815.514,578.225,816.04z"/>
	<path fill="none" d="M708.565,645.766C708.565,645.766,708.565,645.766,708.565,645.766c2.544-3.321,4.937-6.734,6.901-10.412
		C713.503,639.031,711.109,642.445,708.565,645.766z"/>
	<path fill="none" d="M667.87,951.1c1.288-1.013,2.531-2.09,3.806-3.12l0,0C670.401,949.01,669.159,950.087,667.87,951.1z"/>
	<path fill="none" d="M488.135,891.452c-0.996,0.535-2.074,0.872-3.323,0.8c-2.837-2.732-5.65-5.489-8.515-8.191
		c2.866,2.702,5.678,5.459,8.515,8.191C486.061,892.323,487.138,891.986,488.135,891.452z"/>
	<path fill="none" d="M753.85,875.844c0.523,0.479,1.036,0.971,1.566,1.439c-2.344,2.329-4.707,4.64-7.027,6.994
		c2.32-2.354,4.683-4.665,7.028-6.995c0,0,0,0-0.001,0C754.886,876.815,754.373,876.322,753.85,875.844z"/>
	<path fill="none" d="M780.056,496.636c1.602,1.091,3.149,2.237,3.928,4.15h0C783.205,498.873,781.658,497.727,780.056,496.636z"/>
	<path fill="none" d="M1021.793,345.778c-0.765-0.3-1.571-0.518-2.346-0.796l0,0C1020.222,345.26,1021.028,345.479,1021.793,345.778
		z"/>
	<path fill="none" d="M1019.447,344.982c-0.162-0.314-0.324-0.629-0.486-0.943c0,0,0,0,0,0l0,0
		C1019.122,344.353,1019.284,344.668,1019.447,344.982z"/>
	<path fill="none" d="M834.12,794.628c0.045-0.304,0.096-0.606,0.154-0.908l0,0C834.217,794.022,834.165,794.325,834.12,794.628z"/>
	<path fill="none" d="M805.526,442.844c-1.034,3.268-2.153,6.523-4.04,9.452c0,0,0,0,0,0c0.134,0.595,0.266,1.191,0.398,1.788
		c-0.133-0.596-0.265-1.192-0.398-1.788C803.374,449.368,804.492,446.112,805.526,442.844z"/>
	<path fill="none" d="M1018.824,331.515c-0.065-1.188-0.141-2.375-0.226-3.562C1018.683,329.14,1018.759,330.327,1018.824,331.515z"
		/>
	<path fill="none" d="M1019.296,363.861C1019.296,363.861,1019.296,363.861,1019.296,363.861
		c-0.292,5.374-0.506,10.755-0.828,16.129C1018.789,374.617,1019.003,369.236,1019.296,363.861z"/>
	<path fill="none" d="M833.933,336.448c-1.885-0.239-3.346-1.268-4.745-2.401C830.588,335.18,832.048,336.21,833.933,336.448
		c1.178-6.83,2.37-13.657,3.527-20.491C836.303,322.791,835.111,329.618,833.933,336.448z"/>
	<path fill="none" d="M847.368,219.916c0.093,0.292,0.187,0.583,0.281,0.874c0,0,0,0,0,0
		C847.555,220.5,847.462,220.208,847.368,219.916z"/>
	<path fill="none" d="M839.516,297.707C839.517,297.707,839.517,297.707,839.516,297.707c1.164-2.749,1.458-5.66,1.749-8.572
		C840.974,292.047,840.681,294.958,839.516,297.707z"/>
	<path fill="none" d="M846.241,239.768C846.241,239.768,846.241,239.768,846.241,239.768c0.469-6.326,0.938-12.652,1.407-18.978
		C847.179,227.117,846.71,233.442,846.241,239.768z"/>
	<path fill="none" d="M842.66,130.138c-0.395-2.854-0.814-5.705-1.244-8.555C841.846,124.433,842.264,127.284,842.66,130.138z"/>
	<path fill="none" d="M555.565,1021.723c-0.725,0.459-1.446,0.928-2.18,1.371C554.119,1022.651,554.839,1022.182,555.565,1021.723z"
		/>
	<path fill="none" d="M701.935,924.381c-2.573,2.167-5.158,4.32-7.781,6.424C696.777,928.701,699.361,926.547,701.935,924.381z"/>
	<path fill="none" d="M712.568,918.743c0.171,0.211,0.355,0.411,0.548,0.601C712.923,919.154,712.739,918.955,712.568,918.743z"/>
	<path fill="none" d="M712.568,918.743c-0.429-0.529-0.782-1.131-1.023-1.843l0,0C711.786,917.612,712.139,918.215,712.568,918.743z
		"/>
	<path fill="none" d="M637.493,972.278c-0.527,0.402-1.049,0.812-1.571,1.221C636.444,973.089,636.966,972.679,637.493,972.278z"/>
	<path fill="none" d="M529.408,1035.624c6.964,4.501,13.895,9.054,20.873,13.533
		C543.303,1044.678,536.372,1040.125,529.408,1035.624c-0.321-0.049-0.642-0.098-0.963-0.147
		C528.766,1035.526,529.087,1035.575,529.408,1035.624z"/>
	<path fill="none" d="M977.066,557.483c0.195-0.423,0.401-0.841,0.601-1.262C977.468,556.641,977.261,557.06,977.066,557.483
		C977.066,557.483,977.066,557.483,977.066,557.483z"/>
	<path fill="none" d="M961.361,596.111c-0.025-0.077-0.055-0.152-0.083-0.228C961.306,595.959,961.336,596.034,961.361,596.111
		L961.361,596.111z"/>
	<path fill="none" d="M511.437,1043.966C511.437,1043.966,511.437,1043.966,511.437,1043.966
		c-7.376,3.216-14.752,6.432-22.128,9.648C496.685,1050.398,504.061,1047.182,511.437,1043.966z"/>
	<path fill="none" d="M744.536,888.404c1.857,2.511,4.445,4.141,6.991,5.781c-2.547-1.64-5.134-3.271-6.989-5.783
		c-0.486,0.108-0.971,0.215-1.455,0.322C743.568,888.617,744.052,888.51,744.536,888.404z"/>
	<path fill="none" d="M954.41,610.665c2.309,1.029,4.588,2.135,6.934,3.073C958.998,612.8,956.719,611.694,954.41,610.665
		c-0.228,0.046-0.457,0.075-0.689,0.088C953.953,610.74,954.182,610.711,954.41,610.665z"/>
	<path fill="none" d="M801.66,831.429L801.66,831.429c-0.75,0.697-1.533,1.363-2.274,2.069
		C800.127,832.792,800.91,832.125,801.66,831.429z"/>
	<path fill="none" d="M756.809,876.515c1.283,2.312,3.506,3.586,5.587,4.964c-2.081-1.378-4.304-2.652-5.583-4.967
		c-0.411,0.228-0.819,0.452-1.227,0.677C755.994,876.964,756.402,876.74,756.809,876.515z"/>
	<path fill="none" d="M485.138,1054.991c0.891-0.428,1.778-0.866,2.671-1.289l0,0
		C486.915,1054.124,486.029,1054.562,485.138,1054.991z"/>
	<path fill="none" d="M535.753,847.404c0.925,0.982,1.656,2.173,2.492,3.249c0,0,0.001,0,0.001-0.001
		C537.409,849.577,536.677,848.386,535.753,847.404z"/>
	<path fill="none" d="M488.788,891.068c0.214-0.136,0.426-0.279,0.635-0.428C489.214,890.789,489.003,890.933,488.788,891.068z"/>
	<path fill="none" d="M615.705,772.625c0.467-0.416,0.949-0.82,1.447-1.21C616.654,771.805,616.172,772.209,615.705,772.625z"/>
	<path fill="none" d="M617.913,770.842c-0.043-0.638-0.086-1.276-0.128-1.914c0,0,0,0,0,0c-1.128-0.858-2.315-1.651-3.376-2.586
		c1.061,0.935,2.247,1.727,3.375,2.586c0.042,0.638,0.085,1.276,0.126,1.914c1.753,0.217,3.034,1.221,4.299,2.302
		C620.944,772.063,619.664,771.059,617.913,770.842z"/>
	<path fill="none" d="M615.015,773.259c-2.716,2.574-4.927,5.59-6.927,8.791c-0.593,0-1.186,0.001-1.778,0.001
		c-1.567-1.555-3.073-3.178-4.711-4.655c1.638,1.477,3.144,3.1,4.711,4.656c0.593-0.002,1.186-0.002,1.779-0.001
		C610.088,778.85,612.298,775.833,615.015,773.259z"/>
	<path fill="none" d="M456.248,888.225c5.213,4.832,10.418,9.674,15.623,14.512c0,0,0.001-0.001,0.001-0.001
		C466.665,897.898,461.461,893.057,456.248,888.225z"/>
	<path fill="none" d="M578.225,816.04c0.716,0.79,1.429,1.584,2.16,2.357C579.653,817.625,578.941,816.831,578.225,816.04z"/>
	<path fill="none" d="M437.394,926.522c-0.009,0.292-0.017,0.584-0.025,0.876C437.377,927.105,437.385,926.813,437.394,926.522
		L437.394,926.522z"/>
	<path fill="none" d="M453.517,1066.857C453.517,1066.857,453.517,1066.857,453.517,1066.857c-0.804-0.712-1.565-1.486-2.367-2.2
		C451.952,1065.371,452.713,1066.145,453.517,1066.857z"/>
	<path fill="none" d="M331.086,979.52c0.042-0.019,0.085-0.038,0.127-0.057C331.171,979.481,331.128,979.501,331.086,979.52
		C331.086,979.52,331.086,979.52,331.086,979.52z"/>
	<path fill="none" d="M511.698,1043.262c4.404-1.479,8.607-3.39,12.694-5.55C520.305,1039.872,516.102,1041.783,511.698,1043.262
		C511.698,1043.262,511.698,1043.262,511.698,1043.262z"/>
	<path fill="none" d="M470.517,1061.186c4.064-1.69,8.139-3.355,12.188-5.08C478.656,1057.831,474.581,1059.496,470.517,1061.186
		C470.517,1061.186,470.517,1061.186,470.517,1061.186z"/>
	<path fill="none" d="M777.979,514.845C777.979,514.845,777.979,514.845,777.979,514.845c2.001-4.686,4.003-9.372,6.005-14.059
		C781.981,505.472,779.98,510.159,777.979,514.845z"/>
	<path fill="none" d="M751.508,1124.041c-0.577-0.229-1.16-0.443-1.745-0.653C750.348,1123.598,750.931,1123.812,751.508,1124.041z"
		/>
	<path fill="none" d="M840.107,113.036c0.438,2.849,0.879,5.698,1.308,8.547C840.986,118.733,840.545,115.885,840.107,113.036z"/>
	<path fill="none" d="M1008.728,452.003l0.294,0.008c1.421,0.584,2.862,1.125,4.275,1.724c-1.413-0.599-2.855-1.14-4.275-1.724
		C1009.021,452.011,1008.857,452.007,1008.728,452.003z"/>
	<path fill="#164696" d="M238.947,255.727c5.052,16.804,10.931,33.33,17.569,49.585c8.432,20.648,17.819,40.855,28.198,60.585
		c12.291,23.363,25.421,46.252,39.553,68.565c15.736,24.845,32.315,49.107,49.75,72.789c17.714,24.062,36.115,47.583,55.366,70.436
		c8.043,9.547,16.069,19.111,24.267,28.524c6.744,7.743,13.663,15.339,20.629,22.884c9.431,10.215,19.049,20.259,28.468,30.486
		c15.643,16.983,32.314,32.945,48.683,49.207c5.715,5.678,11.611,11.18,17.538,16.638c9.065,8.348,18.207,16.613,27.359,24.866
		c5.984,5.396,12.034,10.721,18.08,16.049c1.061,0.935,2.247,1.727,3.376,2.586c1.284-1.222,2.68-2.352,3.922-3.607
		c0.414-0.419,0.811-0.851,1.181-1.305c10.565-12.964,21.043-25.998,31.545-39.014c0.792-0.982,1.486-2.05,2.333-2.982
		c2.018-2.22,3.432-2.322,5.7-0.523c0.247,0.196,0.475,0.416,0.71,0.626c2.94,2.628,5.894,5.24,8.816,7.887
		c12.282,11.126,25.048,21.683,37.806,32.254c18.603,15.415,37.746,30.135,57.203,44.445c10.044,7.387,20.297,14.489,30.489,21.673
		c0.159,0.112,0.322,0.22,0.487,0.324c0.331,0.208,0.671,0.401,1.018,0.587c0.347,0.185,0.699,0.362,1.053,0.537
		c0.531,0.263,1.063,0.523,1.583,0.801c0,0,0,0,0,0c3.53-3.828,7.059-7.656,10.589-11.484c-1.436-1.28-2.765-2.72-4.285-3.876
		c-0.217-0.165-0.438-0.325-0.664-0.477c-18.469-12.459-36.383-25.688-53.99-39.315c-14.231-11.014-28.188-22.388-42.082-33.827
		c-10.476-8.625-20.667-17.598-30.966-26.437c-1.316-1.13-2.489-2.425-3.787-3.578c-2.239-1.988-4.422-4.065-7.258-5.227
		c-1.258,1.4-2.567,2.758-3.76,4.211c-1.502,1.83-2.831,3.806-4.383,5.59c-1.144,1.316-2.4,1.368-3.815,0.445
		c-0.527-0.343-1.018-0.751-1.484-1.175c-3.737-3.405-7.479-6.804-11.192-10.235c-20.087-18.563-39.306-38.01-58.424-57.554
		c-7.178-7.338-14.024-15.001-20.994-22.54c-3.539-3.828-7.044-7.688-10.519-11.574c-5.792-6.477-11.659-12.892-17.293-19.505
		c-9.017-10.583-18.032-21.176-26.75-32.004c-10.801-13.415-21.426-26.975-31.896-40.65c-15.377-20.082-29.932-40.759-43.927-61.826
		c-17.847-26.864-34.804-54.276-50.233-82.607c-7.33-13.458-14.688-26.915-21.504-40.635c-9.279-18.677-18.066-37.593-26.101-56.856
		c-9.375-22.476-17.921-45.247-25.322-68.445c-4.467-14.002-8.687-28.076-12.098-42.379c-1.576-6.608-3.156-13.215-4.671-19.836
		c-0.422-1.843-0.617-3.738-0.918-5.609c-1.083,0.645-2.201,1.235-3.241,1.941c-18.066,12.273-35.335,25.584-51.794,39.935
		c-4.399,3.836-8.579,7.921-12.86,11.892c0.36,1.616,0.811,3.22,1.138,4.841c0.109,0.54,0.205,1.082,0.279,1.627
		C229.839,221.201,233.799,238.607,238.947,255.727z"/>
	<path fill="#1B1A49" d="M1044.895,643.387c-21.061-6.305-41.854-13.404-62.367-21.315c-7.08-2.73-14.138-5.519-21.184-8.334
		c-2.346-0.938-4.625-2.044-6.934-3.073c-0.228,0.046-0.457,0.075-0.689,0.088c-0.829,1.871-1.591,3.775-2.496,5.608
		c-19.94,40.412-43.115,78.899-69.133,115.678c-13.581,19.198-27.825,37.9-42.796,56.042c-1.601,1.94-3.344,3.763-5.022,5.64
		c-0.058,0.301-0.109,0.604-0.154,0.908c16.07,10.371,32.323,20.441,49.013,29.792c3.446,1.931,6.811,4.008,10.268,5.92
		c7.465,4.13,14.877,8.369,22.469,12.253c13.924,7.123,27.858,14.242,41.985,20.947c12.13,5.756,24.477,11.072,36.839,16.32
		c10.181,4.322,20.486,8.362,30.81,12.335c8.553,3.292,17.2,6.345,25.837,9.414c2.373,0.843,4.86,1.364,7.293,2.032
		c1.854-2.748,3.779-5.451,5.552-8.25c11.502-18.158,21.891-36.927,31.282-56.268c10.501-21.627,19.54-43.84,27.059-66.657
		c9.208-27.939,16.299-56.416,20.787-85.508c1.034-6.703,1.797-13.448,2.685-20.173c-6.001-1.006-12.021-1.911-18.006-2.996
		c-0.855-0.155-1.709-0.314-2.563-0.477C1098.231,658.113,1071.417,651.327,1044.895,643.387z"/>
	<path fill="#164696" d="M510.446,159.147c16.843,24.884,34.788,48.954,53.808,72.216c11.703,14.313,23.663,28.409,36.118,42.084
		c8.619,9.464,17.196,18.959,26.194,28.07c7.661,7.757,15.052,15.785,22.84,23.41c9.482,9.283,19.199,18.329,28.918,27.366
		c8.447,7.854,16.914,15.696,25.598,23.284c10.114,8.837,20.404,17.478,30.745,26.051c17.526,14.529,35.57,28.401,53.893,41.911
		c2.926,2.157,5.856,4.311,8.841,6.386c1.288,0.896,2.719,1.588,4.086,2.371c1.887-2.929,3.005-6.184,4.04-9.452
		c0.345-1.089,0.681-2.18,1.033-3.261c3.665-11.257,7.142-22.581,10.445-33.95c6.038-20.78,11.355-41.744,15.44-63.006
		c0.209-1.085,0.384-2.176,0.574-3.265h0c0.305-0.971,0.61-1.943,0.915-2.915v0c-1.885-0.239-3.346-1.268-4.745-2.401
		c-0.2-0.162-0.398-0.326-0.597-0.49c-10.842-8.955-21.794-17.78-32.48-26.916c-9.362-8.005-18.483-16.297-27.597-24.585
		c-6.193-5.632-12.225-11.441-18.266-17.237c-7.295-6.998-14.674-13.919-21.742-21.142c-8.173-8.352-16.143-16.909-24.022-25.54
		c-8.093-8.865-16.058-17.851-23.922-26.919c-13.776-15.885-26.803-32.378-39.047-49.467c-7.359-10.272-14.532-20.688-21.471-31.248
		c-11.809-17.973-22.551-36.577-31.943-55.939c-0.688-1.418-1.248-2.898-1.868-4.35c-1.895-0.008-3.792-0.091-5.682-0.013
		c-17.534,0.72-35.002,2.146-52.41,4.429c-22.273,2.921-44.285,7.133-66.034,12.728c-1.667,0.429-3.273,1.094-4.908,1.649
		c2.878,5.623,5.647,11.305,8.652,16.86C479.472,111.048,494.4,135.441,510.446,159.147z"/>
	<path fill="#164696" d="M70.854,650.709c4.001,8.94,8.377,17.717,12.72,26.5c10.237,20.704,21.636,40.768,33.793,60.396
		c13.74,22.185,28.436,43.728,44.167,64.553c13.437,17.789,27.367,35.188,42.017,51.994c7.06,8.098,14.428,15.928,21.635,23.899
		c15.704,17.366,32.563,33.599,49.334,49.906c8.152,7.926,16.751,15.401,25.292,22.916c9.255,8.142,18.678,16.094,28.03,24.125
		c0.454,0.389,0.904,0.78,1.321,1.194c0.917,0.911,1.67,1.939,1.921,3.328c0.042-0.019,0.085-0.038,0.127-0.057
		c0.621-0.281,1.243-0.562,1.863-0.843c4.536-1.827,9.111-3.562,13.592-5.512c3.306-1.438,5.845-0.8,8.607,1.549
		c11.163,9.493,22.335,18.99,33.83,28.072c12.738,10.064,25.443,20.187,38.846,29.391c12.61,8.658,25.084,17.515,37.6,26.308
		c1.155,0.812,2.184,1.802,3.271,2.709c0.564,0.016,1.128,0.033,1.693,0.049c4.064-1.69,8.139-3.355,12.188-5.08
		c0.82-0.349,1.628-0.728,2.433-1.115c0.891-0.428,1.778-0.866,2.671-1.289c-1.326-0.994-2.614-2.043-3.953-3.016
		c-0.447-0.324-0.899-0.64-1.359-0.942c-22.878-15.001-45.137-30.879-66.742-47.649c-13.227-10.266-26.099-20.991-39.125-31.516
		c-1.597-1.29-3.224-2.556-4.713-3.963c-0.752-0.71-1.228-1.711-1.97-2.786c0.827-0.63,1.374-1.197,2.039-1.528
		c4.95-2.47,9.922-4.895,14.89-7.33c0.709-0.348,1.435-0.662,2.147-1.005c2.228-1.072,4.294-0.73,6.234,0.706
		c0.635,0.47,1.282,0.927,1.886,1.434c10.522,8.841,20.894,17.869,31.596,26.486c11.445,9.214,23.063,18.228,34.859,26.989
		c13.7,10.175,27.655,20.005,41.551,29.914c2.041,1.455,4.361,2.52,6.551,3.765c4.404-1.478,8.607-3.39,12.694-5.549
		c1.362-0.72,2.712-1.467,4.052-2.235c-1.257-0.953-2.468-1.976-3.778-2.85c-16.828-11.217-33.329-22.904-49.491-35.049
		c-15.779-11.857-31.448-23.872-46.536-36.616c-4.584-3.871-9.274-7.616-13.854-11.491c-1.558-1.318-3.001-2.794-4.355-4.322
		c-0.689-0.778-0.555-1.83,0.265-2.549c0.704-0.618,1.511-1.134,2.321-1.615c6.243-3.714,12.472-7.452,18.765-11.079
		c1.76-1.014,3.72-1.682,5.589-2.509c0.008-0.292,0.016-0.584,0.025-0.876c-2.241-0.772-4.015-2.207-5.693-3.746
		c-0.763-0.7-1.505-1.42-2.263-2.11c-9.928-9.042-19.671-18.288-29.597-27.332c-15.081-13.74-29.252-28.4-43.555-42.923
		c-7.424-7.538-14.49-15.43-21.691-23.186c-3.869-4.168-7.68-8.391-11.521-12.585c-12.166-13.289-23.861-26.986-35.362-40.851
		c-15.744-18.98-30.921-38.404-45.559-58.247c-17.834-24.175-34.772-48.967-50.519-74.547
		c-9.028-14.664-17.864-29.463-26.262-44.494c-12.719-22.766-24.396-46.073-34.95-69.94c-8.571-19.381-16.417-39.044-23.22-59.102
		c-3.804-11.215-7.176-22.591-10.324-34.011c-2.769-10.046-4.946-20.255-7.405-30.387c-0.334-1.377-0.787-2.726-1.185-4.089
		c-0.361,0.693-0.815,1.355-1.071,2.086c-4.324,12.351-8.671,24.694-12.896,37.079c-1.012,2.966-1.597,6.077-2.378,9.122l0,0l0,0
		c0.636,1.528,1.319,3.038,1.938,4.572c0.206,0.511,0.406,1.025,0.594,1.543c5.93,16.342,11.505,32.822,17.814,49.015
		c7.86,20.174,16.205,40.166,25.649,59.67c6.2,12.803,12.346,25.634,18.769,38.325c12.569,24.835,26.353,48.997,40.922,72.711
		c14.321,23.31,29.45,46.083,45.451,68.276c13.131,18.212,26.615,36.16,40.899,53.485c9.65,11.705,19.561,23.195,29.403,34.742
		c9.537,11.189,19.671,21.833,29.665,32.612c12.799,13.805,26.19,27.013,39.68,40.117c9.97,9.685,20.423,18.875,30.683,28.26
		c3.148,2.88,6.404,5.642,9.55,8.524c1.378,1.261,2.996,2.347,3.837,4.416c-0.307,0.422-0.554,1.089-1.028,1.36
		c-3.428,1.961-6.899,3.846-10.36,5.748c-1.893,1.04-3.591,0.785-5.22-0.653c-4.146-3.661-8.399-7.202-12.494-10.918
		c-5.501-4.991-10.873-10.123-16.336-15.156c-13.025-12.001-25.65-24.418-37.939-37.158c-11.517-11.94-22.936-23.977-33.964-36.387
		c-11.656-13.117-23.094-26.41-34.28-39.928c-12.199-14.742-23.848-29.908-35.299-45.232c-15.527-20.778-30.173-42.17-44.215-63.965
		c-15.415-23.925-29.986-48.363-43.332-73.512c-6.371-12.006-12.839-23.971-18.822-36.171
		c-15.18-30.953-29.102-62.465-41.214-94.757c-1.943-5.179-3.845-10.374-5.818-15.542c-0.309-0.809-0.661-1.602-1.024-2.391
		c-0.364-0.789-0.739-1.573-1.094-2.366c-0.307,0.881-0.72,1.744-0.907,2.653c-1.625,7.88-3.297,15.752-4.774,23.661
		c-0.838,4.486-1.338,9.035-1.991,13.556c0.86,2.032,1.86,4.017,2.558,6.104c8.326,24.905,18.09,49.249,28.795,73.211
		c9.414,21.073,19.822,41.668,30.736,62.006c10.841,20.204,22.477,39.952,34.83,59.254c9.367,14.638,19.199,28.988,29.115,43.263
		c13.801,19.867,28.475,39.096,43.84,57.777c9.936,12.08,20.117,23.962,30.384,35.763c6.738,7.745,13.851,15.164,20.75,22.771
		c15.727,17.34,32.513,33.643,49.36,49.863c11.261,10.843,23.177,21.005,34.773,31.501c1.843,1.668,3.986,3.093,5.24,5.684
		c-0.576,0.563-1.017,1.274-1.651,1.567c-3.587,1.655-7.224,3.201-10.835,4.802c-2.127,0.943-3.966,0.526-5.67-1.005
		c-3.291-2.957-6.65-5.838-9.924-8.814c-4.911-4.464-9.765-8.99-14.658-13.474c-16.789-15.383-32.794-31.565-48.684-47.857
		c-6.727-6.897-13.166-14.076-19.656-21.199c-5.959-6.539-11.861-13.133-17.703-19.777c-12.421-14.126-24.525-28.528-35.964-43.456
		c-11.63-15.177-23.191-30.424-34.242-46.022c-10.228-14.437-19.884-29.286-29.53-44.124c-9.994-15.374-19.297-31.177-28.177-47.221
		c-10.103-18.253-19.848-36.685-28.757-55.566c-9.786-20.737-18.871-41.76-27.202-63.116c-0.315-0.807-0.675-1.598-1.046-2.383
		c-0.372-0.786-0.755-1.567-1.118-2.356c-0.256,1.701-0.625,3.395-0.749,5.106c-1.002,13.766-1.479,27.551-1.471,41.353
		c0.001,0.934,0.159,1.867,0.243,2.801c1.887,4.339,3.795,8.669,5.655,13.019C60.895,627.47,65.691,639.172,70.854,650.709z"/>
	<path fill="#2063A9" d="M404.114,161.969c6.087,26.216,14.309,51.763,24.1,76.816c6.847,17.519,14.437,34.706,22.503,51.705
		c11.259,23.727,23.921,46.684,37.366,69.21c16.125,27.017,33.698,53.084,52.296,78.469c10.464,14.281,21.219,28.335,32.398,42.055
		c9.279,11.389,18.734,22.642,28.365,33.735c8.801,10.136,17.886,20.03,26.956,29.929c5.762,6.289,11.698,12.419,17.606,18.573
		c6.673,6.951,13.231,14.026,20.144,20.732c12.812,12.43,25.825,24.654,38.8,36.915c4.133,3.905,8.413,7.654,12.626,11.474
		c1.383-1.899,2.935-3.7,4.123-5.715c10.331-17.524,20.174-35.316,29.357-53.475c8.682-17.168,17.088-34.461,24.735-52.118
		c0.17-0.393,0.361-0.776,0.565-1.154c0.613-1.133,1.345-2.215,1.99-3.334c-0.011-0.315-0.033-0.629-0.066-0.941c0,0,0,0,0,0
		c0,0,0,0,0,0c-1.681-0.945-3.429-1.792-5.06-2.813c-0.233-0.146-0.464-0.295-0.691-0.449
		c-23.204-15.66-45.756-32.213-67.571-49.755c-10.591-8.517-21.071-17.178-31.445-25.959c-6.993-5.92-13.686-12.191-20.556-18.257
		c-20.516-18.114-39.684-37.616-58.805-57.159c-5.631-5.756-10.922-11.846-16.312-17.835c-5.391-5.989-10.843-11.93-16.033-18.091
		c-10.078-11.965-20.197-23.906-29.929-36.15c-18.501-23.277-35.741-47.478-51.889-72.446
		c-10.302-15.929-20.046-32.193-29.374-48.717c-9.954-17.633-18.979-35.735-27.717-53.979c-4.57-9.542-8.53-19.377-12.766-29.08
		c-5.671,1.522-11.073,3.754-16.39,6.209c0.78,19.708,3.724,39.092,7.737,58.318C402.104,153.119,403.087,157.547,404.114,161.969z"
		/>
	<path fill="#2063A9" d="M175.213,317.003c2.072,7.625,4.203,15.238,6.072,22.914c4.498,18.465,10.298,36.514,17.453,54.103
		c9.052,22.251,18.189,44.472,27.671,66.542c6.049,14.079,12.739,27.885,19.243,41.766c4.224,9.015,8.576,17.972,12.987,26.897
		c1.466,2.966,3.148,5.85,4.978,8.607c17.045,25.683,34.503,51.08,52.752,75.928c14.034,19.109,27.881,38.358,42.151,57.289
		c12.272,16.279,24.967,32.24,37.604,48.24c3.225,4.083,6.788,7.928,10.45,11.632c14.338,14.5,28.693,28.985,43.22,43.295
		c6.298,6.204,12.937,12.074,19.585,17.909c8.669,7.608,17.409,15.142,26.287,22.505c11.07,9.18,22.314,18.15,33.479,27.217
		c2.086,1.694,4.231,3.326,6.196,5.151c0.141,0.131,0.277,0.267,0.409,0.407c0.924,0.982,1.656,2.173,2.493,3.249
		c0.53-0.349,1.059-0.699,1.587-1.048h0l0,0c0.254-0.302,0.493-0.619,0.74-0.928c0.247-0.308,0.503-0.608,0.79-0.875
		c5.435-5.057,10.941-10.038,16.325-15.148c5.499-5.219,10.895-10.548,16.305-15.86c0.666-0.654,1.143-1.5,1.706-2.256
		c0,0-0.001,0-0.001,0c-6.51-5.756-13.033-11.498-19.529-17.271c-9.923-8.819-19.48-18.033-29.185-27.087
		c-13.185-12.3-25.806-25.154-38.429-38.006c-9.631-9.805-19.034-19.848-28.21-30.08c-12.236-13.644-24.254-27.487-36.186-41.4
		c-20.177-23.526-39.197-47.976-57.497-72.981c-18.863-25.773-36.761-52.201-53.585-79.357
		c-10.908-17.606-21.368-35.472-31.315-53.632c-10.707-19.548-20.674-39.477-30.172-59.645
		c-8.557-18.17-16.398-36.639-23.727-55.329c-12.539-31.971-22.937-64.626-31.208-97.958c-0.987-3.977-2.154-7.908-3.236-11.863
		c-0.795,0.741-1.652,1.429-2.379,2.234c-9.779,10.821-19.08,22.041-27.927,33.636c-0.565,0.74-1.021,1.564-1.528,2.349
		c1.408,4.854,2.863,9.694,4.213,14.564C168.966,294.135,172.105,305.565,175.213,317.003z"/>
	<path fill="#377DBC" d="M147.075,350.633c2.75,8.235,5.123,16.597,7.572,24.93c7.13,24.26,14.774,48.351,24.468,71.726
		c4.415,10.646,9.338,21.081,14.035,31.61c3.089,6.923,6.242,13.819,9.269,20.769c9.276,21.296,19.129,42.318,29.806,62.949
		c9.01,17.412,19.047,34.235,29.625,50.728c12.883,20.087,26.52,39.657,41.054,58.595c9.716,12.659,19.653,25.139,30.255,37.073
		c8.39,9.444,16.822,18.853,25.341,28.18c5.431,5.946,11.121,11.654,16.583,17.572c17.044,18.467,35.454,35.59,52.799,53.757
		c7.748,8.115,15.849,15.867,23.954,23.606c7.877,7.521,16.106,14.679,24.281,21.882c7.702,6.787,15.532,13.429,23.313,20.126
		c0.479,0.413,0.958,0.827,1.446,1.227c1.463,1.201,3.007,2.279,4.888,2.83c9.789-8.212,19.582-16.419,29.361-24.644
		c1.085-0.912,2.082-1.928,3.121-2.896c-0.836-1.076-1.567-2.267-2.492-3.249c-0.132-0.14-0.268-0.276-0.409-0.407
		c-1.965-1.826-4.11-3.458-6.196-5.151c-11.165-9.066-22.409-18.037-33.479-27.217c-8.878-7.362-17.618-14.897-26.287-22.505
		c-6.649-5.835-13.287-11.705-19.585-17.909c-14.527-14.31-28.882-28.796-43.22-43.295c-3.662-3.703-7.225-7.549-10.45-11.632
		c-12.637-16-25.333-31.961-37.604-48.24c-14.27-18.93-28.118-38.18-42.151-57.289c-18.248-24.848-35.707-50.245-52.752-75.928
		c-1.83-2.758-3.513-5.641-4.978-8.607c-4.411-8.925-8.763-17.882-12.987-26.897c-6.504-13.881-13.194-27.687-19.243-41.766
		c-9.483-22.07-18.619-44.291-27.671-66.542c-7.156-17.589-12.955-35.638-17.453-54.103c-1.87-7.675-4.001-15.288-6.072-22.914
		c-3.107-11.438-6.247-22.868-9.414-34.289c-1.35-4.87-2.806-9.71-4.213-14.564c-0.623,0.705-1.3,1.37-1.861,2.121
		c-9.025,12.11-17.589,24.536-25.604,37.337c-0.577,0.922-0.993,1.945-1.485,2.921c0.842,2.04,1.773,4.048,2.511,6.125
		C139.165,327.966,143.274,339.249,147.075,350.633z"/>
	<path fill="#2063A9" d="M357.323,201.861c6.391,16.499,13.097,32.876,19.528,49.359c7.016,17.982,15.385,35.329,24.124,52.519
		c16.118,31.705,33.418,62.75,52.055,93.037c9.272,15.068,18.779,30,28.565,44.739c12.671,19.085,25.904,37.785,39.6,56.16
		c17.19,23.064,35.095,45.554,53.695,67.488c7.864,9.274,16.051,18.275,24.11,27.384c8.689,9.821,17.81,19.24,26.751,28.828
		c10.029,10.755,20.481,21.076,30.961,31.367c8.562,8.408,17.487,16.448,26.3,24.597c0.142,0.131,0.289,0.258,0.44,0.38
		c1.055,0.857,2.297,1.511,3.432,2.279c6.741-10.259,13.498-20.509,20.198-30.796c0.671-1.031,0.997-2.286,1.483-3.437c0,0,0,0,0,0
		c0,0,0,0,0,0.001c-4.481-3.901-9.049-7.709-13.459-11.688c-0.63-0.568-1.257-1.14-1.879-1.716
		c-8.117-7.508-16.103-15.159-24.081-22.816c-8.091-7.766-16.263-15.458-24.112-23.464c-9.84-10.036-19.45-20.3-29.041-30.576
		c-7.867-8.429-15.732-16.871-23.29-25.575c-9.941-11.45-19.763-23.014-29.298-34.802c-10.53-13.018-20.89-26.185-30.948-39.569
		c-26.134-34.777-49.94-71.1-71.391-108.949c-9.507-16.774-18.382-33.887-26.67-51.293c-12.984-27.272-24.502-55.146-33.827-83.896
		c-9.132-28.153-16.352-56.773-20.627-86.081c-1.344-9.215-2.191-18.502-3.265-27.756c-0.886,0.3-1.814,0.513-2.652,0.913
		c-8.366,3.994-16.801,7.856-25.049,12.082c-7.405,3.794-14.601,7.999-21.889,12.022c0.435,1.186,0.862,2.376,1.294,3.563
		c0.432,1.188,0.868,2.374,1.319,3.554C338.892,153.772,348.022,177.85,357.323,201.861z"/>
	<path fill="#164696" d="M227.863,339.752c7.33,18.69,15.17,37.159,23.727,55.329c9.498,20.168,19.465,40.097,30.172,59.645
		c9.946,18.16,20.406,36.025,31.315,53.632c16.824,27.156,34.722,53.584,53.585,79.357c18.3,25.005,37.32,49.455,57.497,72.981
		c11.932,13.912,23.95,27.756,36.186,41.4c9.176,10.232,18.579,20.275,28.21,30.08c12.623,12.851,25.245,25.705,38.429,38.006
		c9.705,9.054,19.262,18.268,29.185,27.087c6.496,5.773,13.018,11.515,19.529,17.271c0,0,0.001,0,0.001,0l0,0
		c0.079-0.005,0.158-0.01,0.236-0.014c0.281-0.017,0.563-0.034,0.845-0.051c0.454-0.543,0.887-1.107,1.349-1.642
		c0.154-0.179,0.311-0.354,0.474-0.525c6.943-7.292,13.952-14.523,20.824-21.882c2.461-2.635,4.597-5.571,6.882-8.371
		c-1.567-1.557-3.073-3.18-4.711-4.656c-8.683-7.829-17.404-15.616-26.102-23.429c-10.698-9.61-21.037-19.604-31.526-29.439
		c-15.804-14.819-30.878-30.358-46.168-45.685c-6.024-6.039-11.857-12.275-17.645-18.542c-8.361-9.052-16.627-18.191-24.887-27.336
		c-6.037-6.683-12.076-13.367-17.973-20.172c-7.656-8.837-15.235-17.744-22.737-26.713c-17.04-20.37-33.414-41.271-49.314-62.539
		c-16.472-22.032-32.16-44.618-47.131-67.694c-13.422-20.687-26.205-41.77-38.063-63.395c-9.5-17.323-18.414-34.945-26.774-52.857
		c-7.628-16.343-14.529-32.982-20.677-49.916c-8.424-23.202-15.336-46.853-19.709-71.191c-0.223-1.244-0.461-2.486-0.702-3.727
		c-0.241-1.241-0.486-2.481-0.724-3.723l0,0l0,0c-4.082,4.064-8.214,8.08-12.224,12.214c-2.053,2.116-3.888,4.444-5.822,6.678
		c1.082,3.955,2.249,7.886,3.236,11.863C204.926,275.127,215.324,307.782,227.863,339.752z"/>
	<path fill="#2063A9" d="M452.514,136.136c12.42,23.654,25.848,46.721,40.266,69.224c11.688,18.241,24.166,35.921,37.069,53.308
		c12.905,17.39,26.498,34.239,40.544,50.716c5.942,6.971,12.201,13.672,18.252,20.551c16.923,19.239,35.158,37.207,53.462,55.101
		c6.661,6.512,13.663,12.676,20.533,18.972c3.261,2.988,6.554,5.941,9.874,8.864c5.336,4.698,10.663,9.407,16.068,14.024
		c13.941,11.907,28.165,23.468,42.721,34.615c15.688,12.013,31.717,23.558,48.065,34.659c0.229,0.156,0.459,0.31,0.688,0.466
		c1.602,1.09,3.149,2.237,3.928,4.15c0.35-0.041,0.7-0.081,1.047-0.123c-0.385-1.88,0.259-3.556,0.924-5.222
		c0.095-0.238,0.191-0.476,0.284-0.714c2.813-7.205,5.681-14.388,8.448-21.61c1.92-5.01,3.697-10.075,5.565-15.106
		c0.493-1.328,1.087-2.62,1.634-3.928c-0.133-0.596-0.265-1.192-0.398-1.788c0,0,0,0,0,0c-1.367-0.784-2.797-1.475-4.086-2.371
		c-2.984-2.075-5.915-4.229-8.841-6.386c-18.323-13.51-36.367-27.382-53.893-41.911c-10.341-8.573-20.631-17.214-30.745-26.051
		c-8.684-7.588-17.151-15.43-25.598-23.284c-9.719-9.037-19.436-18.083-28.918-27.366c-7.788-7.625-15.179-15.653-22.84-23.41
		c-8.998-9.111-17.575-18.606-26.194-28.07c-12.456-13.676-24.415-27.771-36.118-42.084c-19.02-23.262-36.965-47.332-53.808-72.216
		c-16.046-23.706-30.973-48.098-44.595-73.279c-3.005-5.555-5.774-11.237-8.652-16.86c-0.774,0.087-1.582,0.057-2.315,0.278
		c-8.548,2.572-17.089,5.166-25.618,7.798c-1.18,0.364-2.288,0.96-3.43,1.449c1.526,3.811,2.948,7.668,4.595,11.426
		C437.284,105.592,444.578,121.022,452.514,136.136z"/>
	<path fill="#2063A9" d="M96.878,433.447c3.147,11.419,6.52,22.795,10.324,34.011c6.803,20.058,14.649,39.721,23.22,59.102
		c10.554,23.867,22.231,47.174,34.95,69.94c8.398,15.031,17.235,29.83,26.262,44.494c15.747,25.58,32.686,50.371,50.519,74.547
		c14.638,19.843,29.815,39.267,45.559,58.247c11.501,13.865,23.195,27.562,35.362,40.851c3.841,4.195,7.651,8.417,11.521,12.585
		c7.201,7.757,14.267,15.648,21.691,23.186c14.302,14.523,28.474,29.183,43.555,42.923c9.926,9.044,19.669,18.29,29.597,27.332
		c0.757,0.69,1.5,1.411,2.263,2.11c1.678,1.539,3.452,2.974,5.693,3.746l0,0c0,0,0,0,0-0.001c7.18-4.74,14.375-9.458,21.542-14.219
		c2.389-1.587,4.775-3.178,7.156-4.777c2.066-1.387,3.859-3.182,5.78-4.789c-5.206-4.838-10.41-9.679-15.623-14.512
		c-2.548-2.362-5.124-4.695-7.668-7.063c-21.987-20.462-43.086-41.827-64.1-63.272c-6.962-7.106-13.594-14.536-20.36-21.834
		c-4.403-4.75-8.854-9.459-13.147-14.308c-10.576-11.947-21.203-23.852-31.564-35.984c-10.261-12.014-20.3-24.22-30.284-36.467
		c-6.589-8.082-12.963-16.342-19.335-24.597c-16.804-21.771-32.885-44.062-48.4-66.774c-16.768-24.547-32.559-49.703-47.465-75.407
		c-10.622-18.317-20.711-36.939-30.021-55.965c-10.98-22.437-21.176-45.229-29.835-68.665c-4.433-11.998-8.224-24.233-12.316-36.357
		c-0.909-2.693-1.863-5.37-2.795-8.056c-3.416,7.892-6.838,15.783-10.234,23.685c-0.241,0.562-0.295,1.203-0.437,1.81
		c0.398,1.363,0.85,2.712,1.185,4.089C91.931,413.192,94.109,423.401,96.878,433.447z"/>
	<path fill="#164696" d="M326.121,201.783c8.243,26.595,18.175,52.555,29.058,78.16c10.019,23.572,21.214,46.596,33.141,69.251
		c13.991,26.574,29.105,52.511,45.197,77.876c21.008,33.115,43.508,65.187,67.442,96.249c14.468,18.777,29.349,37.227,44.948,55.081
		c9.873,11.3,19.898,22.467,29.876,33.676c22.188,24.925,46.16,48.11,69.944,71.473c6.645,6.527,13.695,12.642,20.581,18.922
		c0.202,0.185,0.414,0.36,0.63,0.53c0.65,0.508,1.349,0.963,2.012,1.456c0.843-0.879,1.786-1.685,2.55-2.62
		c0.109-0.134,0.215-0.27,0.316-0.409c3.74-5.158,7.395-10.377,11.092-15.567c0.992-1.393,2.023-2.758,3.036-4.137
		c0.313-0.575,0.626-1.151,0.939-1.725c-1.136-0.768-2.378-1.422-3.432-2.279c-0.151-0.122-0.298-0.249-0.44-0.38
		c-8.814-8.149-17.738-16.19-26.3-24.597c-10.48-10.291-20.932-20.612-30.961-31.367c-8.94-9.587-18.062-19.006-26.751-28.828
		c-8.059-9.109-16.245-18.11-24.11-27.384c-18.6-21.934-36.505-44.425-53.695-67.488c-13.695-18.375-26.929-37.075-39.6-56.16
		c-9.786-14.739-19.294-29.671-28.565-44.739c-18.637-30.287-35.938-61.332-52.055-93.037c-8.739-17.19-17.108-34.537-24.124-52.519
		c-6.431-16.484-13.137-32.86-19.528-49.359c-9.301-24.011-18.431-48.089-27.625-72.142c-0.451-1.18-0.887-2.366-1.319-3.554
		c-0.432-1.188-0.859-2.377-1.294-3.563c-6.319,3.808-12.638,7.617-18.957,11.425c0.617,2.117,1.373,4.205,1.829,6.356
		C314.357,161.111,319.848,181.544,326.121,201.783z"/>
	<path fill="#213C90" d="M842.66,130.138c0.394,2.854,0.765,5.711,1.096,8.572c1.218,10.499,1.752,21.077,2.634,31.616
		c1.135,13.557,0.892,27.141,0.84,40.721c-0.001,0.295-0.006,0.59-0.015,0.885c-0.061,2.066-0.289,4.131-0.422,6.197
		c0.191,0.596,0.383,1.192,0.574,1.788c0.094,0.292,0.187,0.583,0.281,0.875c0.783,0.523,1.606,0.996,2.373,1.538
		c0.255,0.181,0.505,0.369,0.744,0.569c2.299,1.923,4.558,3.897,6.771,5.919c4.777,4.364,9.493,8.796,14.279,13.151
		c2.918,2.655,5.883,5.262,8.89,7.816c11.676,9.916,23.599,19.52,35.738,28.873c13.148,10.131,26.713,19.645,40.472,28.908
		c15.211,10.24,30.871,19.731,46.966,28.507c2.495,1.361,5.008,2.689,7.525,4.01c2.517,1.32,5.039,2.632,7.553,3.957c0,0,0,0,0,0
		c0,0,0,0,0,0c0.189-4.184,0.094-8.357-0.136-12.524c-0.065-1.188-0.141-2.375-0.226-3.562c-0.073-1.027-0.151-2.053-0.233-3.078
		c-0.17-2.124-0.355-4.247-0.535-6.369c-1.189-14.007-3.149-27.917-5.972-41.698c-3.813-18.607-9.193-36.743-16.227-54.39
		c-0.576-1.445-0.907-2.986-1.352-4.483c0.001,0,0.003,0.001,0.004,0.001c-0.339-0.729-0.679-1.457-1.02-2.19
		c-1.437-1.676-2.77-3.453-4.329-5.001c-4.484-4.453-8.985-8.893-13.611-13.197c-34.648-32.247-72.798-59.627-114.501-82.027
		c-7.227-3.881-14.666-7.366-22.007-11.034c0.418,2.851,0.853,5.7,1.291,8.549c0.438,2.849,0.879,5.698,1.308,8.547
		C841.846,124.433,842.264,127.284,842.66,130.138z"/>
	<path fill="#1B1A49" d="M805.094,1062.799c-22.419-10.907-44.513-22.483-66.983-33.281c-25.229-12.123-49.313-26.204-73.002-41.027
		c-6.287-3.934-12.609-7.814-18.879-11.776c-2.397-1.515-4.691-3.192-7.032-4.794c-0.5,0.067-1.001,0.133-1.501,0.2
		c-0.069,0.052-0.136,0.106-0.204,0.158c-0.527,0.402-1.049,0.812-1.571,1.221c-0.52,0.408-1.043,0.814-1.577,1.201
		c-0.38,0.275-0.766,0.541-1.16,0.794c-11.798,7.531-23.502,15.222-35.478,22.461c-12.244,7.401-24.766,14.343-37.161,21.496
		c-0.948,0.547-1.851,1.17-2.775,1.758c6.688,4.48,13.376,8.961,20.067,13.437c0.525,0.351,1.071,0.671,1.604,1.009
		c10.398,6.6,20.724,13.317,31.219,19.76c7.264,4.46,14.715,8.625,22.166,12.77c10.209,5.681,20.384,11.441,30.782,16.759
		c12.371,6.328,24.883,12.395,37.479,18.263c15.178,7.07,30.655,13.461,46.34,19.339c0.773,0.29,1.556,0.562,2.335,0.842
		c0.585,0.21,1.168,0.424,1.745,0.653c1.729,0.686,3.399,1.504,4.871,2.735c3.049-0.774,6.139-1.412,9.137-2.347
		c17.752-5.543,35.193-11.958,52.229-19.408c10.095-4.414,20.049-9.163,29.971-13.958c4.095-1.979,7.939-4.475,11.898-6.735
		c-5.905-1.361-11.633-3.282-17.265-5.449c-1.877-0.722-3.743-1.472-5.602-2.236
		C826.099,1072.258,815.443,1067.833,805.094,1062.799z"/>
	<path fill="#081542" d="M1149.885,578.031c-0.008-2.206-0.021-4.419-0.198-6.615c-0.848-10.52-1.597-21.052-2.681-31.548
		c-1.198-11.599-2.696-23.167-5.046-34.605c-13.361-4.317-26.841-8.303-40.051-13.041c-14.546-5.218-29.019-10.702-43.061-17.207
		c-14.742-6.83-29.427-13.784-44.149-20.657c-0.464-0.216-0.932-0.423-1.403-0.622c-1.413-0.599-2.855-1.14-4.275-1.724
		l-0.294-0.008c-0.084-0.002-0.154-0.004-0.154-0.004c-1.283,6.172-2.424,12.377-3.874,18.51
		c-6.798,28.762-15.742,56.858-26.454,84.397c-0.086,0.22-0.178,0.437-0.273,0.653c-0.099,0.222-0.201,0.442-0.306,0.662
		c-0.2,0.421-0.406,0.839-0.601,1.262c0.07,0.315,0.141,0.63,0.212,0.944c1.93,0.66,3.942,1.145,5.776,2.008
		c14.849,6.986,29.874,13.564,45.021,19.88c23.171,9.662,46.7,18.341,70.61,25.969c10.817,3.451,21.775,6.461,32.682,9.628
		c3.787,1.1,7.591,2.156,11.428,3.065c2.291,0.543,4.657,0.763,6.99,1.128c0.066-1.416,0.192-2.833,0.19-4.249
		C1149.96,603.248,1149.931,590.639,1149.885,578.031z"/>
	<path fill="#2063A9" d="M135.89,427.728c10.766,26.703,23.13,52.657,36.869,77.947c7.617,14.02,15.439,27.936,23.479,41.718
		c6.048,10.369,12.514,20.499,18.928,30.651c12.749,20.178,26.225,39.87,40.188,59.225c15.164,21.021,30.768,41.714,47.132,61.822
		c9.774,12.01,19.568,24.007,29.55,35.844c7.433,8.815,15.131,17.409,22.804,26.019c7.987,8.963,16.084,17.828,24.134,26.734
		c0.424,0.469,0.86,0.927,1.293,1.388c19.904,21.204,40.354,41.875,61.205,62.143c11.44,11.12,23.215,21.897,34.825,32.843
		c2.866,2.702,5.678,5.459,8.515,8.191c1.249,0.072,2.327-0.265,3.323-0.8c0.222-0.119,0.439-0.247,0.653-0.383
		c0.214-0.136,0.426-0.279,0.635-0.428c0.314-0.223,0.624-0.457,0.932-0.695c3.748-2.89,7.47-5.814,11.279-8.621
		c0.311-0.229,0.636-0.437,0.97-0.633c1.003-0.588,2.092-1.061,3.119-1.617c0.02-0.293,0.033-0.587,0.04-0.881
		c-1.88-0.55-3.425-1.629-4.888-2.83c-0.488-0.4-0.967-0.814-1.446-1.227c-7.781-6.698-15.611-13.34-23.313-20.126
		c-8.175-7.203-16.404-14.361-24.281-21.882c-8.105-7.739-16.207-15.491-23.954-23.606c-17.345-18.167-35.755-35.291-52.799-53.757
		c-5.462-5.918-11.152-11.626-16.583-17.572c-8.52-9.327-16.952-18.735-25.341-28.18c-10.601-11.934-20.539-24.414-30.255-37.073
		c-14.534-18.937-28.171-38.508-41.054-58.595c-10.578-16.493-20.614-33.316-29.625-50.728
		c-10.677-20.631-20.53-41.653-29.806-62.949c-3.027-6.95-6.18-13.845-9.269-20.769c-4.697-10.529-9.62-20.964-14.035-31.61
		c-9.694-23.376-17.338-47.467-24.468-71.726c-2.449-8.333-4.822-16.695-7.572-24.93c-3.801-11.384-7.91-22.667-11.927-33.978
		c-0.738-2.077-1.669-4.085-2.511-6.125c-0.655,0.878-1.408,1.699-1.95,2.642c-5.425,9.446-10.857,18.888-16.189,28.386
		c-1.616,2.878-2.926,5.928-4.375,8.899c0.592,1.629,1.336,3.22,1.755,4.893C118.061,380.081,126.366,404.105,135.89,427.728z"/>
	<path fill="#081542" d="M999.961,938.573c-29.091-11.499-57.407-24.701-85.105-39.207c-29.094-15.237-57.48-31.709-85.015-49.623
		c-7.804-5.077-15.57-10.214-23.363-15.308c-1.584-1.035-3.21-2.006-4.817-3.006c-0.75,0.697-1.533,1.363-2.274,2.069
		c-0.023,0.022-0.048,0.043-0.07,0.065c-0.254,0.244-0.502,0.492-0.742,0.749c-12.866,13.784-26.158,27.145-39.811,40.148
		c-0.681,0.649-1.298,1.363-1.949,2.051c1.279,2.315,3.502,3.589,5.583,4.967c0.139,0.092,0.277,0.184,0.414,0.277
		c7.835,5.321,15.644,10.689,23.641,15.759c14.797,9.379,29.625,18.717,44.615,27.782c17.29,10.456,35.018,20.144,52.894,29.575
		c20.54,10.837,41.511,20.743,62.871,29.825c10.746,4.57,21.678,8.704,32.527,13.036c1.585-1.276,3.276-2.44,4.734-3.847
		c11.326-10.936,22.093-22.406,32.344-34.35c3.061-3.566,6.479-6.888,8.659-11.151c-0.001,0-0.002-0.001-0.003-0.001
		c0,0-0.001,0-0.001,0.001C1016.717,945.116,1008.325,941.878,999.961,938.573z"/>
	<path fill="#2063A9" d="M112.543,789.787c14.12,22.495,29.675,43.964,46.206,64.742c11.702,14.708,23.915,28.968,36.479,42.948
		c14.998,16.688,30.681,32.704,46.814,48.274c9.31,8.985,19.022,17.556,28.624,26.236c5.269,4.763,10.711,9.335,16.017,14.059
		c1.643,1.463,3.094,3.141,4.633,4.72c0,0,0.001,0,0.001-0.001c2.092,0.34,4.119,0.079,6.116-0.482
		c0.285-0.08,0.57-0.166,0.855-0.258c8.535-2.743,17.072-5.479,25.609-8.215c2.395-0.768,4.793-1.527,7.189-2.291c0,0,0,0,0,0
		c-0.251-1.388-1.004-2.416-1.921-3.328c-0.417-0.414-0.868-0.805-1.321-1.194c-9.352-8.031-18.775-15.982-28.03-24.125
		c-8.542-7.514-17.141-14.989-25.292-22.916c-16.771-16.307-33.63-32.54-49.334-49.906c-7.208-7.97-14.575-15.8-21.635-23.899
		c-14.651-16.806-28.58-34.206-42.017-51.994c-15.731-20.826-30.427-42.369-44.167-64.553
		c-12.157-19.628-23.556-39.692-33.793-60.396c-4.343-8.783-8.719-17.56-12.72-26.5c-5.164-11.537-9.959-23.24-14.93-34.863
		c-1.861-4.35-3.769-8.68-5.655-13.019c-0.072,1.095-0.211,2.191-0.206,3.286c0.059,15.415,0.957,30.79,2.39,46.133
		c0.349,3.741,1.041,7.449,1.575,11.173c1.014,2.987,2.135,5.942,3.024,8.965c4.465,15.173,10.144,29.89,16.413,44.398
		C84.453,742.209,97.833,766.353,112.543,789.787z"/>
	<path fill="#213C90" d="M408.964,1081.089c13.426-3.542,26.661-7.698,39.77-12.265c0.813-0.283,1.611-0.61,2.404-0.948
		c0.793-0.339,1.583-0.689,2.379-1.019c-0.804-0.712-1.565-1.486-2.367-2.2c-0.482-0.428-0.978-0.834-1.508-1.191
		c-13.862-9.344-27.75-18.65-41.657-27.926c-14.048-9.37-27.577-19.461-41.009-29.671c-10.667-8.107-21.018-16.63-31.495-24.986
		c-0.858-0.684-1.605-1.506-2.403-2.264c-0.621,0.281-1.242,0.562-1.863,0.843c-0.042,0.019-0.085,0.038-0.127,0.057
		c-2.396,0.764-4.794,1.523-7.189,2.291c-8.537,2.737-17.074,5.473-25.609,8.215c-0.284,0.091-0.569,0.177-0.855,0.258
		c-1.998,0.56-4.024,0.822-6.116,0.482c0,0-0.001,0-0.001,0.001c0,0,0,0,0,0c-1.563,1.429-3.473,2.111-5.445,2.629
		c-0.282,0.074-0.565,0.145-0.848,0.214c-4.22,1.03-8.452,2.006-12.679,3.005c-12.084,3.048-24.37,4.979-36.708,6.623
		c-2.653,0.354-5.309,0.694-7.962,1.041c1.203,1.237,2.339,2.546,3.617,3.699c34.254,30.884,71.776,57.097,112.59,78.587
		c4.452,2.344,9.03,4.447,13.55,6.661c4.93-1.036,9.853-2.109,14.792-3.1C384.602,1087.644,396.767,1084.307,408.964,1081.089z"/>
	<path fill="#2063A9" d="M620.043,110.504c6.938,10.56,14.111,20.977,21.471,31.248c12.244,17.089,25.271,33.582,39.047,49.467
		c7.864,9.068,15.829,18.054,23.922,26.919c7.879,8.631,15.849,17.188,24.022,25.54c7.068,7.223,14.447,14.144,21.742,21.142
		c6.041,5.795,12.074,11.605,18.266,17.237c9.115,8.289,18.235,16.581,27.597,24.585c10.686,9.136,21.639,17.961,32.48,26.916
		c0.198,0.164,0.397,0.328,0.597,0.49c1.4,1.132,2.86,2.162,4.745,2.401c1.178-6.83,2.37-13.657,3.527-20.491
		c0.684-4.038,1.403-8.075,1.923-12.135c0.258-2.011,0.102-4.076,0.133-6.115c0,0,0,0,0,0c0,0,0,0.001,0,0.001
		c-2.055-1.598-4.168-3.13-6.201-4.753c-0.678-0.541-1.347-1.092-2.002-1.659c-11.111-9.616-22.198-19.26-33.216-28.982
		c-20.399-17.999-39.53-37.312-58.496-56.786c-6.06-6.222-11.834-12.724-17.654-19.174c-5.821-6.451-11.635-12.914-17.274-19.524
		c-6.255-7.333-12.43-14.741-18.422-22.289c-13.565-17.088-26.682-34.524-38.53-52.851c-7.546-11.673-14.558-23.693-21.758-35.588
		c-1.059-1.749-1.831-3.672-2.737-5.515c-1.708-0.16-3.413-0.425-5.122-0.459c-4.844-0.096-9.691-0.144-14.536-0.124
		c-5.78,0.023-11.559,0.136-17.337,0.21c0.62,1.451,1.18,2.932,1.868,4.35C597.492,73.927,608.234,92.53,620.043,110.504z"/>
	<path fill="#2063A9" d="M212.19,214.763c0.241,1.241,0.478,2.483,0.702,3.727c4.373,24.338,11.286,47.989,19.709,71.191
		c6.148,16.935,13.049,33.573,20.677,49.916c8.36,17.911,17.274,35.533,26.774,52.857c11.858,21.625,24.642,42.708,38.063,63.395
		c14.971,23.075,30.659,45.661,47.131,67.694c15.9,21.268,32.274,42.168,49.314,62.539c7.502,8.969,15.08,17.875,22.737,26.713
		c5.897,6.806,11.936,13.489,17.973,20.172c8.26,9.145,16.526,18.284,24.887,27.336c5.789,6.267,11.621,12.503,17.645,18.542
		c15.29,15.327,30.365,30.866,46.168,45.685c10.488,9.835,20.827,19.828,31.526,29.439c8.697,7.813,17.419,15.6,26.102,23.429
		c1.638,1.477,3.144,3.1,4.711,4.655c0.593,0,1.186-0.001,1.778-0.001c2-3.201,4.211-6.217,6.927-8.791
		c0.226-0.215,0.456-0.426,0.69-0.634c0.467-0.416,0.949-0.82,1.447-1.21c0.249-0.195,0.502-0.386,0.759-0.574
		c-0.041-0.638-0.084-1.276-0.126-1.914c-1.128-0.859-2.315-1.651-3.375-2.586c-6.046-5.328-12.096-10.652-18.08-16.049
		c-9.152-8.253-18.294-16.518-27.359-24.866c-5.927-5.458-11.823-10.96-17.538-16.638c-16.368-16.262-33.04-32.224-48.683-49.207
		c-9.42-10.226-19.037-20.271-28.468-30.486c-6.967-7.546-13.885-15.141-20.629-22.884c-8.199-9.413-16.225-18.977-24.267-28.524
		c-19.251-22.853-37.652-46.374-55.366-70.436c-17.435-23.682-34.014-47.943-49.75-72.789
		c-14.132-22.313-27.262-45.202-39.553-68.565c-10.38-19.73-19.766-39.937-28.198-60.585c-6.639-16.255-12.517-32.781-17.569-49.585
		c-5.148-17.121-9.108-34.526-11.522-52.265c-0.074-0.545-0.17-1.087-0.279-1.627c-0.328-1.621-0.778-3.225-1.139-4.84
		c-4.847,4.682-9.694,9.363-14.54,14.044l0,0C211.704,212.281,211.949,213.522,212.19,214.763z"/>
	<path fill="#2063A9" d="M299.49,168.671c3.411,14.303,7.631,28.377,12.098,42.379c7.401,23.199,15.948,45.97,25.322,68.445
		c8.035,19.263,16.822,38.179,26.101,56.856c6.816,13.72,14.175,27.177,21.504,40.635c15.429,28.33,32.386,55.743,50.233,82.607
		c13.995,21.066,28.55,41.744,43.927,61.826c10.47,13.674,21.095,27.235,31.896,40.65c8.718,10.828,17.733,21.421,26.75,32.004
		c5.634,6.613,11.501,13.028,17.293,19.505c3.475,3.886,6.981,7.746,10.519,11.574c6.971,7.539,13.816,15.202,20.994,22.54
		c19.118,19.544,38.337,38.991,58.424,57.554c3.713,3.431,7.455,6.831,11.192,10.235c0.466,0.424,0.957,0.832,1.484,1.175
		c1.416,0.923,2.671,0.871,3.815-0.445c1.552-1.785,2.881-3.76,4.383-5.59c1.193-1.453,2.503-2.811,3.76-4.211c0,0-0.001,0-0.001,0
		c-0.078-0.65-0.156-1.301-0.235-1.952c-0.663-0.494-1.362-0.948-2.012-1.457c-0.217-0.169-0.428-0.345-0.63-0.53
		c-6.886-6.28-13.937-12.395-20.581-18.922c-23.784-23.363-47.756-46.548-69.944-71.473c-9.978-11.209-20.003-22.376-29.876-33.676
		c-15.599-17.854-30.48-36.304-44.948-55.081c-23.934-31.062-46.433-63.134-67.442-96.249
		c-16.091-25.365-31.206-51.302-45.197-77.876c-11.927-22.655-23.122-45.679-33.141-69.251
		c-10.884-25.605-20.815-51.566-29.058-78.16c-6.273-20.239-11.764-40.672-16.163-61.4c-0.457-2.151-1.213-4.239-1.829-6.356
		c-4.743,3.067-9.486,6.133-14.227,9.199c0.301,1.87,0.496,3.765,0.918,5.609C296.334,155.456,297.915,162.063,299.49,168.671z"/>
	<path fill="#1B1A49" d="M932.258,1031.089c-12.704-4.787-25.477-9.405-38.074-14.46c-10.251-4.113-20.357-8.606-30.402-13.204
		c-12.054-5.517-24.086-11.104-35.926-17.061c-15.507-7.803-30.911-15.819-45.881-24.636c-10.064-5.928-20.304-11.566-30.264-17.66
		c-11.982-7.331-23.756-15.002-35.609-22.544c-1.048-0.667-2.115-1.326-2.985-2.18c-0.193-0.19-0.377-0.389-0.548-0.601
		c-0.429-0.529-0.782-1.131-1.023-1.843c-0.632,0.325-1.263,0.65-1.895,0.975c-2.58,2.159-5.142,4.339-7.715,6.506
		c-2.573,2.167-5.158,4.32-7.781,6.424c-5.988,4.805-12.125,9.423-18.173,14.154c-1.224,0.958-2.34,2.053-3.506,3.085
		c20.5,13.051,40.774,26.467,61.826,38.627c10.792,6.234,21.69,12.303,32.721,18.102c14.386,7.562,28.873,14.941,43.465,22.098
		c12.465,6.114,25.121,11.839,37.724,17.668c12.317,5.698,24.672,11.313,37.013,16.96c2.583,1.182,5.174,2.345,7.763,3.517
		c10.828-6.504,21.158-13.745,31.38-21.146c4.341-3.143,8.628-6.359,12.939-9.542
		C936.201,1032.347,934.181,1031.814,932.258,1031.089z"/>
	<path fill="#164696" d="M114.07,417.888c8.659,23.436,18.855,46.228,29.835,68.665c9.31,19.026,19.399,37.648,30.021,55.965
		c14.906,25.705,30.696,50.86,47.465,75.407c15.515,22.712,31.596,45.003,48.4,66.774c6.372,8.256,12.747,16.515,19.335,24.597
		c9.983,12.247,20.023,24.452,30.284,36.467c10.361,12.132,20.988,24.037,31.564,35.984c4.292,4.849,8.743,9.558,13.147,14.308
		c6.766,7.298,13.397,14.728,20.36,21.834c21.014,21.446,42.113,42.81,64.1,63.272c2.544,2.367,5.12,4.701,7.668,7.063
		c5.213,4.832,10.417,9.673,15.625,14.511c3.392-2.259,6.79-4.505,10.167-6.784c1.34-0.904,2.275-2.147,2.772-3.7
		c-2.837-2.732-5.65-5.49-8.515-8.191c-11.61-10.946-23.385-21.723-34.825-32.843c-20.851-20.268-41.301-40.938-61.205-62.143
		c-0.433-0.461-0.869-0.919-1.293-1.388c-8.05-8.906-16.148-17.771-24.134-26.734c-7.672-8.61-15.371-17.204-22.804-26.019
		c-9.982-11.837-19.776-23.834-29.55-35.844c-16.363-20.108-31.967-40.8-47.132-61.822c-13.963-19.355-27.439-39.047-40.188-59.225
		c-6.414-10.152-12.88-20.281-18.928-30.651c-8.04-13.782-15.862-27.698-23.479-41.718c-13.739-25.29-26.104-51.244-36.869-77.947
		c-9.524-23.623-17.829-47.647-24.013-72.378c-0.418-1.673-1.162-3.264-1.755-4.893c-4.29,7.397-7.868,15.138-11.163,23.019
		c0.933,2.686,1.886,5.363,2.795,8.056C105.846,393.656,109.637,405.89,114.07,417.888z"/>
	<path fill="#164696" d="M400.568,211.422c9.325,28.75,20.843,56.624,33.827,83.896c8.288,17.406,17.163,34.52,26.67,51.293
		c21.452,37.849,45.257,74.172,71.391,108.949c10.058,13.385,20.419,26.551,30.948,39.569c9.535,11.788,19.357,23.352,29.298,34.802
		c7.557,8.704,15.423,17.146,23.29,25.575c9.591,10.276,19.201,20.54,29.041,30.576c7.849,8.006,16.021,15.698,24.112,23.464
		c7.978,7.657,15.964,15.308,24.081,22.816c0.623,0.576,1.25,1.148,1.879,1.716c4.41,3.979,8.978,7.786,13.459,11.688
		c0,0,0,0,0-0.001c2.544-3.321,4.938-6.735,6.901-10.412c0.654-1.226,1.261-2.481,1.809-3.772
		c-4.213-3.82-8.493-7.569-12.626-11.474c-12.976-12.261-25.988-24.485-38.8-36.915c-6.913-6.707-13.471-13.781-20.144-20.732
		c-5.908-6.154-11.844-12.284-17.606-18.573c-9.07-9.899-18.155-19.792-26.956-29.929c-9.631-11.093-19.086-22.346-28.365-33.735
		c-11.179-13.72-21.934-27.774-32.398-42.055c-18.598-25.385-36.171-51.452-52.296-78.469
		c-13.445-22.526-26.108-45.483-37.366-69.21c-8.066-16.999-15.656-34.186-22.503-51.705c-9.791-25.054-18.013-50.6-24.1-76.816
		c-1.027-4.422-2.01-8.85-2.936-13.287c-4.013-19.226-6.956-38.61-7.737-58.318c0,0,0,0,0,0c-5.586,2.405-11.175,4.812-16.765,7.219
		c1.074,9.254,1.921,18.541,3.265,27.756C384.216,154.649,391.437,183.269,400.568,211.422z"/>
	<path fill="#1B1A49" d="M1041.327,373.683c-5.477-2.443-10.863-5.089-16.32-7.579c-1.858-0.848-3.805-1.502-5.712-2.242
		c-0.292,5.375-0.506,10.756-0.828,16.129c-0.058,0.968-0.119,1.937-0.185,2.905c-0.062,0.905-0.127,1.81-0.198,2.715
		c-1.674,21.428-4.401,42.719-8.708,63.791c-0.063,0.307-0.195,0.6-0.294,0.899c-0.175,0.56-0.351,1.119-0.525,1.678
		c-0.001,0.001,0.355,0.025,0.444,0.031c0.013,0.001,0.02,0.001,0.02,0.001c1.421,0.584,2.862,1.125,4.275,1.724
		c0.471,0.2,0.939,0.406,1.403,0.622c14.722,6.873,29.407,13.828,44.149,20.657c14.042,6.505,28.515,11.989,43.061,17.207
		c13.209,4.739,26.69,8.724,40.051,13.041c-0.234-1.562-0.419-3.132-0.709-4.683c-4.996-26.761-11.731-53.071-20.671-78.793
		c-2.643-7.604-5.663-15.078-8.51-22.611c-3.084-0.826-6.192-1.575-9.266-2.43c-1.025-0.285-2.047-0.582-3.062-0.897
		C1079.817,389.661,1060.377,382.179,1041.327,373.683z"/>
	<path fill="#1B1A49" d="M553.728,1111.22c-14.706-8.007-29.287-16.261-43.697-24.788c-12.098-7.158-23.876-14.859-35.772-22.357
		c-1.327-0.837-2.498-1.92-3.742-2.889c0,0,0,0-0.001,0c-0.565-0.016-1.129-0.033-1.693-0.049
		c-5.102,1.907-10.204,3.813-15.307,5.72c0,0,0,0,0,0c-0.796,0.33-1.586,0.68-2.379,1.019c-0.794,0.339-1.591,0.665-2.404,0.948
		c-13.108,4.567-26.343,8.723-39.77,12.265c-12.196,3.217-24.361,6.555-36.739,9.037c-4.939,0.99-9.862,2.064-14.792,3.1
		c10.604,4.932,21.05,10.246,31.854,14.693c12.124,4.99,24.473,9.483,36.897,13.682c24.294,8.211,49.094,14.56,74.329,19.187
		c13.534,2.481,27.12,4.582,40.825,5.846c7.552,0.697,15.105,1.426,22.673,1.892c10.407,0.641,20.825,1.379,31.244,1.465
		c11.054,0.092,22.113-0.525,33.17-0.848c0.786-0.023,1.569-0.167,2.352-0.254c-2.122-1.051-4.204-2.191-6.371-3.135
		C600.341,1135.276,576.772,1123.768,553.728,1111.22z"/>
	<path fill="#2063A9" d="M66.473,481.256c1.973,5.168,3.875,10.363,5.818,15.542c12.113,32.292,26.035,63.804,41.214,94.757
		c5.983,12.2,12.451,24.165,18.822,36.171c13.346,25.149,27.918,49.587,43.332,73.512c14.042,21.795,28.688,43.188,44.215,63.965
		c11.451,15.323,23.1,30.49,35.299,45.232c11.186,13.518,22.624,26.811,34.28,39.928c11.027,12.409,22.446,24.447,33.964,36.387
		c12.29,12.741,24.914,25.158,37.939,37.158c5.463,5.033,10.835,10.165,16.336,15.156c4.095,3.716,8.349,7.257,12.494,10.918
		c1.629,1.439,3.327,1.693,5.22,0.653c3.462-1.902,6.933-3.787,10.36-5.748c0.473-0.271,0.72-0.938,1.028-1.36
		c-0.841-2.07-2.459-3.155-3.837-4.416c-3.147-2.881-6.402-5.644-9.55-8.524c-10.261-9.385-20.713-18.575-30.683-28.26
		c-13.49-13.104-26.881-26.311-39.68-40.117c-9.993-10.779-20.127-21.423-29.665-32.612c-9.842-11.546-19.753-23.037-29.403-34.742
		c-14.284-17.325-27.768-35.273-40.899-53.485c-16.001-22.193-31.13-44.966-45.451-68.276
		c-14.569-23.714-28.353-47.876-40.922-72.711c-6.423-12.691-12.569-25.523-18.769-38.325c-9.445-19.504-17.789-39.495-25.649-59.67
		c-6.309-16.194-11.884-32.673-17.814-49.015c-0.188-0.518-0.387-1.032-0.594-1.543c-0.619-1.534-1.302-3.045-1.938-4.572l0,0
		c-0.267,0.565-0.628,1.106-0.785,1.7c-2.182,8.238-4.349,16.48-6.479,24.731c-0.233,0.904-0.221,1.871-0.324,2.811c0,0,0,0,0,0
		c0.355,0.793,0.731,1.577,1.094,2.366C65.812,479.654,66.164,480.447,66.473,481.256z"/>
	<path fill="#2063A9" d="M701.26,136.501c10.185,12.669,20.823,24.953,31.642,37.094c17.765,19.936,36.693,38.723,55.837,57.297
		c9.169,8.895,18.777,17.343,28.305,25.861c6.94,6.205,14.049,12.222,21.143,18.251c0.325,0.276,0.667,0.53,1.021,0.771
		c1.062,0.723,2.227,1.324,3.317,2.013c0.762-8.713,1.517-17.427,2.29-26.139c0.29-3.267,0.623-6.531,0.934-9.798
		c0.166-0.693,0.329-1.388,0.492-2.082c0,0,0,0,0,0c0,0,0,0,0,0c-2.095-0.561-3.751-1.764-5.274-3.145
		c-0.692-0.628-1.356-1.293-2.022-1.951c-8.653-8.555-17.308-17.108-25.894-25.731c-11.373-11.423-22.158-23.389-32.817-35.477
		c-18.3-20.756-35.619-42.294-52.033-64.564c-10.876-14.757-21.402-29.759-31.264-45.216c-1.095-1.716-1.868-3.639-2.792-5.466
		c-2.615-0.516-5.208-1.172-7.842-1.523c-11.543-1.541-23.092-3.043-34.652-4.443c-2.799-0.339-5.651-0.236-8.478-0.337
		c3.481,6.002,6.818,12.092,10.469,17.989C668.036,93.155,684.136,115.201,701.26,136.501z"/>
	<path fill="#081542" d="M876.182,969.645c-26.149-13.744-51.835-28.326-76.771-44.176c-15.725-9.995-31.239-20.323-46.797-30.579
		c-0.36-0.237-0.723-0.472-1.087-0.706c-2.547-1.64-5.134-3.271-6.991-5.781c-0.484,0.107-0.968,0.213-1.452,0.32
		c-0.363,0.356-0.722,0.716-1.081,1.077c-1.075,1.083-2.142,2.175-3.287,3.178c-7.782,6.824-15.604,13.601-23.398,20.41
		c-0.646,0.565-1.276,1.149-1.9,1.739c-0.625,0.59-1.245,1.185-1.873,1.771c0.241,0.712,0.594,1.315,1.023,1.843
		c0.171,0.211,0.355,0.411,0.548,0.601c0.87,0.854,1.937,1.513,2.985,2.18c11.853,7.542,23.627,15.213,35.609,22.544
		c9.961,6.094,20.2,11.732,30.264,17.66c14.97,8.817,30.374,16.833,45.881,24.636c11.84,5.958,23.872,11.544,35.926,17.061
		c10.045,4.598,20.151,9.091,30.402,13.204c12.597,5.054,25.37,9.672,38.074,14.46c1.924,0.725,3.944,1.258,5.048,3.24
		c5.98-4.767,12.038-9.44,17.912-14.335c3.71-3.091,7.145-6.512,10.703-9.785c-5.454-2.094-10.951-4.082-16.353-6.301
		C924.568,993.641,900.098,982.215,876.182,969.645z"/>
	<path fill="#377DBC" d="M450.314,167.215c9.328,16.524,19.072,32.788,29.374,48.717c16.147,24.968,33.387,49.17,51.889,72.446
		c9.732,12.244,19.851,24.185,29.929,36.15c5.189,6.161,10.642,12.102,16.033,18.091c5.39,5.988,10.681,12.079,16.312,17.835
		c19.121,19.544,38.289,39.046,58.805,57.159c6.87,6.066,13.563,12.338,20.556,18.257c10.373,8.781,20.853,17.442,31.445,25.959
		c21.814,17.542,44.367,34.095,67.571,49.755c0.228,0.154,0.458,0.303,0.691,0.449c1.631,1.02,3.379,1.867,5.06,2.813c0,0,0,0,0,0
		c2.001-4.686,4.003-9.372,6.005-14.059c-0.778-1.913-2.325-3.06-3.928-4.15c-0.229-0.156-0.459-0.31-0.688-0.466
		c-16.348-11.101-32.377-22.645-48.065-34.659c-14.556-11.147-28.78-22.708-42.721-34.615c-5.405-4.617-10.732-9.326-16.068-14.024
		c-3.319-2.923-6.613-5.876-9.874-8.864c-6.87-6.297-13.872-12.461-20.533-18.972c-18.305-17.894-36.54-35.863-53.462-55.101
		c-6.051-6.879-12.31-13.58-18.252-20.551c-14.046-16.478-27.639-33.326-40.544-50.716c-12.903-17.387-25.381-35.067-37.069-53.308
		c-14.418-22.502-27.847-45.57-40.266-69.224c-7.936-15.114-15.23-30.543-22.083-46.177c-1.648-3.758-3.07-7.614-4.595-11.426
		c-5.528,1.325-10.844,3.252-16.004,5.623c4.236,9.703,8.195,19.537,12.766,29.08C431.335,131.48,440.36,149.582,450.314,167.215z"
		/>
	<path fill="#2063A9" d="M81.611,621.421c8.909,18.88,18.655,37.313,28.757,55.566c8.88,16.044,18.183,31.847,28.177,47.221
		c9.645,14.838,19.302,29.688,29.53,44.124c11.051,15.598,22.612,30.845,34.242,46.022c11.439,14.929,23.543,29.33,35.964,43.456
		c5.842,6.644,11.743,13.238,17.703,19.777c6.491,7.123,12.93,14.302,19.656,21.199c15.89,16.293,31.896,32.475,48.684,47.857
		c4.893,4.483,9.747,9.01,14.658,13.474c3.274,2.975,6.634,5.856,9.924,8.814c1.704,1.531,3.543,1.948,5.67,1.005
		c3.612-1.601,7.248-3.147,10.835-4.802c0.634-0.293,1.076-1.004,1.651-1.567c-1.254-2.591-3.398-4.016-5.24-5.684
		c-11.596-10.497-23.512-20.659-34.773-31.501c-16.847-16.221-33.633-32.523-49.36-49.863c-6.899-7.607-14.011-15.026-20.75-22.771
		c-10.267-11.801-20.448-23.684-30.384-35.763c-15.366-18.682-30.039-37.911-43.84-57.777
		c-9.917-14.275-19.748-28.625-29.115-43.263c-12.352-19.302-23.988-39.051-34.83-59.254
		c-10.914-20.338-21.321-40.933-30.736-62.006c-10.705-23.961-20.469-48.306-28.795-73.211c-0.698-2.086-1.698-4.071-2.558-6.104
		c-0.196,0.59-0.491,1.166-0.572,1.771c-0.978,7.288-2.016,14.57-2.845,21.875c-0.511,4.497-0.691,9.032-1.02,13.551
		c0.363,0.79,0.746,1.571,1.118,2.356c0.372,0.786,0.731,1.576,1.046,2.383C62.741,579.662,71.826,600.685,81.611,621.421z"/>
	<path fill="#373F63" d="M848.211,1044.54c-12.603-5.83-25.259-11.555-37.724-17.668c-14.592-7.157-29.079-14.537-43.465-22.098
		c-11.032-5.799-21.929-11.868-32.721-18.102c-21.052-12.16-41.326-25.577-61.826-38.627c-0.265-0.032-0.531-0.053-0.798-0.064
		c-1.276,1.03-2.518,2.107-3.806,3.12c-0.43,0.338-0.864,0.668-1.307,0.987c-7.746,5.583-15.537,11.106-23.295,16.673
		c-1.393,1-2.711,2.104-4.067,3.16c2.338,1.604,4.633,3.281,7.029,4.795c6.27,3.963,12.591,7.842,18.879,11.776
		c23.688,14.823,47.773,28.904,73.002,41.027c22.47,10.797,44.565,22.374,66.983,33.281c10.348,5.034,21.005,9.46,31.653,13.843
		c1.859,0.765,3.725,1.514,5.602,2.236c5.632,2.167,11.36,4.088,17.265,5.448c1.575-0.697,3.219-1.274,4.715-2.112
		c6.304-3.531,12.608-7.067,18.823-10.749c3.369-1.996,6.563-4.289,9.834-6.449c-2.589-1.172-5.18-2.335-7.763-3.517
		C872.883,1055.853,860.528,1050.238,848.211,1044.54z"/>
	<path fill="#081542" d="M1025.505,892.195c-10.324-3.973-20.629-8.013-30.81-12.335c-12.362-5.248-24.709-10.563-36.839-16.32
		c-14.127-6.704-28.061-13.824-41.985-20.947c-7.592-3.884-15.004-8.123-22.469-12.253c-3.456-1.912-6.821-3.989-10.268-5.92
		c-16.69-9.352-32.943-19.422-49.013-29.792c-0.763,0.773-1.568,1.508-2.28,2.325c-5.229,5.998-10.453,11.999-15.644,18.03
		c-1.11,1.29-2.077,2.703-3.111,4.06c4.622,3.036,9.244,6.073,13.868,9.107c25.513,16.736,51.62,32.474,78.314,47.27
		c15.905,8.816,32.058,17.133,48.462,24.933c14.118,6.713,28.484,12.926,42.885,19.018c10.617,4.492,21.455,8.465,32.222,12.597
		c1.469,0.564,2.984,1.008,4.504,1.442c0.912,0.26,1.825,0.517,2.73,0.794l0,0l0,0c1.23-1.188,2.58-2.278,3.663-3.588
		c1.699-2.053,3.284-4.208,4.801-6.402c4.729-6.837,9.403-13.712,14.099-20.573c-2.433-0.669-4.92-1.189-7.293-2.032
		C1042.705,898.54,1034.058,895.487,1025.505,892.195z"/>
	<path fill="#2063A9" d="M762.824,126.449c8.519,10.561,17.115,21.069,25.954,31.362c7.088,8.255,14.685,16.072,21.893,24.227
		c9.837,11.129,20.62,21.327,31.07,31.851c1.157,1.165,2.469,2.176,3.766,3.202c0.432,0.342,0.863,0.686,1.286,1.037l0,0
		c0.133-2.065,0.361-4.131,0.422-6.197c0.008-0.295,0.014-0.59,0.015-0.885c0.051-13.58,0.295-27.164-0.84-40.721
		c-0.882-10.539-1.416-21.117-2.634-31.616c-0.332-2.861-0.702-5.718-1.096-8.572c-0.395-2.854-0.814-5.705-1.244-8.555
		c-0.43-2.85-0.871-5.698-1.308-8.547c-0.438-2.849-0.873-5.698-1.291-8.549c-1.404-0.724-2.786-1.493-4.214-2.164
		c-32.695-15.35-66.54-27.479-101.616-36.132c-5.507-1.359-11.081-2.448-16.624-3.662c0.901,1.482,1.74,3.006,2.714,4.439
		C732.931,87.329,747.358,107.275,762.824,126.449z"/>
	<path fill="#2063A9" d="M272.345,996.615c-1.513-1.603-2.902-3.35-4.56-4.786c-10.864-9.413-21.398-19.179-31.92-28.972
		c-11.572-10.771-22.793-21.889-33.696-33.306c-11.119-11.643-22.005-23.514-32.553-35.701
		c-16.036-18.529-31.338-37.627-45.691-57.473c-16.583-22.929-32.008-46.61-45.47-71.533c-1.719-3.183-3.781-6.181-5.685-9.266
		c0.502,1.986,0.918,4,1.521,5.956c9.661,31.332,21.953,61.596,37.039,90.71c27.871,53.788,63.596,101.737,107.24,143.773
		c2.95,2.842,6.066,5.512,9.105,8.261c2.654-0.347,5.309-0.687,7.962-1.041C247.975,1001.593,260.261,999.663,272.345,996.615z"/>
	<path fill="#1B1A49" d="M1131.367,615.912c-10.907-3.167-21.865-6.177-32.682-9.628c-23.91-7.628-47.439-16.308-70.61-25.969
		c-15.147-6.316-30.172-12.893-45.021-19.88c-1.834-0.863-3.846-1.348-5.776-2.008c-0.726,1.553-1.497,3.088-2.172,4.663
		c-4.066,9.492-8.102,18.998-12.172,28.489c-0.554,1.29-1.248,2.52-1.877,3.777c0.083,0.172,0.155,0.349,0.221,0.527
		c0.028,0.076,0.058,0.151,0.083,0.228c0-0.001,0-0.001,0.001-0.001c2.088,0.705,4.217,1.31,6.274,2.092
		c0.294,0.112,0.586,0.227,0.876,0.347c18.979,7.817,38.222,14.937,57.703,21.374c17.379,5.743,34.852,11.238,52.661,15.533
		c14.878,3.589,29.775,7.11,44.719,10.411c8.007,1.769,16.131,3.012,24.201,4.491c1.078-10.057,1.87-20.133,1.988-30.253
		c-2.332-0.365-4.699-0.585-6.99-1.128C1138.958,618.068,1135.154,617.012,1131.367,615.912z"/>
	<path fill="#164696" d="M123.926,836.377c14.353,19.846,29.655,38.944,45.691,57.473c10.547,12.187,21.434,24.058,32.553,35.701
		c10.903,11.417,22.124,22.535,33.696,33.306c10.522,9.794,21.056,19.56,31.92,28.972c1.658,1.436,3.047,3.183,4.56,4.786
		c4.227-0.999,8.459-1.975,12.679-3.005c0.283-0.069,0.566-0.14,0.848-0.214c1.972-0.519,3.882-1.2,5.445-2.629c0,0,0,0,0,0
		c-1.539-1.579-2.99-3.257-4.633-4.72c-5.305-4.724-10.748-9.295-16.017-14.059c-9.602-8.68-19.314-17.251-28.624-26.236
		c-16.134-15.57-31.816-31.587-46.814-48.274c-12.564-13.98-24.777-28.24-36.479-42.948c-16.532-20.778-32.086-42.247-46.206-64.742
		c-14.71-23.434-28.09-47.578-39.078-73.007c-6.269-14.508-11.948-29.225-16.413-44.398c-0.89-3.023-2.01-5.978-3.024-8.961
		c0.266,2.984,0.43,5.977,0.814,8.942c3.392,26.2,8.77,51.992,16.021,77.394c0.56,1.961,1.268,3.88,1.908,5.821
		c1.904,3.085,3.966,6.083,5.685,9.266C91.918,789.767,107.343,813.448,123.926,836.377z"/>
	<path fill="#1B1A49" d="M995.632,222.418c7.034,17.647,12.414,35.783,16.227,54.39c2.823,13.781,4.783,27.69,5.972,41.698
		c0.18,2.122,0.365,4.245,0.535,6.369c0.082,1.026,0.16,2.052,0.233,3.078c0.084,1.187,0.16,2.374,0.226,3.562
		c0.23,4.167,0.325,8.34,0.136,12.524c0,0,0,0,0,0c0.162,0.314,0.324,0.629,0.486,0.943c0.775,0.278,1.581,0.497,2.346,0.796
		c0.255,0.1,0.506,0.209,0.749,0.332c17.766,9,35.936,17.089,54.553,24.159c6.936,2.634,13.96,5.044,20.972,7.475
		c1.778,0.616,3.665,0.921,5.503,1.368c-0.717-1.919-1.332-3.884-2.171-5.749c-5.51-12.257-11.507-24.27-17.93-36.08
		c-11.648-21.418-24.661-41.958-39.022-61.655c-9.878-13.548-20.408-26.576-31.455-39.182c-4.581-5.228-9.384-10.263-14.128-15.347
		c-1.28-1.372-2.524-2.878-4.579-3.165c0.006,0.013,0.012,0.026,0.018,0.039c-0.006-0.013-0.012-0.026-0.018-0.039
		c-0.001,0-0.003-0.001-0.004-0.001C994.725,219.432,995.056,220.974,995.632,222.418z"/>
	<path fill="#081542" d="M747.428,1122.546c-15.685-5.878-31.162-12.269-46.34-19.339c-12.596-5.868-25.108-11.935-37.479-18.263
		c-10.398-5.318-20.573-11.079-30.782-16.759c-7.451-4.146-14.902-8.311-22.166-12.77c-10.495-6.443-20.821-13.161-31.219-19.76
		c-0.533-0.339-1.08-0.658-1.604-1.009c-6.69-4.477-13.378-8.957-20.067-13.437c-0.552,0.056-1.105,0.112-1.658,0.169
		c-0.184,0.113-0.366,0.23-0.548,0.346c-0.725,0.459-1.446,0.928-2.18,1.371c-0.425,0.257-0.853,0.507-1.293,0.734
		c-6.177,3.189-12.387,6.311-18.572,9.484c-1.398,0.717-2.743,1.539-4.112,2.312c6.964,4.501,13.895,9.054,20.872,13.533
		c2.326,1.493,4.657,2.978,6.996,4.45c18.59,11.698,37.686,22.538,56.858,33.249c17.104,9.556,34.52,18.517,52.201,26.931
		c15.111,7.19,30.489,13.819,45.742,20.71c1.724,0.779,3.407,1.648,5.108,2.475c1.246-0.161,2.524-0.197,3.734-0.503
		c10.525-2.661,21.042-5.35,31.546-8.092c1.352-0.353,2.613-1.058,3.914-1.601c-1.471-1.231-3.141-2.049-4.871-2.735
		c-0.577-0.229-1.16-0.443-1.745-0.653C748.984,1123.108,748.201,1122.836,747.428,1122.546z"/>
	<path fill="#164696" d="M647.722,91.69c11.848,18.327,24.965,35.763,38.53,52.851c5.992,7.548,12.167,14.956,18.422,22.289
		c5.638,6.61,11.452,13.073,17.274,19.524c5.82,6.45,11.595,12.953,17.654,19.174c18.966,19.474,38.097,38.787,58.496,56.786
		c11.018,9.722,22.105,19.366,33.216,28.982c0.655,0.567,1.324,1.118,2.002,1.659c2.034,1.623,4.146,3.155,6.201,4.753
		c0,0,0-0.001,0-0.001c1.164-2.749,1.458-5.661,1.749-8.572c0.067-0.672,0.134-1.344,0.212-2.013c0.361-3.11,0.7-6.223,1.049-9.335
		c-1.09-0.689-2.255-1.29-3.317-2.013c-0.354-0.241-0.696-0.495-1.021-0.771c-7.094-6.03-14.203-12.047-21.143-18.251
		c-9.528-8.518-19.136-16.965-28.305-25.861c-19.144-18.573-38.072-37.36-55.837-57.297c-10.819-12.142-21.457-24.426-31.642-37.094
		c-17.124-21.299-33.224-43.345-47.618-66.597c-3.65-5.897-6.988-11.988-10.469-17.989c-6.593-1.287-13.278-1.18-19.945-1.327
		c0.906,1.843,1.678,3.765,2.737,5.515C633.164,67.997,640.176,80.017,647.722,91.69z"/>
	<path fill="#373F63" d="M883.961,954.872c-17.876-9.432-35.604-19.119-52.894-29.575c-14.99-9.065-29.818-18.403-44.615-27.782
		c-7.997-5.069-15.806-10.438-23.641-15.759c-0.137-0.093-0.275-0.186-0.414-0.277c-2.081-1.378-4.304-2.652-5.587-4.964
		c-0.408,0.225-0.815,0.449-1.223,0.674c-0.056,0.031-0.113,0.062-0.169,0.093c-2.345,2.329-4.708,4.641-7.028,6.995
		c-1.319,1.339-2.568,2.747-3.851,4.125c1.855,2.512,4.442,4.143,6.989,5.783c0.364,0.234,0.727,0.469,1.087,0.706
		c15.558,10.255,31.072,20.584,46.797,30.579c24.936,15.849,50.622,30.432,76.771,44.176c23.916,12.57,48.386,23.996,73.386,34.263
		c5.402,2.219,10.899,4.207,16.353,6.301c5.038-3.558,9.256-7.998,13.437-12.476c-10.85-4.332-21.781-8.466-32.527-13.036
		C925.472,975.615,904.501,965.71,883.961,954.872z"/>
	<path fill="#373F63" d="M1033.341,933.41c-1.519-0.434-3.035-0.878-4.504-1.442c-10.767-4.132-21.606-8.105-32.222-12.597
		c-14.401-6.093-28.766-12.305-42.885-19.018c-16.405-7.8-32.557-16.117-48.462-24.933c-26.694-14.796-52.801-30.534-78.314-47.27
		c-4.624-3.034-9.246-6.071-13.868-9.107c-0.289,0.037-0.578,0.072-0.867,0.104c-3.529,3.827-7.059,7.656-10.589,11.484
		c0.003,0.266,0.013,0.532,0.03,0.798l0,0c1.608,1,3.234,1.97,4.817,3.006c7.793,5.095,15.559,10.231,23.363,15.308
		c27.536,17.915,55.922,34.387,85.015,49.623c27.698,14.506,56.014,27.708,85.105,39.207c8.364,3.306,16.755,6.544,25.13,9.812
		c0,0,0,0,0.001-0.001c3.932-3.538,6.903-7.882,10.049-12.076c0.448-0.598,0.627-1.397,0.93-2.105l0,0
		C1035.166,933.927,1034.253,933.67,1033.341,933.41z"/>
	<path fill="#377DBC" d="M728.202,108.901c16.413,22.27,33.732,43.808,52.033,64.564c10.659,12.089,21.444,24.055,32.817,35.477
		c8.586,8.623,17.241,17.175,25.894,25.731c0.666,0.658,1.331,1.323,2.022,1.951c1.523,1.381,3.178,2.584,5.274,3.145c0,0,0,0,0,0
		c0.469-6.326,0.938-12.652,1.407-18.978c-0.093-0.291-0.187-0.583-0.281-0.874c-0.192-0.596-0.383-1.192-0.574-1.788l0,0
		c-0.423-0.352-0.853-0.695-1.286-1.037c-1.297-1.026-2.609-2.037-3.766-3.202c-10.451-10.525-21.233-20.722-31.07-31.851
		c-7.208-8.155-14.805-15.972-21.893-24.227c-8.839-10.294-17.435-20.801-25.954-31.362c-15.466-19.173-29.892-39.12-43.747-59.481
		c-0.974-1.432-1.813-2.957-2.714-4.439c-7.309-1.936-14.715-3.374-22.216-4.31c0.924,1.828,1.697,3.75,2.792,5.466
		C706.8,79.142,717.326,94.144,728.202,108.901z"/>
	<path fill="#373F63" d="M666.335,1113.787c-17.681-8.413-35.097-17.375-52.201-26.931c-19.172-10.711-38.267-21.552-56.858-33.249
		c-2.339-1.472-4.67-2.957-6.996-4.45c-6.978-4.479-13.908-9.033-20.873-13.533c-0.321-0.049-0.642-0.098-0.963-0.147
		c-1.34,0.768-2.69,1.516-4.052,2.235c-4.087,2.16-8.29,4.071-12.694,5.55c-0.08,0.238-0.167,0.472-0.261,0.704c0,0,0,0,0,0
		c0,0,0.001,0,0.001,0c7.562,4.864,15.125,9.726,22.686,14.591c21.103,13.577,42.61,26.48,64.573,38.62
		c17.4,9.617,34.926,19.001,52.821,27.669c10.932,5.295,21.986,10.339,32.977,15.512c1.423,0.67,2.803,1.431,4.203,2.149
		c6.15-1.08,12.311-2.101,18.447-3.261c3.369-0.637,6.694-1.508,10.04-2.274c-1.701-0.827-3.384-1.696-5.108-2.475
		C696.824,1127.606,681.446,1120.977,666.335,1113.787z"/>
	<path fill="#081542" d="M651.518,1124.846c-17.895-8.668-35.421-18.052-52.821-27.669c-21.963-12.139-43.47-25.043-64.573-38.62
		c-7.561-4.865-15.124-9.727-22.686-14.591c0,0-0.001,0-0.001,0c-7.376,3.216-14.752,6.432-22.128,9.648
		c1.642,1.223,3.199,2.588,4.941,3.647c14.976,9.106,29.9,18.303,45.009,27.184c16.614,9.766,33.763,18.564,51.004,27.165
		c18.376,9.166,37.034,17.73,56.019,25.564c4.962,2.047,10.025,3.847,15.007,5.846c1.747,0.701,3.39,1.662,5.084,2.504
		c7.542-0.277,14.966-1.406,22.325-3.018c-1.399-0.718-2.78-1.479-4.203-2.149C673.504,1135.185,662.45,1130.141,651.518,1124.846z"
		/>
	<path fill="#373F63" d="M1078.876,635.456c-17.809-4.296-35.282-9.79-52.661-15.533c-19.481-6.438-38.724-13.558-57.703-21.374
		c-0.291-0.12-0.583-0.235-0.876-0.347c-2.057-0.781-4.186-1.387-6.274-2.092c0,0,0,0.001-0.001,0.001l0,0c0,0,0,0.001,0,0.001
		c-2.317,4.849-4.633,9.7-6.95,14.552c2.309,1.03,4.587,2.136,6.933,3.074c7.046,2.816,14.104,5.604,21.184,8.334
		c20.513,7.911,41.306,15.01,62.367,21.315c26.522,7.94,53.336,14.725,80.536,19.925c0.854,0.163,1.708,0.322,2.563,0.477
		c5.986,1.085,12.006,1.99,18.007,2.995c0.599-5.477,1.197-10.951,1.795-16.425c-8.07-1.48-16.194-2.722-24.201-4.491
		C1108.652,642.566,1093.755,639.045,1078.876,635.456z"/>
	<path fill="#373F63" d="M646.283,1137.174c-18.985-7.834-37.643-16.398-56.019-25.564c-17.242-8.601-34.39-17.399-51.004-27.165
		c-15.109-8.881-30.033-18.078-45.009-27.184c-1.742-1.059-3.299-2.424-4.941-3.647c-0.5,0.029-1,0.058-1.5,0.087
		c-0.893,0.423-1.78,0.861-2.671,1.289c-0.805,0.387-1.613,0.766-2.433,1.115c-4.049,1.725-8.124,3.391-12.188,5.08
		c1.244,0.969,2.415,2.053,3.742,2.889c11.896,7.498,23.674,15.198,35.772,22.357c14.41,8.526,28.991,16.78,43.697,24.788
		c23.044,12.548,46.613,24.056,70.678,34.534c2.167,0.943,4.249,2.083,6.371,3.135c0.002,0.001,0.003,0.001,0.004,0.002
		c7.827-0.574,15.66-1.071,23.477-1.762c4.055-0.358,8.081-1.059,12.116-1.605c-1.694-0.842-3.337-1.803-5.084-2.504
		C656.308,1141.021,651.244,1139.221,646.283,1137.174z"/>
	<path fill="#373F63" d="M1077.094,370.27c-18.617-7.07-36.787-15.16-54.553-24.159c-0.243-0.123-0.494-0.232-0.749-0.332
		c-0.765-0.3-1.571-0.518-2.346-0.796c-0.021,2.803-0.022,5.607-0.054,8.41c-0.011,0.934-0.025,1.869-0.046,2.803
		c-0.044,2.02-0.24,4.036-0.368,6.054c0.106,0.538,0.212,1.076,0.318,1.612c0,0,0,0,0,0c1.907,0.74,3.853,1.394,5.712,2.242
		c5.457,2.49,10.843,5.136,16.32,7.579c19.049,8.496,38.49,15.979,58.415,22.165c1.015,0.315,2.037,0.612,3.062,0.897
		c3.075,0.855,6.182,1.604,9.266,2.429c-2.311-6.909-4.95-13.678-8.501-20.061c-1.838-0.448-3.725-0.752-5.503-1.368
		C1091.054,375.314,1084.031,372.904,1077.094,370.27z"/>
	<path fill="none" stroke="#1B1A49" stroke-width="0" stroke-linecap="round" stroke-linejoin="round" d="M994.302,217.975
		c-0.006-0.013-0.012-0.026-0.018-0.039"/>
	<path fill="none" stroke="#1B1A49" stroke-width="0" stroke-linecap="round" stroke-linejoin="round" d="M994.284,217.936
		c-0.339-0.729-0.679-1.457-1.02-2.19"/>
	<path fill="#1B308A" d="M801.63,830.631c-0.52-0.279-1.052-0.538-1.583-0.801c-0.353-0.175-0.706-0.352-1.053-0.537
		c-0.347-0.185-0.688-0.378-1.018-0.587c-0.165-0.104-0.328-0.212-0.487-0.324c-10.192-7.183-20.445-14.286-30.489-21.673
		c-19.457-14.31-38.6-29.03-57.203-44.445c-12.757-10.571-25.523-21.128-37.806-32.254c-2.922-2.647-5.876-5.259-8.816-7.887
		c-0.235-0.211-0.463-0.431-0.71-0.626c-2.268-1.799-3.682-1.697-5.7,0.523c-0.846,0.931-1.54,1.999-2.333,2.982
		c-10.501,13.016-20.98,26.05-31.545,39.014c-0.37,0.454-0.767,0.887-1.181,1.305c-1.242,1.255-2.638,2.386-3.922,3.607c0,0,0,0,0,0
		c0.042,0.638,0.085,1.276,0.128,1.914c1.751,0.217,3.032,1.221,4.297,2.302c0.181,0.155,0.361,0.311,0.543,0.466
		c7.299,6.264,14.555,12.582,21.977,18.698c10.955,9.027,21.899,18.078,33.099,26.795c14.812,11.53,29.799,22.839,44.842,34.066
		c9.733,7.264,19.71,14.201,29.554,21.318c0.571,0.412,1.104,0.877,1.627,1.356c0.523,0.479,1.036,0.971,1.566,1.439
		c0,0,0,0,0.001,0c0.056-0.031,0.113-0.062,0.169-0.093c0.408-0.225,0.816-0.45,1.227-0.677c0.651-0.687,1.269-1.402,1.949-2.051
		c13.654-13.003,26.945-26.365,39.811-40.148c0.24-0.257,0.488-0.506,0.742-0.749c0.023-0.022,0.047-0.043,0.07-0.065
		c0.741-0.706,1.524-1.373,2.274-2.069C801.643,831.163,801.633,830.897,801.63,830.631L801.63,830.631
		C801.63,830.631,801.63,830.631,801.63,830.631z"/>
	<path fill="#1B308A" d="M829.658,792.007c-0.472-0.284-0.935-0.589-1.393-0.905c-11.173-7.685-22.415-15.272-33.495-23.087
		c-8.761-6.179-17.388-12.555-25.963-18.993c-14.122-10.604-27.964-21.568-41.497-32.917c-7.365-6.177-14.757-12.324-22.059-18.575
		c-3.948-3.38-7.724-6.961-11.593-10.435c-2.347-2.107-4.692-4.228-7.713-5.371c-1.013,1.378-2.044,2.744-3.036,4.137
		c-3.697,5.189-7.352,10.409-11.092,15.567c-0.101,0.139-0.207,0.276-0.316,0.409c-0.764,0.935-1.707,1.741-2.55,2.62c0,0,0,0,0,0
		c0.079,0.651,0.157,1.302,0.235,1.952c0,0,0.001,0,0.001,0c2.836,1.161,5.019,3.239,7.258,5.227
		c1.298,1.153,2.471,2.448,3.787,3.578c10.299,8.839,20.49,17.811,30.966,26.437c13.894,11.439,27.851,22.813,42.082,33.827
		c17.607,13.627,35.521,26.856,53.99,39.315c0.226,0.152,0.447,0.312,0.664,0.477c1.52,1.156,2.848,2.596,4.285,3.876l0,0
		c0.289-0.031,0.578-0.066,0.867-0.104c1.033-1.356,2.001-2.77,3.111-4.06c5.191-6.031,10.415-12.032,15.644-18.03
		c0.712-0.817,1.517-1.552,2.28-2.325c0.045-0.304,0.096-0.606,0.154-0.908C832.571,793.527,831.074,792.86,829.658,792.007z"/>
	<path fill="#213C90" d="M918.686,595.078c-17.325-8.085-34.454-16.576-51.271-25.665c-20.292-10.968-40.291-22.458-59.788-34.797
		c-8.409-5.322-16.752-10.749-25.133-16.116c-1.463-0.937-2.965-1.81-4.449-2.712c-0.645,1.119-1.377,2.201-1.99,3.334
		c-0.204,0.378-0.395,0.761-0.565,1.154c-7.646,17.657-16.052,34.951-24.735,52.118c-9.184,18.158-19.026,35.95-29.357,53.475
		c-1.188,2.015-2.74,3.816-4.123,5.715c-0.548,1.291-1.155,2.546-1.809,3.772c-1.963,3.677-4.357,7.091-6.9,10.412
		c-0.485,1.151-0.811,2.406-1.483,3.437c-6.7,10.287-13.457,20.537-20.198,30.796c-0.313,0.574-0.626,1.15-0.939,1.725
		c3.021,1.144,5.366,3.264,7.713,5.371c3.869,3.473,7.645,7.054,11.593,10.435c7.302,6.252,14.693,12.399,22.059,18.575
		c13.533,11.349,27.375,22.313,41.497,32.917c8.574,6.438,17.201,12.814,25.963,18.993c11.081,7.815,22.322,15.402,33.495,23.087
		c0.458,0.315,0.921,0.62,1.393,0.905c1.416,0.853,2.914,1.519,4.617,1.713l0,0c1.677-1.877,3.42-3.7,5.022-5.64
		c14.971-18.142,29.215-36.844,42.796-56.042c26.017-36.779,49.193-75.265,69.133-115.678c0.904-1.833,1.667-3.737,2.496-5.608
		c-5.775-2.562-11.557-5.111-17.325-7.689C930.484,600.421,924.554,597.816,918.686,595.078z"/>
	<path fill="#164696" d="M930.711,582.074c-7.338-3.296-14.637-6.696-21.825-10.303c-11.138-5.589-22.224-11.288-33.227-17.139
		c-9.748-5.184-19.47-10.438-28.989-16.024c-12.925-7.584-25.688-15.447-38.439-23.324c-6.71-4.145-13.235-8.586-19.866-12.86
		c-1.053-0.679-2.222-1.179-3.334-1.761c-0.347,0.042-0.697,0.082-1.047,0.123h0c-2.002,4.686-4.003,9.373-6.005,14.059
		c0.033,0.313,0.055,0.627,0.066,0.941c1.484,0.902,2.987,1.776,4.449,2.712c8.381,5.367,16.723,10.794,25.133,16.116
		c19.497,12.339,39.497,23.829,59.788,34.797c16.816,9.089,33.946,17.58,51.271,25.665c5.867,2.738,11.798,5.343,17.71,7.986
		c5.768,2.578,11.549,5.127,17.325,7.689c0.232-0.013,0.461-0.042,0.69-0.088c2.317-4.852,4.634-9.703,6.95-14.552
		c0,0,0-0.001,0-0.001c-0.025-0.077-0.055-0.152-0.083-0.228c-0.066-0.178-0.138-0.355-0.221-0.527c0,0,0,0,0,0
		C950.938,590.937,940.783,586.599,930.711,582.074z"/>
	<path fill="#1B308A" d="M1008.557,451.978c0.175-0.559,0.35-1.118,0.525-1.678c-3.136-0.05-5.769-1.562-8.391-3
		c-9.134-5.009-18.276-10.005-27.327-15.16c-8.778-5-17.513-10.083-26.151-15.322c-16.74-10.152-33.295-20.61-49.357-31.805
		c-13.467-9.386-26.722-19.077-40-28.73c-6.382-4.639-12.627-9.468-18.878-14.283c-0.675-0.52-1.36-0.994-2.073-1.393
		c-1.188-0.665-2.454-1.123-3.886-1.244c-0.191,1.089-0.366,2.18-0.574,3.265c-4.086,21.262-9.402,42.226-15.44,63.006
		c-3.304,11.369-6.78,22.693-10.445,33.95c-0.352,1.08-0.688,2.171-1.033,3.261c-1.034,3.268-2.153,6.523-4.039,9.452
		c0.134,0.595,0.266,1.191,0.398,1.788c3.105,0.904,5.581,2.92,8.183,4.692c11.748,7.997,23.378,16.169,35.231,24.006
		c9.876,6.529,19.933,12.793,30.038,18.965c11.047,6.746,22.192,13.336,33.389,19.83c7.373,4.276,14.835,8.413,22.394,12.348
		c15.266,7.948,30.625,15.716,45.946,23.559c0.195-0.423,0.401-0.841,0.601-1.262c0.105-0.22,0.207-0.44,0.306-0.662
		c0.096-0.216,0.187-0.433,0.273-0.653c10.711-27.539,19.655-55.635,26.454-84.397c1.45-6.133,2.591-12.338,3.874-18.51
		C1008.574,451.999,1008.558,451.977,1008.557,451.978z"/>
	<path fill="#213C90" d="M836.905,340.607c0.713,0.399,1.398,0.873,2.073,1.393c6.251,4.815,12.497,9.644,18.878,14.283
		c13.278,9.653,26.534,19.344,40,28.73c16.062,11.195,32.616,21.653,49.357,31.805c8.638,5.238,17.373,10.321,26.151,15.322
		c9.051,5.156,18.193,10.152,27.327,15.16c2.622,1.438,5.255,2.95,8.391,3c0.1-0.299,0.232-0.592,0.294-0.899
		c4.307-21.072,7.034-42.363,8.708-63.791c0.071-0.905,0.136-1.81,0.198-2.715c0.066-0.968,0.127-1.936,0.185-2.905
		c0.321-5.373,0.535-10.755,0.828-16.129c-0.106-0.536-0.212-1.074-0.318-1.612c-3.188-0.515-5.955-2.08-8.73-3.582
		c-5.696-3.082-11.416-6.128-17.017-9.374c-10.114-5.862-20.222-11.738-30.198-17.829c-15.924-9.723-31.222-20.399-46.193-31.51
		c-10.904-8.092-21.496-16.611-32.112-25.082c-9.753-7.781-19.173-15.96-28.346-24.423c-2.668-2.462-5.425-4.829-8.196-7.176
		c-0.707-0.599-1.619-0.955-2.435-1.421c-0.311,3.267-0.644,6.53-0.934,9.798c-0.773,8.712-1.528,17.426-2.29,26.139
		c-0.349,3.111-0.688,6.224-1.049,9.335c-0.077,0.67-0.144,1.342-0.212,2.013c-0.291,2.911-0.585,5.823-1.749,8.572
		c-0.031,2.04,0.125,4.104-0.133,6.115c-0.52,4.061-1.239,8.097-1.923,12.135c-1.157,6.833-2.349,13.661-3.527,20.491v0
		c-0.305,0.972-0.61,1.943-0.915,2.915h0C834.451,339.484,835.718,339.942,836.905,340.607z"/>
	<path fill="#213C90" d="M637.698,972.12c-1.203-0.952-2.35-1.991-3.574-2.911c-0.408-0.307-0.824-0.6-1.253-0.872
		c-14.014-8.893-28.054-17.744-42.111-26.568c-22.118-13.886-43.147-29.312-63.826-45.217c-7.258-5.582-14.151-11.638-21.21-17.477
		c-1.027,0.556-2.115,1.029-3.119,1.617c-0.335,0.196-0.66,0.405-0.97,0.633c-3.809,2.807-7.531,5.731-11.279,8.621
		c-0.308,0.238-0.618,0.472-0.932,0.695c-0.209,0.148-0.421,0.292-0.635,0.428c-0.215,0.136-0.432,0.264-0.653,0.383
		c-0.996,0.535-2.074,0.872-3.323,0.8c-0.497,1.553-1.432,2.796-2.772,3.7c-3.376,2.279-6.775,4.525-10.167,6.784
		c0,0-0.001,0.001-0.001,0.001c-1.921,1.607-3.713,3.402-5.78,4.789c-2.381,1.598-4.767,3.19-7.156,4.777
		c-7.167,4.76-14.362,9.478-21.542,14.219c0,0,0,0,0,0.001c-0.009,0.292-0.017,0.584-0.025,0.876
		c0.849,0.931,1.615,1.959,2.561,2.779c18.266,15.816,36.871,31.214,55.918,46.093c16.811,13.133,33.998,25.741,51.343,38.145
		c1.542,1.103,3.199,2.05,4.691,3.213c1.483,1.156,2.825,2.493,4.23,3.75c0.553-0.057,1.106-0.113,1.658-0.169
		c0.924-0.588,1.828-1.211,2.775-1.758c12.395-7.153,24.917-14.094,37.161-21.496c11.976-7.239,23.68-14.93,35.478-22.461
		c0.395-0.252,0.78-0.518,1.16-0.794c0.534-0.387,1.056-0.793,1.577-1.201c0.522-0.41,1.044-0.82,1.571-1.221
		C637.562,972.225,637.629,972.171,637.698,972.12L637.698,972.12L637.698,972.12z"/>
	<path fill="#1B308A" d="M551.882,1017.627c-1.492-1.163-3.15-2.11-4.691-3.213c-17.345-12.405-34.532-25.013-51.343-38.145
		c-19.046-14.879-37.651-30.277-55.918-46.093c-0.946-0.819-1.712-1.848-2.561-2.779c-1.868,0.827-3.828,1.494-5.589,2.509
		c-6.293,3.627-12.522,7.366-18.765,11.079c-0.809,0.481-1.616,0.997-2.321,1.615c-0.82,0.719-0.954,1.771-0.265,2.549
		c1.354,1.529,2.797,3.004,4.355,4.322c4.58,3.875,9.27,7.62,13.854,11.491c15.089,12.744,30.757,24.758,46.536,36.616
		c16.162,12.145,32.663,23.832,49.491,35.049c1.31,0.874,2.521,1.896,3.778,2.85c0.321,0.049,0.642,0.098,0.964,0.147
		c1.369-0.773,2.714-1.595,4.112-2.312c6.185-3.173,12.395-6.295,18.572-9.484c0.44-0.227,0.869-0.477,1.293-0.734
		c0.734-0.444,1.454-0.912,2.18-1.371c0.182-0.116,0.364-0.233,0.548-0.346C554.708,1020.12,553.366,1018.783,551.882,1017.627z"/>
	<path fill="#1B308A" d="M505.147,1039.496c-13.895-9.909-27.851-19.74-41.551-29.914c-11.796-8.761-23.414-17.775-34.859-26.989
		c-10.703-8.617-21.074-17.645-31.596-26.486c-0.604-0.507-1.251-0.964-1.886-1.434c-1.94-1.437-4.006-1.779-6.234-0.706
		c-0.712,0.343-1.437,0.657-2.147,1.005c-4.968,2.434-9.94,4.86-14.89,7.33c-0.664,0.331-1.211,0.898-2.039,1.528
		c0.742,1.074,1.219,2.076,1.97,2.786c1.49,1.407,3.116,2.672,4.713,3.963c13.026,10.526,25.897,21.25,39.125,31.516
		c21.605,16.769,43.864,32.648,66.742,47.649c0.461,0.302,0.913,0.618,1.359,0.942c1.339,0.973,2.628,2.023,3.953,3.016l0,0
		c0.5-0.029,1-0.058,1.5-0.087c7.376-3.216,14.753-6.432,22.128-9.648c0.094-0.231,0.181-0.466,0.261-0.704c0,0,0,0,0-0.001
		C509.508,1042.016,507.188,1040.952,505.147,1039.496z"/>
	<path fill="#1B308A" d="M427.952,1032.119c-13.404-9.203-26.108-19.327-38.846-29.391c-11.496-9.082-22.668-18.579-33.83-28.072
		c-2.762-2.349-5.301-2.987-8.607-1.549c-4.482,1.949-9.057,3.685-13.592,5.512c0.798,0.758,1.545,1.579,2.403,2.264
		c10.477,8.356,20.828,16.879,31.495,24.986c13.433,10.209,26.962,20.301,41.009,29.671c13.908,9.276,27.795,18.583,41.657,27.926
		c0.53,0.357,1.026,0.763,1.508,1.191c0.803,0.713,1.564,1.488,2.368,2.2c5.102-1.907,10.204-3.813,15.307-5.72
		c-1.087-0.907-2.116-1.898-3.271-2.709C453.036,1049.634,440.562,1040.777,427.952,1032.119z"/>
	<path fill="#213C90" d="M704.562,913.656c-12.415-8.691-25.028-17.109-37.274-26.031c-13.012-9.48-25.794-19.286-38.483-29.199
		c-11.192-8.744-22.139-17.804-33.15-26.778c-4.403-3.589-8.754-7.247-12.997-11.022c-0.264-0.235-0.523-0.475-0.779-0.719
		c-0.511-0.489-1.007-0.995-1.495-1.51c-0.731-0.773-1.444-1.567-2.16-2.357c-0.477-0.527-0.956-1.052-1.444-1.567
		c-0.282,0.017-0.564,0.034-0.845,0.051c-0.079,0.005-0.158,0.01-0.236,0.014l0,0c-0.563,0.757-1.04,1.603-1.706,2.256
		c-5.41,5.312-10.806,10.641-16.305,15.86c-5.384,5.11-10.89,10.091-16.325,15.148c-0.287,0.267-0.542,0.566-0.79,0.875
		c-0.247,0.309-0.487,0.626-0.74,0.928l0,0c0.751,1.074,1.611,2.031,2.536,2.913c0.185,0.177,0.373,0.35,0.563,0.521
		c0.38,0.342,0.769,0.674,1.165,0.999c1.583,1.298,3.267,2.479,4.88,3.726c14.845,11.486,29.75,22.895,44.681,34.269
		c12.172,9.272,24.358,18.525,36.636,27.656c11.777,8.759,24.078,16.758,36.438,24.666c1.718,1.099,3.3,2.411,4.946,3.624l0,0
		c0.267,0.01,0.533,0.032,0.798,0.064c1.166-1.032,2.282-2.127,3.506-3.085c6.048-4.73,12.185-9.349,18.173-14.154
		c2.623-2.105,5.207-4.258,7.781-6.424c2.573-2.167,5.136-4.347,7.715-6.506C707.959,916.462,706.361,914.916,704.562,913.656z"/>
	<path fill="#164696" d="M666.731,944.356c-12.359-7.908-24.661-15.907-36.438-24.666c-12.277-9.131-24.464-18.385-36.636-27.656
		c-14.931-11.374-29.836-22.783-44.681-34.269c-1.612-1.248-3.297-2.428-4.88-3.726c-0.396-0.325-0.785-0.656-1.165-0.999
		c-0.19-0.171-0.378-0.345-0.563-0.521c-0.925-0.883-1.785-1.839-2.536-2.913c-0.529,0.349-1.057,0.698-1.587,1.048
		c0,0-0.001,0-0.001,0.001c-1.039,0.968-2.036,1.984-3.121,2.896c-9.778,8.225-19.572,16.432-29.361,24.644
		c-0.007,0.294-0.02,0.588-0.04,0.881c7.059,5.839,13.952,11.895,21.21,17.477c20.68,15.904,41.709,31.331,63.826,45.217
		c14.057,8.825,28.097,17.675,42.111,26.568c0.429,0.272,0.845,0.566,1.253,0.872c1.223,0.92,2.371,1.958,3.574,2.911l0,0
		c0.5-0.066,1-0.133,1.503-0.2c1.355-1.056,2.674-2.16,4.067-3.16c7.758-5.567,15.549-11.089,23.295-16.673
		c0.443-0.319,0.878-0.649,1.307-0.987c1.289-1.013,2.531-2.09,3.806-3.12C670.031,946.767,668.449,945.456,666.731,944.356z"/>
	<path fill="#1B308A" d="M729.259,878.773c-1.53-1.114-3.054-2.236-4.571-3.368c-16.813-12.551-33.625-25.106-50.332-37.797
		c-8.288-6.296-16.4-12.828-24.494-19.375c-6.866-5.554-13.598-11.273-20.374-16.936c-5.082-4.247-10.141-8.523-15.211-12.785
		c-2.296-1.93-4.617-3.835-6.189-6.46c-0.593-0.001-1.186-0.001-1.779,0.001c-2.285,2.8-4.422,5.736-6.882,8.371
		c-6.872,7.359-13.881,14.59-20.824,21.882c-0.162,0.171-0.32,0.346-0.474,0.525c-0.462,0.536-0.895,1.099-1.348,1.643
		c0.488,0.515,0.967,1.04,1.444,1.567c0.716,0.79,1.429,1.584,2.16,2.357c0.487,0.515,0.984,1.021,1.495,1.51
		c0.256,0.244,0.515,0.484,0.779,0.719c4.243,3.775,8.594,7.433,12.997,11.022c11.011,8.975,21.957,18.034,33.15,26.778
		c12.688,9.913,25.47,19.719,38.483,29.199c12.246,8.922,24.859,17.34,37.274,26.031c1.799,1.259,3.397,2.805,5.088,4.219
		c0.632-0.325,1.264-0.65,1.895-0.975l0,0c0.628-0.586,1.248-1.181,1.873-1.771c0.625-0.59,1.254-1.174,1.9-1.739
		c7.794-6.81,15.616-13.587,23.398-20.41c1.145-1.004,2.212-2.095,3.287-3.178c0.358-0.361,0.717-0.721,1.08-1.077
		C738.482,885.398,733.847,882.116,729.259,878.773z"/>
	<path fill="#213C90" d="M931.12,533.924c-7.559-3.935-15.021-8.072-22.394-12.348c-11.197-6.494-22.342-13.084-33.389-19.83
		c-10.105-6.171-20.162-12.436-30.038-18.965c-11.853-7.836-23.483-16.009-35.231-24.006c-2.602-1.771-5.078-3.787-8.183-4.692
		c-0.547,1.308-1.141,2.6-1.634,3.928c-1.868,5.031-3.645,10.096-5.565,15.106c-2.767,7.222-5.635,14.405-8.448,21.61
		c-0.093,0.238-0.189,0.476-0.284,0.714c-0.665,1.666-1.309,3.342-0.924,5.222c1.112,0.582,2.281,1.082,3.334,1.761
		c6.631,4.274,13.156,8.715,19.866,12.86c12.75,7.877,25.514,15.74,38.439,23.324c9.52,5.586,19.242,10.84,28.989,16.024
		c11.003,5.851,22.089,11.55,33.227,17.139c7.189,3.607,14.487,7.006,21.825,10.303c10.071,4.524,20.226,8.863,30.346,13.282
		c0,0,0,0,0,0c0.629-1.257,1.323-2.487,1.877-3.777c4.07-9.49,8.106-18.996,12.172-28.489c0.675-1.575,1.445-3.11,2.172-4.663
		c-0.07-0.315-0.141-0.629-0.212-0.944c0,0,0,0,0,0C961.745,549.64,946.386,541.872,931.12,533.924z"/>
	<path fill="#164696" d="M848.185,243.272c2.77,2.347,5.528,4.714,8.196,7.176c9.172,8.463,18.593,16.641,28.346,24.423
		c10.617,8.471,21.208,16.99,32.112,25.082c14.972,11.111,30.269,21.787,46.193,31.51c9.976,6.091,20.084,11.967,30.198,17.829
		c5.602,3.247,11.322,6.292,17.017,9.374c2.776,1.502,5.542,3.068,8.73,3.582c0.128-2.018,0.325-4.034,0.368-6.054
		c0.02-0.934,0.035-1.868,0.046-2.803c0.033-2.803,0.033-5.607,0.054-8.41l0,0c-0.162-0.314-0.324-0.629-0.486-0.943l0,0
		c-2.514-1.326-5.036-2.637-7.553-3.957c-2.517-1.32-5.03-2.649-7.525-4.01c-16.096-8.776-31.755-18.266-46.966-28.507
		c-13.76-9.263-27.325-18.778-40.472-28.908c-12.138-9.353-24.062-18.957-35.738-28.873c-3.007-2.554-5.972-5.16-8.89-7.816
		c-4.786-4.355-9.502-8.787-14.279-13.151c-2.213-2.022-4.472-3.996-6.771-5.919c-0.239-0.2-0.489-0.388-0.744-0.569
		c-0.766-0.542-1.59-1.015-2.373-1.538c0,0,0,0,0,0c-0.469,6.326-0.938,12.652-1.407,18.978c-0.163,0.694-0.326,1.389-0.492,2.082
		C846.566,242.317,847.478,242.673,848.185,243.272z"/>
	<path fill="#213C90" d="M1009.001,452.01c-0.089-0.006-0.445-0.031-0.444-0.031c0-0.001,0.016,0.021,0.016,0.021
		s0.07,0.002,0.154,0.004c0.13,0.003,0.294,0.008,0.294,0.008C1009.021,452.011,1009.014,452.01,1009.001,452.01z"/>
	<path fill="#164696" d="M755.417,877.283c-0.531-0.468-1.043-0.961-1.566-1.439c-0.523-0.479-1.056-0.943-1.627-1.356
		c-9.844-7.116-19.82-14.054-29.554-21.318c-15.043-11.227-30.03-22.537-44.842-34.066c-11.2-8.718-22.144-17.768-33.099-26.795
		c-7.422-6.116-14.678-12.434-21.977-18.698c-0.181-0.156-0.362-0.312-0.543-0.466c-1.265-1.082-2.546-2.086-4.299-2.302
		c-0.257,0.188-0.51,0.379-0.759,0.574c-0.498,0.389-0.98,0.793-1.447,1.21c-0.233,0.208-0.463,0.42-0.69,0.634
		c-2.716,2.574-4.927,5.591-6.927,8.793c1.572,2.625,3.893,4.53,6.189,6.46c5.07,4.262,10.128,8.538,15.211,12.785
		c6.777,5.663,13.509,11.383,20.374,16.936c8.093,6.547,16.205,13.079,24.494,19.375c16.708,12.691,33.519,25.246,50.332,37.797
		c1.516,1.132,3.041,2.253,4.571,3.368c4.589,3.343,9.223,6.625,13.825,9.951h0c0.484-0.107,0.968-0.214,1.455-0.322
		c1.283-1.378,2.531-2.786,3.851-4.125C750.709,881.923,753.072,879.612,755.417,877.283z"/>
</g>
</svg>
