<?xml version="1.0" encoding="utf-8"?>
<!-- Designed by Vexels.com - 2020 All Rights Reserved - https://vexels.com/terms-and-conditions/  -->
<svg version="1.1" id="Capa_1" xmlns="http://www.w3.org/2000/svg" xmlns:xlink="http://www.w3.org/1999/xlink" x="0px" y="0px"
	 viewBox="0 0 1200 1200" enable-background="new 0 0 1200 1200" xml:space="preserve">
<g>
	<path fill="#6C7BA0" d="M194.184,864.227c-0.742-1.354-1.518-2.69-2.215-4.067c-0.693-1.37-1.305-2.78-1.95-4.174
		c0.925-6.092,3.482-11.666,5.712-17.309c4.952-12.531,11.575-24.21,19.043-35.397c7.729-11.578,16.662-22.236,26.287-32.242
		c11.356-11.806,22.748-23.604,35.131-34.375c5.999-5.218,11.982-10.454,17.979-15.674c0.94-0.819,1.925-1.586,2.877-2.391
		c5.475-4.632,10.919-9.299,16.427-13.891c3.593-2.995,7.289-5.867,10.918-8.82c7.741-6.297,15.369-12.739,23.228-18.885
		c9.585-7.495,19.325-14.794,29.063-22.091c11.49-8.609,23.007-17.183,34.591-25.665c10.45-7.652,21.017-15.143,31.513-22.733
		c9.863-7.132,19.681-14.326,29.554-21.444c14.684-10.586,29.445-21.066,44.087-31.709c12.875-9.358,25.65-18.852,38.433-28.336
		c8.021-5.951,16.026-11.926,23.945-18.011c8.534-6.558,16.974-13.238,25.425-19.902c6.613-5.215,13.192-10.475,19.766-15.74
		c7.425-5.946,14.838-11.909,22.238-17.886c5.459-4.41,10.931-8.805,16.323-13.296c8.387-6.985,16.731-14.02,25.054-21.081
		c6.182-5.244,12.367-10.485,18.43-15.865c6.881-6.105,13.667-12.319,20.418-18.568c5.953-5.51,11.943-10.991,17.665-16.735
		c10.793-10.832,22.098-21.166,32.066-32.808c4.257-4.973,8.667-9.815,12.935-14.778c7.742-9.002,14.868-18.466,21.103-28.584
		c2.875-4.665,5.469-9.479,6.933-14.789c0.489-1.774,0.71-3.678,0.694-5.519c-0.017-2.049-1.347-3.096-3.419-2.916
		c-1.229,0.107-2.452,0.443-3.646,0.786c-11.026,3.166-21.273,8.157-31.204,13.761c-10.057,5.675-19.849,11.809-29.269,18.511
		c-6.358,4.523-12.789,8.948-19.056,13.593c-9.778,7.247-19.452,14.634-29.157,21.979c-11.694,8.851-23.433,17.644-35.043,26.604
		c-9.755,7.528-19.329,15.29-29.025,22.895c-12.765,10.011-25.545,20.002-38.367,29.94c-11.467,8.889-22.946,17.763-34.516,26.518
		c-12.818,9.699-25.681,19.34-38.643,28.845c-9.563,7.013-19.187,13.959-29.017,20.588c-12.163,8.202-24.496,16.159-36.888,24.014
		c-15.431,9.78-31.197,19.007-47.698,26.881c-11.448,5.463-22.247,11.985-32.798,18.978c-7.67,5.084-15.419,10.049-23.147,15.045
		c-18.483,11.948-36.986,23.863-55.457,35.829c-13.886,8.996-27.652,18.18-41.623,27.042c-14.769,9.368-30.148,17.687-45.69,25.698
		c-1.382,0.713-2.834,1.374-4.33,1.765c-3.534,0.923-7.152,1.261-10.475-0.627c-6.117-3.475-7.42-11.733-2.586-16.903
		c2.762-2.954,5.763-5.72,8.887-8.291c4.331-3.565,8.856-6.897,13.336-10.277c8.469-6.39,17-12.698,25.437-19.13
		c3.842-2.929,7.782-5.804,11.23-9.163c16.321-15.901,31.961-32.496,48.841-47.831c5.426-4.929,10.722-10,16.079-15.005
		c0.228-0.213,0.473-0.408,0.707-0.614c4.451-3.908,8.948-7.765,13.34-11.739c4.973-4.5,9.85-9.105,14.771-13.662
		c0.343-0.318,0.706-0.615,1.056-0.926c4.896-4.346,9.81-8.673,14.683-13.045c4.062-3.646,8.06-7.363,12.118-11.014
		c3.013-2.711,6.059-5.387,9.121-8.043c3.65-3.167,7.337-6.292,10.997-9.447c2.48-2.137,4.934-4.305,7.413-6.443
		c3.541-3.055,7.079-6.113,10.647-9.137c4.639-3.932,9.318-7.815,13.957-11.747c5.115-4.335,10.18-8.729,15.31-13.044
		c4.534-3.814,9.166-7.512,13.688-11.34c5.236-4.433,10.338-9.025,15.606-13.418c8.383-6.99,16.859-13.869,25.291-20.8
		c5.783-4.754,11.583-9.486,17.329-14.285c5.624-4.696,11.204-9.445,16.772-14.207c3.081-2.635,6.091-5.352,9.15-8.014
		c3.998-3.48,8.049-6.9,12.009-10.423c4.078-3.628,8.062-7.361,12.107-11.026c3.467-3.141,6.94-6.276,10.452-9.367
		c3.979-3.501,8.055-6.893,11.996-10.436c4.755-4.275,9.412-8.66,14.115-12.993c0.459-0.423,0.947-0.813,1.418-1.223
		c4.112-3.586,8.253-7.139,12.324-10.771c4.073-3.633,8.05-7.375,12.117-11.015c4.763-4.263,9.734-8.304,14.338-12.73
		c9.901-9.519,19.506-19.338,28.707-29.541c0.333-0.369,0.412-0.966,0.707-1.7c-0.864,0.048-1.35-0.038-1.744,0.113
		c-9.634,3.699-18.972,8.062-27.966,13.101c-7.756,4.346-15.431,8.859-22.942,13.613c-11.074,7.009-22.027,14.212-32.921,21.498
		c-6.224,4.163-12.24,8.637-18.328,13c-14.714,10.544-29.395,21.135-44.129,31.652c-13.844,9.883-27.69,19.764-41.625,29.518
		c-10.996,7.698-22.106,15.234-33.204,22.786c-11.874,8.079-23.798,16.084-35.688,24.139c-6.332,4.29-12.651,8.599-18.954,12.932
		c-14.663,10.08-29.359,20.113-43.952,30.294c-9.854,6.875-19.629,13.868-29.304,20.992c-10.051,7.401-19.95,15.008-29.893,22.556
		c-4.225,3.207-8.432,6.44-12.574,9.753c-7.794,6.233-15.538,12.529-23.297,18.807c-5.455,4.414-10.918,8.819-16.343,13.268
		c-6.028,4.944-12.004,9.952-18.029,14.899c-6.146,5.046-12.372,9.997-18.478,15.09c-8.021,6.691-15.967,13.473-23.93,20.234
		c-2.734,2.321-5.423,4.695-8.13,7.048c-3.176,2.763-6.303,5.585-9.533,8.284c-6.46,5.399-12.917,10.805-19.483,16.074
		c-8.88,7.125-17.867,14.117-26.793,21.185c-1.125,0.891-2.274,1.649-3.758,1.716c-0.596-6.838-1.098-13.675-1.403-20.54
		c-0.249-5.607-0.714-11.206-0.682-16.826c0.011-1.873,0.09-3.745,0.137-5.618c1.031-0.681,2.169-1.243,3.079-2.059
		c4.06-3.644,8.038-7.379,12.078-11.044c3.232-2.932,6.496-5.83,9.775-8.711c4.448-3.908,8.921-7.788,13.387-11.676
		c3.291-2.865,6.572-5.743,9.886-8.582c5.443-4.664,10.925-9.283,16.362-13.954c5.32-4.571,10.582-9.209,15.909-13.771
		c5.562-4.764,11.177-9.468,16.76-14.207c4.753-4.034,9.489-8.088,14.241-12.124c5.701-4.842,11.414-9.67,17.114-14.513
		c2.732-2.321,5.432-4.68,8.17-6.993c5.357-4.525,10.727-9.035,16.098-13.543c5.013-4.208,10.032-8.411,15.053-12.61
		c4.066-3.399,8.152-6.774,12.197-10.198c0.546-0.462,1.25-1.073,0.256-2.152c-0.728,0.474-1.509,0.926-2.229,1.459
		c-12.032,8.91-24.124,17.742-36.066,26.772c-13.933,10.535-27.757,21.213-41.582,31.889c-9.749,7.529-19.402,15.183-29.134,22.733
		c-10.226,7.933-20.144,16.241-30.164,24.428c-10.985,8.975-22.315,17.531-33.572,26.169c-2.328,1.786-4.995,3.131-7.506,4.679
		c-0.035-1.403-0.156-2.81-0.091-4.209c0.241-5.14,0.458-10.283,0.846-15.413c0.411-5.44,0.964-10.87,1.533-16.297
		c0.666-6.358,1.314-12.72,2.157-19.055c0.761-5.72,1.749-11.41,2.697-17.103c0.203-1.218,0.667-2.393,1.011-3.59
		c1.165-1.037,2.367-2.035,3.49-3.113c8.33-7.994,16.644-16.005,24.967-24.008c0.45-0.433,0.918-0.847,1.39-1.256
		c4.007-3.469,8.007-6.946,12.028-10.399c5.913-5.079,11.805-10.183,17.772-15.198c5.73-4.816,11.54-9.535,17.322-14.29
		c6.143-5.052,12.259-10.137,18.451-15.128c4.858-3.915,9.812-7.71,14.726-11.556c11.423-8.941,22.808-17.933,34.289-26.798
		c5.928-4.577,12.006-8.961,18.06-13.373c9.963-7.26,19.849-14.632,29.97-21.667c15.121-10.51,30.38-20.822,45.652-31.113
		c9.191-6.193,18.512-12.192,27.781-18.269c7.702-5.05,15.401-10.105,23.123-15.125c19.369-12.592,38.732-25.193,58.135-37.731
		c7.209-4.658,14.548-9.113,21.785-13.728c9.211-5.875,18.419-11.757,27.553-17.751c7.432-4.877,14.796-9.861,22.111-14.912
		c8.986-6.205,18.048-12.317,26.786-18.858c9.61-7.192,19.219-14.402,28.247-22.355c5.616-4.948,11.47-9.631,16.657-15.044
		c3.559-3.714,6.989-7.553,10.473-11.338c4.78-5.193,8.906-10.862,12.062-17.178c0.967-1.934,1.623-4.072,2.11-6.188
		c0.826-3.583-0.041-6.723-2.727-9.429c-2.352-2.369-4.896-4.317-8.041-5.496c-1.3-0.487-2.506-1.224-3.755-1.847
		c8.103-0.106,16.21-0.571,24.291,0.535c1.537,0.21,3.121,0.058,4.671,0.201c6.977,0.647,13.951,1.328,20.922,2.037
		c0.595,0.061,1.16,0.419,1.737,0.641c-0.554,0.94-1.029,1.934-1.669,2.808c-12.629,17.258-25.206,34.554-37.938,51.735
		c-14.948,20.173-32.268,38.119-51.852,53.81c-20.951,16.786-41.906,33.575-63.774,49.181
		c-14.484,10.337-28.642,21.139-43.684,30.674c-15.425,9.779-30.742,19.744-46.42,29.102c-27.485,16.406-54.474,33.586-81.375,50.92
		c-20.624,13.29-40.452,27.679-59.608,42.988c-17.677,14.126-35.656,27.902-51.988,43.636c-5.393,5.196-11.071,10.119-15.662,16.086
		c-1.229,1.597-2.338,3.328-3.219,5.136c-0.518,1.064-0.711,2.415-0.636,3.611c0.139,2.232,2.197,3.271,4.071,2.062
		c1.293-0.834,2.453-1.925,3.524-3.042c7.366-7.685,15.428-14.562,23.937-20.944c5.994-4.495,11.952-9.043,17.809-13.714
		c25.92-20.67,53.441-39.015,81.641-56.381c27.262-16.788,55.327-32.158,83.514-47.314c1.372-0.738,2.774-1.433,4.213-2.022
		c0.458-0.187,1.083,0.036,2.187,0.107c-0.819,1.137-1.236,1.964-1.871,2.558c-5.58,5.223-11.172,10.435-16.813,15.594
		c-11.056,10.111-22.484,19.819-33.03,30.485c-2.083,2.107-4.297,4.089-6.52,6.05c-5.736,5.059-11.601,9.975-17.247,15.13
		c-8.299,7.576-16.446,15.318-24.669,22.977c-8.68,8.084-17.268,16.27-26.09,24.197c-8.831,7.934-17.473,16.057-25.676,24.632
		c-2.574,2.691-4.766,5.762-7.01,8.751c-1.028,1.369-1.739,2.963-1.637,4.784c0.11,1.941,1.788,3.182,3.574,2.518
		c0.863-0.321,1.697-0.802,2.436-1.354c1.373-1.027,2.691-2.133,3.991-3.253c15.374-13.253,31.1-26.068,47.227-38.398
		c8.307-6.351,16.421-12.956,24.615-19.454c26.051-20.657,51.968-41.488,78.188-61.927c23.271-18.14,46.958-35.734,72.02-51.386
		c2.908-1.816,5.704-3.833,8.427-5.921c16.351-12.537,32.634-25.163,49.001-37.679c12.274-9.386,24.5-18.845,37.003-27.919
		c14.671-10.648,30.404-19.646,46.069-28.738c8.269-4.799,16.801-8.941,25.903-11.889c1.334-0.432,2.627-0.995,3.935-1.509
		c18.594-7.312,37.146-14.736,55.799-21.893c9.176-3.521,18.535-6.568,27.829-9.775c1.081-0.373,2.249-1.217,3.648-0.044
		c-0.552,1.691-2.039,2.628-3.225,3.796c-10.342,10.187-20.739,20.319-30.983,30.603c-2.403,2.413-4.37,5.282-6.382,8.054
		c-1.29,1.779-2.07,3.856-2.253,6.084c-0.159,1.932,0.197,3.724,1.641,5.176c1.89,1.9,4.209,2.127,6.502,1.262
		c2.02-0.762,3.942-1.883,5.753-3.081c4.687-3.099,9.394-6.185,13.899-9.537c6.758-5.029,13.435-10.176,19.988-15.47
		c5.456-4.407,10.683-9.098,16.011-13.663l0.013,0.014c-0.947,1.238-1.825,2.535-2.852,3.702c-3.197,3.63-6.574,7.107-9.658,10.829
		c-9.488,11.448-19.992,21.886-31.105,31.733c-6.894,6.109-13.768,12.239-20.675,18.334c-7.959,7.024-15.791,14.203-23.947,20.99
		c-17.887,14.884-35.405,30.173-52.465,46c-9.269,8.599-18.697,17.036-28.282,25.28c-13.263,11.407-26.295,23.041-38.667,35.424
		c-12.248,12.259-24.622,24.398-37.142,36.379c-21.695,20.762-44.777,39.833-69.681,56.677
		c-14.873,10.059-29.41,20.597-43.676,31.512c-13.638,10.435-27.433,20.665-41.218,30.906c-10.784,8.012-21.33,16.303-31.314,25.309
		c-6.49,5.855-13.162,11.508-19.738,17.268c-3.64,3.188-7.258,6.402-10.871,9.621c-4.312,3.84-8.678,7.623-12.885,11.575
		c-2.493,2.341-4.767,4.922-7.046,7.478c-0.593,0.665-1.035,1.612-1.169,2.487c-0.1,0.649,0.218,1.615,0.702,2.031
		c0.484,0.417,1.466,0.568,2.119,0.4c0.871-0.224,1.671-0.814,2.438-1.339c3.993-2.734,8.018-5.424,11.933-8.266
		c6.187-4.492,12.48-8.866,18.399-13.692c13.316-10.858,26.739-21.557,40.976-31.2c36.583-24.78,73.048-49.734,109.772-74.303
		c26.024-17.41,50.528-36.67,73.416-58.009c9.935-9.262,19.749-18.655,29.728-27.868c7.798-7.2,15.659-14.34,23.685-21.284
		c11.224-9.711,23.173-18.508,35.115-27.311c18.101-13.344,36.329-26.503,55.359-38.507c11.224-7.08,22.507-14.069,33.784-21.066
		c15.535-9.639,31.455-18.575,48.016-26.351c7.773-3.649,15.454-7.493,23.218-11.16c33.542-15.837,63.845-36.653,92.476-60.048
		c5.189,3.234,10.215,6.679,14.432,11.169c-0.35,0.695-0.653,1.419-1.057,2.082c-5.368,8.806-10.073,17.959-14.507,27.265
		c-2.482,5.209-5.073,10.382-7.915,15.401c-10.786,19.046-24.803,35.551-40.618,50.543c-13.249,12.56-26.788,24.813-40.145,37.26
		c-11.196,10.433-21.878,21.37-31.925,32.923c-9.728,11.186-19.469,22.36-29.255,33.495c-8.141,9.265-16.09,18.679-23.303,28.698
		c-3.465,4.812-6.985,9.586-10.564,14.313c-5.47,7.225-11.584,13.898-17.697,20.577c-5.159,5.638-10.188,11.4-15.14,17.22
		c-2.431,2.858-4.441,6.043-5.443,9.738c-0.978,3.604-0.296,6.826,2.417,9.467c2.599,2.531,5.699,3.017,9.107,1.984
		c1.34-0.406,2.674-1.051,4.036-1.127c3.946-0.221,7.121-1.983,10.146-4.336c16.145-12.562,31.58-25.949,46.731-39.686
		c11.327-10.27,22.82-20.363,34.43-30.312c14.577-12.491,29.114-24.999,42.767-38.529c7.082-7.018,14.712-13.503,22.315-19.97
		c10.22-8.693,20.844-16.914,30.511-26.251c6.398-6.18,12.758-12.399,19.184-18.549c6.313-6.042,12.666-12.042,19.054-18.004
		c1.221-1.14,2.234-2.661,4.105-2.925c0.204,1.539-0.747,2.66-1.437,3.857c-2.104,3.649-4.226,7.289-6.378,10.91
		c-15.148,25.49-30.896,50.608-47.399,75.238c-14.242,21.256-28.658,42.401-43.338,63.356
		c-14.501,20.698-29.241,41.236-44.224,61.589c-16.092,21.86-32.428,43.545-48.954,65.078
		c-15.291,19.923-30.874,39.626-46.52,59.273c-11.952,15.008-24.139,29.831-36.341,44.637
		c-11.308,13.722-22.742,27.342-34.185,40.953c-6.624,7.88-13.335,15.688-20.077,23.468c-6.844,7.898-13.739,15.752-20.692,23.554
		c-1.649,1.85-3.618,3.416-5.44,5.112c-2.725,0.649-5.463,1.248-8.171,1.96c-3.934,1.034-7.87,1.944-11.986,1.815
		c-8.294-0.261-13.321-7.319-10.73-15.259c1.211-3.711,2.591-7.397,5.055-10.498c3.198-4.024,6.243-8.222,9.838-11.868
		c6.459-6.551,13.276-12.748,19.952-19.084c0.451-0.428,0.984-0.769,1.455-1.178c3.766-3.272,7.539-6.536,11.285-9.83
		c3.513-3.089,6.954-6.261,10.505-9.307c5.325-4.568,10.748-9.021,16.074-13.588c5.445-4.669,10.795-9.449,16.235-14.122
		c7.923-6.806,15.95-13.493,23.821-20.359c6.462-5.637,12.826-11.39,19.117-17.218c6.981-6.467,13.819-13.088,20.742-19.617
		c1.586-1.496,3.333-2.825,4.888-4.352c3.784-3.716,7.658-7.359,11.199-11.297c4.272-4.75,8.108-9.891,12.365-14.654
		c7.814-8.744,14.627-18.26,21.706-27.573c0.559-0.735,1-1.583,1.367-2.433c0.476-1.105-0.23-2.366-1.384-2.428
		c-1.077-0.057-2.198-0.048-3.243,0.184c-2.131,0.473-4.239,1.063-6.329,1.696c-8.551,2.592-16.579,6.475-24.552,10.397
		c-7.555,3.716-14.938,7.813-22.218,12.05c-19.98,11.628-39.116,24.576-57.899,38.019c-14.082,10.078-27.824,20.632-41.668,31.04
		c-8.854,6.656-17.601,13.456-26.428,20.149c-14.546,11.031-29.141,21.998-43.673,33.048
		c-15.773,11.994-31.495,24.055-47.243,36.081c-7.686,5.87-15.411,11.69-23.067,17.599c-7.903,6.1-15.703,12.334-23.623,18.413
		c-9.901,7.599-19.863,15.119-29.826,22.636c-13.711,10.345-27.674,20.337-42.369,29.251c-8.005,4.855-16.113,9.542-24.226,14.217
		c-6.759,3.895-13.581,7.682-20.395,11.482c-6.814,3.8-13.593,7.67-20.496,11.3c-7.039,3.702-14.161,7.255-21.34,10.678
		c-6.477,3.089-13.034,6.02-19.637,8.832c-11.393,4.852-23.172,8.388-35.513,9.856c-0.867-1.257-1.655-2.577-2.615-3.758
		c-2.922-3.598-5.906-7.146-8.873-10.708C195.995,866.323,195.084,865.28,194.184,864.227z M271.339,822.13
		c4.657,0.058,8.163-0.795,11.414-2.352c3.79-1.816,7.58-3.722,11.094-6.012c18.176-11.843,36.377-23.655,54.347-35.807
		c13.571-9.178,27.079-18.492,40.13-28.385c20.781-15.75,41.871-31.045,63.424-45.714c15.631-10.639,30.463-22.308,44.751-34.689
		c15.691-13.596,31.698-26.81,48.33-39.249c21.039-15.736,40.736-33.015,59.199-51.688c13.497-13.65,26.813-27.478,40.183-41.254
		c2.064-2.126,4.043-4.343,5.94-6.619c1.089-1.307,2.148-2.72,2.849-4.255c2.064-4.522-0.843-8.63-5.852-8.397
		c-0.924,0.043-1.864,0.224-2.751,0.491c-1.493,0.449-2.983,0.938-4.416,1.548c-16.976,7.229-33.568,15.2-48.651,25.955
		c-9.784,6.976-19.503,14.048-29.114,21.262c-10.359,7.776-20.333,16.081-30.875,23.593c-18.936,13.494-38.155,26.591-57.289,39.807
		c-10.915,7.538-22.07,14.74-32.801,22.528c-14.018,10.174-27.776,20.71-41.538,31.232c-5.326,4.072-10.453,8.42-15.504,12.834
		c-15.394,13.451-30.623,27.092-46.089,40.461c-7.314,6.322-14.848,12.422-22.591,18.209c-10.13,7.57-20.284,15.102-29.85,23.375
		c-5.07,4.385-9.954,8.996-14.76,13.671c-3.369,3.278-6.064,7.131-8.234,11.316c-1.23,2.372-2.139,4.846-2.112,7.589
		c0.046,4.709,2.669,8.453,7.161,9.88C269.197,821.925,270.776,822.031,271.339,822.13z"/>
	<path fill="#222D57" d="M443.873,1054.492c-1.922,0.184-3.684-0.429-5.441-1.08c-5.977-2.216-11.966-4.401-17.922-6.672
		c-0.666-0.254-1.151-0.98-1.72-1.49c4.603-5.323,9.551-10.287,14.878-14.896c13.6-11.764,28.193-22.225,42.724-32.771
		c11.623-8.436,23.404-16.672,34.749-25.47c14.802-11.48,29.14-23.556,43.859-35.145c26.892-21.172,52.524-43.77,77.265-67.405
		c8.466-8.088,17.059-16.045,25.684-23.963c17.264-15.85,35.386-30.68,53.951-44.968c14.228-10.95,28.741-21.529,42.531-33.045
		c11.627-9.71,23.235-19.428,33.259-30.874c7.523-8.59,14.563-17.523,20.571-27.256c8.374-13.567,15.845-27.619,22.932-41.893
		c6.248-12.584,12.634-25.102,19.11-37.571c4.332-8.341,9.578-16.124,15.83-23.148c6.641-7.462,13.281-14.95,20.327-22.022
		c19.083-19.154,36.641-39.683,54.566-59.882c11.294-12.728,22.631-25.419,33.809-38.248c8.408-9.65,16.851-19.288,24.806-29.308
		c7.761-9.776,14.948-20.009,22.339-30.077c10.72-14.602,21.26-29.329,30.852-44.711c2.065-3.312,4.154-6.61,6.214-9.926
		c0.758-1.22,1.52-2.401,3.183-2.409c0.954,2.034,1.907,4.068,2.858,6.097c0.218,0.518,0.439,1.041,0.661,1.564
		c0.757,1.668,1.515,3.336,2.269,4.998c-0.115,1.397,0.517,2.493,1.425,3.477c2.334,5.702,4.668,11.405,7,17.102
		c0.176,0.525,0.354,1.055,0.533,1.585c0.418,1.047,0.836,2.094,1.252,3.136c-0.033,1.646,0.546,3.082,1.537,4.374
		c0.683,2.027,1.474,4.026,2.015,6.09c0.419,1.598,0.526,3.278,0.771,4.924c-1.091,1.315-2.245,2.58-3.262,3.948
		c-6.146,8.27-12.15,16.648-18.411,24.83c-12.998,16.987-26.243,33.775-40.594,49.664c-8.475,9.383-16.773,18.926-25.2,28.353
		c-7.594,8.496-15.326,16.87-22.869,25.412c-8.369,9.478-16.475,19.19-24.903,28.614c-16.866,18.859-33.063,38.271-48.734,58.128
		c-0.959,1.216-1.763,2.563-2.541,3.905c-0.129,0.223,0.251,0.741,0.527,1.467c2.587-2.091,5.039-3.96,7.365-5.975
		c7.316-6.336,14.525-12.795,21.885-19.079c10.343-8.831,21.206-16.964,32.821-24.077c9.852-6.033,19.709-12.062,29.434-18.295
		c4.458-2.857,8.753-6.017,12.866-9.355c10.747-8.721,19.747-19.105,27.602-30.434c6.491-9.362,12.759-18.893,18.762-28.574
		c13.992-22.567,27.388-45.473,37.937-69.918c0.669-1.551,1.702-2.946,2.565-4.413c0.57,1.615,1.218,3.207,1.699,4.848
		c8.679,29.587,14.642,59.715,17.729,90.392c2.599,25.833,2.973,51.72,1.372,77.637c-3.309,53.575-14.98,105.281-34.78,155.149
		c-19.87,50.047-47.074,95.691-82.128,136.634c-12.598,14.714-25.573,29.054-39.579,42.448
		c-17.638,16.868-36.672,32.026-56.503,46.203c-62.961,45.009-132.857,73.176-209.093,85.818
		c-10.462,1.735-21.032,2.818-31.546,4.203c0.501-1.31,1.642-1.794,2.831-2.229c2.785-1.018,5.61-1.941,8.342-3.086
		c24.772-10.376,49.191-21.474,72.829-34.294c30.525-16.555,59.746-35.072,87.343-56.162c19.612-14.988,38.75-30.516,56.129-48.101
		c8.118-8.214,16.3-16.368,24.256-24.737c11.62-12.224,22.565-25.035,32.501-38.682c0.886-1.216,1.656-2.516,2.48-3.778
		c-1.404,0.215-2.422,0.805-3.312,1.549c-5.861,4.9-11.667,9.865-17.543,14.747c-7.321,6.083-14.758,12.028-22.025,18.173
		c-8.94,7.56-17.893,15.089-27.345,22.018c-7.172,5.258-14.218,10.695-21.207,16.196c-5.516,4.342-10.871,8.89-16.277,13.37
		c-9.01,7.467-18.012,14.943-26.998,22.437c-2.875,2.397-5.676,4.883-8.542,7.29c-0.675,0.567-1.4,1.356-2.674,0.321
		c0.184-0.581,0.266-1.352,0.642-1.934c1.609-2.489,3.139-5.057,5.001-7.35c4.817-5.935,9.571-11.947,14.766-17.541
		c5.943-6.399,12.347-12.369,18.519-18.557c1.082-1.085,2.008-2.324,3.007-3.493l0-0.001c3.093-1.508,5.379-3.902,7.315-6.678
		c1.314-1.191,2.628-2.381,3.942-3.572c1.486-0.389,2.481-1.316,3.012-2.75c0.822-0.742,1.645-1.484,2.467-2.226
		c3.092-1.816,7.182-5.648,9.657-9.048c1.161-1.035,2.322-2.07,3.483-3.105c2.19-0.856,3.757-2.406,4.916-4.411
		c1.172-1.029,2.343-2.059,3.515-3.088c2.557-1.116,4.465-2.962,5.951-5.284c0.828-0.723,1.657-1.446,2.485-2.169
		c2.936-1.383,5.191-3.518,6.902-6.253c1.142-1.02,2.285-2.04,3.427-3.06c0.919-0.552,1.923-1.002,2.745-1.673
		c7.01-5.726,13.906-11.594,20.994-17.222c12.261-9.736,23.682-20.357,33.95-32.164c10.349-11.901,20.195-24.214,29.46-36.99
		c3.223-4.445,6.036-9.083,8.363-14.055c3.837-8.2,7.835-16.325,11.715-24.505c1.873-3.949,3.643-7.947,5.435-11.933
		c0.303-0.674,0.711-1.419-0.309-2.246c-0.575,0.319-1.272,0.627-1.881,1.058c-2.166,1.533-4.307,3.102-6.45,4.668
		c-14.493,10.594-29.031,21.126-43.447,31.825c-4.125,3.062-7.982,6.507-11.803,9.952c-5.448,4.912-10.736,10.001-16.118,14.987
		c-14.314,13.262-28.71,26.437-42.947,39.781c-14.94,14.003-28.734,29.088-41.851,44.81c-9.507,11.394-19.53,22.304-30.597,32.245
		c-13.735,12.338-28.057,23.895-43.823,33.54c-11.051,6.76-22.234,13.31-33.451,19.792c-19.19,11.089-38.817,21.401-57.518,33.361
		c-17.357,11.101-35.033,21.708-52.66,32.383c-16.897,10.232-32.505,22.126-46.909,35.62c-0.904,0.847-1.68,1.83-2.516,2.749
		c-4.875,0.546-9.687-0.029-14.485-0.822c1.263-1.575,2.409-3.262,3.806-4.707c6.938-7.176,13.963-14.266,20.917-21.427
		c9.925-10.219,20.878-19.201,32.573-27.308c15.251-10.572,30.437-21.24,45.732-31.747c10.666-7.327,21.332-14.672,32.245-21.621
		c15.916-10.133,32.037-19.946,48.103-29.843c16.497-10.161,32.314-21.247,46.784-34.174c5.577-4.983,11.155-9.972,15.933-15.766
		c-0.001-0.001,0.063,0.057,0.063,0.057c-1.906-0.22-3.192,1.057-4.634,1.936c-7.587,4.629-15.15,9.297-22.756,13.895
		c-3.87,2.34-7.871,4.465-11.711,6.852c-11.656,7.244-23.286,14.53-34.883,21.869c-12.927,8.18-25.426,16.98-37.258,26.679
		c-9.782,8.018-19.764,15.739-30.583,22.322c-5.995,3.648-12.02,7.248-18.037,10.86c-7.234,4.343-14.784,8.057-22.554,11.338
		c-10.792,4.557-21.93,8.125-33.074,11.684c-1.612,0.515-3.149,1.267-4.72,1.91c-2.207,0.766-4.434,1.478-6.617,2.306
		c-15.18,5.757-30.417,11.328-46.37,14.639c-1.066,0.221-2.098,0.603-3.146,0.911c-2.774,0.218-5.545,0.475-8.323,0.618
		c-0.488,0.025-1-0.427-1.562-0.688c0.603-1.601,1.854-1.959,2.933-2.478c6.154-2.959,12.259-6.033,18.499-8.8
		c11.065-4.906,22.222-9.607,33.323-14.433c1.401-0.609,2.699-1.458,4.044-2.195c1.856-0.814,3.779-1.505,5.557-2.463
		c8.657-4.664,17.276-9.399,25.908-14.109c2.321-0.5,4.383-1.494,6.065-3.203c3.914-2.046,7.828-4.092,11.742-6.139
		c0.775-0.447,1.55-0.893,2.326-1.34c1.408-0.815,2.817-1.63,4.225-2.445c0.993-0.058,1.755-0.49,2.234-1.38
		c3.32-2.018,6.639-4.037,9.959-6.055c0.76-0.465,1.52-0.931,2.28-1.396c0.801-0.467,1.603-0.934,2.404-1.402
		c1.007-0.073,1.777-0.521,2.253-1.431c6.492-3.647,12.493-8.01,18.373-12.553c0.714-0.524,1.427-1.047,2.141-1.571
		c5.221-3.848,10.443-7.696,15.665-11.544c0.714-0.523,1.428-1.045,2.143-1.568c2.405-1.673,4.809-3.347,7.214-5.02
		c0.731-0.504,1.461-1.007,2.192-1.511c0.248-0.058,0.453-0.185,0.617-0.379c0.738-0.494,1.475-0.988,2.213-1.482
		c4.256-2.635,8.512-5.271,12.768-7.906c1.014-0.073,1.777-0.537,2.249-1.451c0.803-0.482,1.606-0.963,2.409-1.445
		c1.015-0.037,1.756-0.499,2.202-1.419c1.155-0.71,2.311-1.419,3.466-2.129c1.104,0.018,1.875-0.503,2.37-1.468
		c0.209-0.011,0.37-0.104,0.484-0.279c1.277-0.531,2.628-0.933,3.819-1.615c11.921-6.819,23.82-13.678,35.713-20.546
		c0.939-0.542,1.854-1.159,2.68-1.86c3.328-2.824,6.597-5.72,9.925-8.544c10.835-9.197,22.072-17.884,33.662-26.1
		c8.287-5.874,16.353-11.976,23.757-18.968c7.051-6.658,13.816-13.55,19.708-21.263c8.717-11.411,17.456-22.804,26.097-34.272
		c9.301-12.344,18.689-24.612,29.125-36.036c12.736-13.942,25.475-27.88,38.226-41.808c6.434-7.027,12.407-14.422,18.25-21.951
		c14.526-18.714,26.334-39.052,36.721-60.27c0.447-0.913,0.704-1.919,1.265-3.48c-1.429,0.388-2.32,0.505-3.103,0.862
		c-5.396,2.46-10.818,4.872-16.141,7.484c-13.896,6.818-27.329,14.419-39.644,23.875c-11.271,8.654-22.239,17.68-32.742,27.246
		c-13.73,12.506-27.267,25.222-40.955,37.775c-8.051,7.383-16.188,14.673-24.367,21.914c-9.573,8.477-19.815,16.22-28.279,25.908
		c-0.307,0.351-0.671,0.653-1.014,0.971c-8.008,7.431-16.01,14.87-24.03,22.289c-5.384,4.981-10.665,10.083-16.221,14.864
		c-7.806,6.716-15.799,13.217-23.76,19.752c-14.478,11.885-29.09,23.599-44.749,33.928c-12.768,8.422-25.59,16.763-38.294,25.281
		c-6.218,4.169-12.35,8.49-18.301,13.03c-21.466,16.377-42.74,33.006-64.268,49.299c-35.342,26.747-70.525,53.716-107.334,78.461
		c-12.954,8.708-25.822,17.541-39.311,25.421C446.087,1052.77,445.008,1053.68,443.873,1054.492z"/>
	<path fill="#8F9CBA" d="M111.864,630.991c1.484-0.067,2.633-0.824,3.758-1.716c8.926-7.068,17.913-14.06,26.793-21.185
		c6.566-5.269,13.023-10.675,19.483-16.074c3.23-2.699,6.356-5.521,9.533-8.284c2.706-2.354,5.396-4.727,8.13-7.048
		c7.963-6.761,15.909-13.543,23.93-20.234c6.106-5.094,12.332-10.044,18.478-15.09c6.025-4.947,12.001-9.956,18.029-14.899
		c5.426-4.45,10.888-8.854,16.343-13.268c7.759-6.278,15.503-12.574,23.297-18.807c4.142-3.313,8.349-6.545,12.574-9.753
		c9.942-7.548,19.842-15.155,29.893-22.556c9.675-7.124,19.45-14.117,29.304-20.992c14.593-10.181,29.289-20.214,43.952-30.294
		c6.303-4.333,12.622-8.642,18.954-12.932c11.89-8.055,23.815-16.059,35.688-24.139c11.098-7.552,22.208-15.088,33.204-22.786
		c13.934-9.755,27.781-19.636,41.625-29.518c14.733-10.518,29.414-21.108,44.129-31.652c6.089-4.363,12.105-8.838,18.328-13
		c10.894-7.286,21.847-14.49,32.921-21.498c7.512-4.754,15.186-9.267,22.942-13.613c8.994-5.039,18.332-9.402,27.966-13.101
		c0.394-0.151,0.88-0.065,1.744-0.113c-0.295,0.734-0.374,1.332-0.707,1.7c-9.202,10.203-18.807,20.022-28.707,29.541
		c-4.604,4.426-9.575,8.467-14.338,12.73c-4.067,3.64-8.044,7.382-12.117,11.015c-4.071,3.632-8.213,7.185-12.324,10.771
		c-0.47,0.41-0.959,0.801-1.418,1.223c-4.703,4.333-9.36,8.718-14.115,12.993c-3.941,3.543-8.017,6.935-11.996,10.436
		c-3.512,3.091-6.984,6.226-10.452,9.367c-4.045,3.665-8.03,7.398-12.107,11.026c-3.96,3.523-8.011,6.943-12.009,10.423
		c-3.058,2.662-6.068,5.379-9.15,8.014c-5.569,4.761-11.149,9.511-16.772,14.207c-5.746,4.798-11.546,9.531-17.329,14.285
		c-8.432,6.931-16.907,13.81-25.291,20.8c-5.269,4.393-10.37,8.985-15.606,13.418c-4.522,3.828-9.153,7.526-13.688,11.34
		c-5.131,4.316-10.196,8.71-15.31,13.044c-4.639,3.932-9.318,7.816-13.957,11.747c-3.568,3.024-7.106,6.082-10.647,9.137
		c-2.479,2.138-4.933,4.305-7.413,6.443c-3.66,3.155-7.348,6.279-10.997,9.447c-3.061,2.657-6.108,5.332-9.121,8.043
		c-4.057,3.651-8.055,7.369-12.118,11.014c-4.873,4.373-9.786,8.699-14.683,13.045c-0.35,0.311-0.713,0.608-1.056,0.926
		c-4.921,4.557-9.798,9.162-14.771,13.662c-4.392,3.974-8.889,7.831-13.34,11.739c-0.235,0.206-0.479,0.401-0.707,0.614
		c-5.357,5.004-10.654,10.076-16.079,15.005c-16.88,15.334-32.52,31.93-48.841,47.831c-3.448,3.359-7.388,6.234-11.23,9.163
		c-8.437,6.432-16.968,12.741-25.437,19.13c-4.481,3.38-9.005,6.712-13.336,10.277c-3.123,2.571-6.125,5.337-8.887,8.291
		c-4.834,5.17-3.531,13.429,2.586,16.903c3.323,1.888,6.941,1.55,10.475,0.627c1.496-0.391,2.948-1.052,4.33-1.765
		c15.542-8.011,30.921-16.329,45.69-25.698c13.971-8.862,27.737-18.046,41.623-27.042c18.471-11.966,36.975-23.881,55.457-35.829
		c7.728-4.996,15.477-9.961,23.147-15.045c10.551-6.993,21.349-13.514,32.798-18.978c16.501-7.875,32.268-17.101,47.698-26.881
		c12.392-7.854,24.725-15.812,36.888-24.014c9.831-6.629,19.454-13.575,29.017-20.588c12.962-9.505,25.826-19.146,38.643-28.845
		c11.569-8.755,23.049-17.629,34.516-26.518c12.821-9.938,25.602-19.93,38.367-29.94c9.696-7.605,19.271-15.366,29.025-22.895
		c11.61-8.96,23.349-17.753,35.043-26.604c9.705-7.345,19.379-14.732,29.157-21.979c6.268-4.645,12.698-9.07,19.056-13.593
		c9.42-6.702,19.211-12.836,29.269-18.511c9.931-5.603,20.178-10.595,31.204-13.761c1.194-0.343,2.416-0.68,3.646-0.786
		c2.073-0.18,3.402,0.867,3.419,2.916c0.015,1.841-0.205,3.745-0.694,5.519c-1.464,5.31-4.058,10.124-6.933,14.789
		c-6.235,10.117-13.361,19.582-21.103,28.584c-4.269,4.963-8.678,9.806-12.935,14.778c-9.968,11.642-21.273,21.976-32.066,32.808
		c-5.723,5.744-11.713,11.225-17.665,16.735c-6.751,6.249-13.538,12.463-20.418,18.568c-6.063,5.379-12.248,10.621-18.43,15.865
		c-8.323,7.06-16.668,14.096-25.054,21.081c-5.392,4.491-10.864,8.886-16.323,13.296c-7.4,5.978-14.813,11.94-22.238,17.886
		c-6.574,5.265-13.153,10.525-19.766,15.74c-8.451,6.665-16.891,13.344-25.425,19.902c-7.919,6.086-15.923,12.061-23.945,18.011
		c-12.783,9.483-25.559,18.978-38.433,28.336c-14.643,10.643-29.403,21.123-44.087,31.709c-9.873,7.118-19.691,14.312-29.554,21.444
		c-10.496,7.589-21.063,15.081-31.513,22.733c-11.584,8.482-23.101,17.055-34.591,25.665c-9.738,7.297-19.478,14.596-29.063,22.091
		c-7.859,6.146-15.487,12.588-23.228,18.885c-3.629,2.952-7.325,5.824-10.918,8.82c-5.508,4.591-10.953,9.259-16.427,13.891
		c-0.952,0.805-1.937,1.573-2.877,2.391c-5.997,5.22-11.98,10.456-17.979,15.674c-12.382,10.771-23.775,22.568-35.131,34.375
		c-9.625,10.007-18.557,20.664-26.287,32.242c-7.468,11.187-14.091,22.866-19.043,35.397c-2.23,5.643-4.787,11.217-5.712,17.309
		c-1.718-0.95-2.635-2.608-3.585-4.193c-4.859-8.109-9.823-16.16-14.455-24.397c-4.024-7.157-7.683-14.521-11.437-21.828
		c-0.843-1.641-1.41-3.425-2.104-5.142c2.439-1.571,3.765-4.122,5.414-6.349c7.862-10.622,15.268-21.584,23.672-31.805
		c0.464-0.565,0.598-1.4,0.886-2.11c1.018-1.16,1.961-2.398,3.066-3.468c5.566-5.392,11.164-10.752,16.774-16.098
		c2.69-2.564,5.433-5.072,8.153-7.606c1.319,0.135,2.444-0.321,3.474-1.106c1.24-0.945,2.527-1.831,3.738-2.813
		c7.262-5.888,14.449-11.872,21.777-17.677c7.208-5.71,14.557-11.242,21.84-16.857c7.408-5.711,14.802-11.438,21.396-18.111
		c0.765-0.774,1.662-1.415,2.449-2.169c4.952-4.745,9.895-9.499,14.825-14.266c0.443-0.429,0.82-0.946,1.144-1.474
		c0.852-1.388,1.365-2.844,0.386-4.386c-0.712-1.121-0.719-2.284-0.634-3.579c0.133-2.031-1.072-2.884-2.924-2.166
		c-1.301,0.504-2.578,1.135-3.753,1.885c-2.892,1.846-5.75,3.75-8.566,5.71c-8.96,6.233-17.823,12.61-26.859,18.729
		c-9.681,6.557-19.531,12.864-29.282,19.319c-11.83,7.832-23.62,15.724-35.45,23.555c-17.184,11.375-33.31,24.155-49.3,37.112
		c-2.895,2.346-5.533,5.01-8.289,7.527c-1.242-2.849-2.658-5.637-3.697-8.558c-8.65-24.311-15.217-49.195-20.114-74.516
		c-2.221-11.484-3.939-23.057-5.208-34.69C112.866,639.969,112.362,635.481,111.864,630.991z"/>
	<path fill="#222D57" d="M902.1,176.348c-28.631,23.395-58.935,44.211-92.477,60.048c-7.765,3.666-15.446,7.511-23.218,11.16
		c-16.561,7.775-32.481,16.712-48.016,26.351c-11.277,6.997-22.559,13.985-33.784,21.066c-19.03,12.004-37.257,25.163-55.359,38.507
		c-11.942,8.803-23.891,17.6-35.115,27.311c-8.026,6.944-15.887,14.084-23.685,21.284c-9.979,9.214-19.793,18.606-29.728,27.868
		c-22.888,21.339-47.392,40.599-73.416,58.009c-36.724,24.568-73.19,49.523-109.772,74.303c-14.237,9.643-27.66,20.343-40.976,31.2
		c-5.92,4.827-12.212,9.201-18.399,13.692c-3.915,2.842-7.94,5.532-11.933,8.266c-0.767,0.525-1.567,1.116-2.438,1.339
		c-0.652,0.168-1.635,0.017-2.119-0.4c-0.483-0.417-0.801-1.382-0.702-2.031c0.134-0.875,0.577-1.823,1.169-2.487
		c2.279-2.557,4.553-5.137,7.046-7.478c4.208-3.951,8.574-7.735,12.885-11.575c3.614-3.218,7.231-6.432,10.871-9.621
		c6.576-5.76,13.248-11.413,19.738-17.268c9.983-9.006,20.529-17.297,31.314-25.309c13.785-10.241,27.58-20.472,41.218-30.906
		c14.266-10.916,28.803-21.453,43.676-31.512c24.905-16.844,47.986-35.915,69.681-56.677c12.52-11.981,24.894-24.12,37.142-36.379
		c12.372-12.383,25.404-24.018,38.667-35.424c9.585-8.244,19.014-16.682,28.282-25.28c17.06-15.827,34.579-31.116,52.465-46
		c8.157-6.787,15.988-13.966,23.947-20.99c6.906-6.095,13.781-12.225,20.675-18.334c11.113-9.848,21.617-20.286,31.105-31.733
		c3.084-3.721,6.462-7.199,9.658-10.829c1.027-1.167,1.906-2.464,2.851-3.702c-0.001,0,0.147-0.156,0.147-0.156l-0.159,0.142
		c-5.328,4.565-10.556,9.256-16.011,13.663c-6.553,5.294-13.229,10.441-19.988,15.47c-4.505,3.352-9.212,6.438-13.899,9.537
		c-1.811,1.197-3.733,2.319-5.753,3.081c-2.294,0.865-4.612,0.638-6.502-1.262c-1.444-1.452-1.8-3.243-1.641-5.176
		c0.183-2.228,0.963-4.306,2.253-6.084c2.011-2.773,3.978-5.642,6.382-8.054c10.244-10.284,20.642-20.416,30.983-30.603
		c1.186-1.169,2.673-2.105,3.225-3.796c-1.399-1.173-2.567-0.329-3.648,0.044c-9.295,3.207-18.653,6.254-27.829,9.775
		c-18.654,7.157-37.205,14.581-55.799,21.893c-1.307,0.514-2.6,1.077-3.935,1.509c-9.102,2.948-17.634,7.09-25.903,11.889
		c-15.665,9.092-31.398,18.09-46.069,28.738c-12.503,9.074-24.729,18.533-37.003,27.919c-16.367,12.516-32.65,25.141-49.001,37.679
		c-2.723,2.088-5.519,4.104-8.427,5.921c-25.062,15.652-48.749,33.246-72.02,51.386c-26.221,20.44-52.137,41.27-78.188,61.927
		c-8.195,6.498-16.308,13.103-24.615,19.454c-16.127,12.33-31.853,25.145-47.227,38.398c-1.3,1.121-2.618,2.226-3.991,3.253
		c-0.739,0.553-1.573,1.034-2.436,1.354c-1.785,0.664-3.464-0.577-3.574-2.518c-0.103-1.821,0.608-3.414,1.637-4.784
		c2.245-2.989,4.436-6.059,7.01-8.751c8.202-8.575,16.845-16.698,25.676-24.632c8.822-7.926,17.41-16.113,26.09-24.197
		c8.223-7.659,16.371-15.401,24.669-22.977c5.647-5.155,11.512-10.071,17.247-15.13c2.223-1.961,4.438-3.943,6.52-6.05
		c10.546-10.666,21.974-20.374,33.03-30.485c5.64-5.158,11.232-10.37,16.813-15.594c0.635-0.594,1.052-1.422,1.871-2.558
		c-1.104-0.071-1.729-0.294-2.187-0.107c-1.44,0.589-2.841,1.285-4.213,2.022c-28.187,15.155-56.253,30.525-83.514,47.314
		c-28.199,17.366-55.72,35.711-81.641,56.381c-5.857,4.671-11.815,9.219-17.809,13.714c-8.509,6.382-16.571,13.259-23.937,20.944
		c-1.071,1.118-2.232,2.208-3.524,3.042c-1.874,1.209-3.932,0.17-4.071-2.062c-0.075-1.196,0.118-2.547,0.636-3.611
		c0.88-1.808,1.99-3.539,3.219-5.136c4.591-5.967,10.269-10.89,15.662-16.086c16.331-15.734,34.31-29.51,51.988-43.636
		c19.157-15.308,38.984-29.698,59.608-42.988c26.9-17.334,53.889-34.514,81.375-50.92c15.678-9.358,30.995-19.323,46.42-29.102
		c15.042-9.536,29.2-20.338,43.684-30.674c21.868-15.606,42.822-32.395,63.774-49.181c19.584-15.691,36.904-33.637,51.852-53.81
		c12.732-17.182,25.31-34.477,37.938-51.735c0.64-0.874,1.115-1.868,1.669-2.808c2.792,0.159,5.611,0.111,8.366,0.51
		c33.745,4.891,66.694,13.01,98.712,24.767c17.411,6.393,34.582,13.379,51.163,21.74c0.134,0.067,0.304,0.062,0.458,0.091
		c5.721,3.417,11.445,6.829,17.16,10.253c1.169,0.7,2.364,0.622,3.593,0.235c1.02,0.698,1.991,1.48,3.064,2.081
		c13.757,7.704,27.12,16.039,40.068,25.034C895.991,171.527,899.005,173.995,902.1,176.348z M434.127,322.129l0.265,0.178
		l0.04-0.272L434.127,322.129z"/>
	<path fill="#C1C8DC" d="M849.668,142.196c-1.227,0.386-2.423,0.465-3.592-0.235c-5.715-3.424-11.439-6.836-17.16-10.253
		c0.873-1.892,2.245-3.34,3.912-4.565c6.531-4.799,12.956-9.748,19.58-14.415c18.75-13.213,37.794-25.981,57.748-37.333
		c13.59-7.732,27.682-14.373,42.511-19.397c7.709-2.612,15.595-4.536,23.672-5.451c6.672-0.756,13.38-0.853,20.033,0.532
		c11.074,2.306,19.251,8.481,24.693,18.344c3.29,5.963,4.886,12.429,5.862,19.123c1.669,11.442,0.326,22.737-1.632,33.966
		c-3.282,18.823-9.036,36.94-16.081,54.679c-8.357,21.043-17.884,41.546-28.048,61.765c-0.897,1.784-1.494,3.719-2.229,5.584
		c-1.253,0.7-1.84,1.863-2.204,3.18c-0.235,0.192-0.561,0.336-0.692,0.584c-3.591,6.752-7.096,13.551-10.752,20.268
		c-8.581,15.771-17.305,31.463-26.778,46.724c-0.561,0.903-0.879,1.957-1.31,2.941c-0.102,0.208-0.223,0.406-0.361,0.592
		c-1.585,0.864-2.329,2.262-2.538,3.999c-0.098,0.228-0.217,0.445-0.356,0.651c-0.36,0.269-0.843,0.463-1.062,0.819
		c-2.876,4.694-5.723,9.405-8.545,14.131c-0.219,0.366-0.192,0.879-0.28,1.323c-0.096,0.22-0.211,0.429-0.345,0.628
		c-1.564,0.888-2.29,2.296-2.502,4.025c-0.098,0.223-0.216,0.435-0.353,0.636c-2.264,1.779-3.566,4.156-4.288,6.894
		c-0.097,0.219-0.214,0.427-0.35,0.624c-1.578,0.871-2.308,2.276-2.521,4.006c-0.102,0.225-0.224,0.439-0.366,0.642
		c-1.009,0.401-1.466,1.156-1.433,2.227c-0.101,0.22-0.221,0.429-0.359,0.629c-1.576,0.866-2.322,2.259-2.532,3.992
		c-0.103,0.227-0.227,0.442-0.372,0.645c-1.015,0.393-1.464,1.153-1.44,2.22c-0.102,0.218-0.221,0.426-0.358,0.624
		c-2.281,1.755-3.602,4.12-4.355,6.846c-0.102,0.222-0.223,0.432-0.364,0.631c-1.017,0.393-1.479,1.148-1.454,2.223
		c-0.1,0.219-0.22,0.426-0.358,0.623c-2.305,1.73-3.615,4.101-4.393,6.815c-0.106,0.225-0.23,0.439-0.374,0.642
		c-1.019,0.384-1.485,1.134-1.458,2.209c-0.102,0.219-0.223,0.426-0.365,0.621c-2.562,2.514-4.7,5.712-6.368,9.526
		c-0.036,0.264-0.129,0.506-0.28,0.726c-0.706,0.795-1.519,1.519-2.093,2.4c-1.019,1.565-1.801,3.286-2.843,4.834
		c-12.456,18.516-24.736,37.155-37.478,55.473c-12.653,18.19-25.626,36.163-38.743,54.023
		c-12.746,17.355-25.733,34.537-38.836,51.625c-11.584,15.106-23.41,30.028-35.246,44.939
		c-10.283,12.955-20.731,25.779-31.101,38.665c-0.77,0.956-1.779,1.807-1.604,3.237c-0.998,1.155-1.997,2.31-2.995,3.465
		c-1.204,0.218-1.774,0.931-1.686,2.158c-0.109,0.197-0.235,0.381-0.378,0.554c-0.858,0.615-1.888,1.085-2.549,1.867
		c-6.746,7.991-13.388,16.07-20.146,24.05c-8.574,10.124-17.229,20.18-25.85,30.264c-5.375,6.288-10.752,12.574-16.127,18.862
		c-0.682,0.63-1.433,1.2-2.036,1.899c-3.954,4.581-7.907,9.163-11.782,13.811c-0.762,0.914-1.178,2.115-1.754,3.184
		c-2.368,2.245-4.894,4.346-7.077,6.759c-10.766,11.899-21.441,23.881-32.147,35.834c-4.885,5.454-9.767,10.912-14.65,16.368
		c-0.639,0.419-1.479,0.698-1.887,1.28c-5.313,7.58-12.274,13.69-18.418,20.518c-9.171,10.193-18.93,19.858-28.44,29.746
		c-1.081,1.124-2.213,2.203-3.246,3.369c-7.449,8.405-15.232,16.473-23.752,23.813c-1.175,1.012-2.183,2.221-3.241,3.364
		c-1.376,1.487-2.65,3.074-4.096,4.487c-6.578,6.428-13.269,12.741-19.785,19.231c-4.857,4.838-9.393,9.999-14.275,14.81
		c-9.994,9.847-20.126,19.555-30.202,29.319c-0.224,0.217-0.456,0.426-0.686,0.636c-6.439,5.888-12.889,11.762-19.313,17.666
		c-5.049,4.64-10.003,9.384-15.112,13.957c-6.5,5.817-13.129,11.49-19.658,17.275c-0.793,0.703-1.316,1.711-1.964,2.578
		c-2.954,1.241-5.013,3.674-7.385,5.661c-10.045,8.415-19.972,16.971-29.994,25.414c-15.641,13.176-31.805,25.688-48.29,37.787
		c-18.383,13.492-37.231,26.299-56.976,37.72c-14.198,8.213-28.813,15.63-44.239,21.325c-9.112,3.363-18.457,5.876-28.116,6.953
		c-5.742,0.64-11.516,0.597-17.252-0.531c-14.215-2.795-23.824-11.003-28.98-24.474c-2.018-5.272-3.063-10.748-3.74-16.373
		c-1.117-9.275-0.04-18.385,1.367-27.477c2.517-16.265,7.348-31.916,13.05-47.315c6.563-17.723,14.122-35.016,22.159-52.12
		c6.112-13.008,12.71-25.757,19.721-38.284c9.984-17.838,20.114-35.6,30.488-53.213c5.143-8.732,10.971-17.061,16.491-25.572
		c0.901,1.053,1.812,2.096,2.699,3.16c2.967,3.561,5.951,7.109,8.873,10.708c0.959,1.182,1.748,2.502,2.613,3.759
		c-0.121,0.365-0.24,0.729-0.359,1.094c-0.89,1.276-1.881,2.494-2.651,3.839c-1.706,2.98-3.235,6.061-4.953,9.034
		c-9.999,17.306-19.589,34.838-28.712,52.617c-5.843,11.388-11.389,22.931-16.939,34.467c-9.21,19.141-17.838,38.529-24.801,58.629
		c-6.248,18.039-11.613,36.27-13.327,55.398c-0.563,6.282-0.404,12.504,1.435,18.554c2.095,6.889,6.9,10.672,14.014,11.149
		c5.627,0.377,11.2,0.063,16.74-1.283c9.918-2.41,19.319-6.14,28.534-10.451c15.595-7.295,30.325-16.101,44.75-25.444
		c17.178-11.126,33.735-23.133,49.903-35.666c12.087-9.37,24.014-18.948,35.895-28.579c7.879-6.386,15.569-13.006,23.293-19.582
		c1.167-0.993,2.054-2.314,3.065-3.482c1.297-0.83,2.731-1.509,3.882-2.514c7.642-6.673,15.339-13.29,22.8-20.163
		c12.17-11.211,24.172-22.605,36.248-33.918c1.367-1.28,2.78-2.512,4.125-3.815c2.465-2.388,4.896-4.811,7.341-7.22
		c2.588-2.458,5.231-4.862,7.756-7.383c17.523-17.503,35.046-35.007,52.509-52.57c3.728-3.75,7.225-7.731,10.799-11.632
		c0.407-0.444,0.62-1.065,0.924-1.603c6.051-4.711,11.025-10.524,16.323-16.003c0.398-0.411,0.513-1.095,0.76-1.653
		c2.379-2.214,4.875-4.317,7.115-6.663c5.671-5.941,11.234-11.985,16.826-18.002c2.743-2.951,5.46-5.927,8.174-8.906
		c0.497-0.545,1.168-1.068,0.725-1.976l-0.199,0.03c0.424-0.004,0.848-0.008,1.272-0.012c0.803-0.678,1.692-1.278,2.39-2.05
		c1.137-1.259,2.102-2.672,3.223-3.947c4.594-5.228,9.22-10.429,13.834-15.64c5.093-5.775,10.201-11.537,15.265-17.337
		c0.904-1.036,1.627-2.23,2.434-3.351c1.822-1.696,3.791-3.262,5.44-5.112c6.953-7.802,13.848-15.656,20.692-23.554
		c6.742-7.78,13.453-15.588,20.077-23.468c11.442-13.612,22.876-27.231,34.185-40.953c12.202-14.807,24.389-29.629,36.341-44.637
		c15.646-19.647,31.229-39.349,46.52-59.273c16.527-21.533,32.862-43.218,48.954-65.078c14.982-20.353,29.723-40.89,44.224-61.589
		c14.681-20.955,29.096-42.1,43.338-63.356c16.503-24.63,32.251-49.749,47.399-75.238c2.152-3.621,4.274-7.26,6.378-10.91
		c0.69-1.197,1.641-2.318,1.437-3.856c1.442-2.029,3.068-3.954,4.298-6.105c10.289-18.004,20.117-36.258,29.391-54.807
		c0.682-1.363,0.988-2.914,1.47-4.377c0.633-0.872,1.419-1.67,1.874-2.626c4.296-9.013,8.649-18.002,12.767-27.097
		c6.374-14.079,11.966-28.478,17.067-43.066c3.866-11.055,7.275-22.243,9.74-33.703c1.912-8.891,2.737-17.868,2.327-26.967
		c-0.142-3.16-0.743-6.183-1.805-9.139c-1.754-4.88-5.067-8.142-10.032-9.693c-4.08-1.274-8.209-1.634-12.478-1.053
		c-9.839,1.34-19.075,4.637-28.167,8.429c-9.519,3.97-18.728,8.592-27.615,13.804c-9.686,5.681-19.322,11.463-28.779,17.515
		c-14.465,9.258-28.088,19.715-41.757,30.094C851.206,140.655,850.465,141.461,849.668,142.196z"/>
	<path fill="#8F9CBA" d="M618.596,81.185c1.249,0.623,2.455,1.36,3.755,1.847c3.144,1.179,5.688,3.127,8.041,5.496
		c2.686,2.706,3.553,5.846,2.727,9.429c-0.488,2.116-1.143,4.253-2.11,6.188c-3.157,6.316-7.282,11.985-12.062,17.178
		c-3.485,3.786-6.914,7.624-10.473,11.338c-5.188,5.413-11.041,10.097-16.657,15.044c-9.028,7.953-18.637,15.163-28.247,22.355
		c-8.739,6.54-17.8,12.653-26.786,18.858c-7.315,5.051-14.679,10.035-22.111,14.912c-9.134,5.994-18.341,11.877-27.553,17.751
		c-7.237,4.615-14.576,9.07-21.785,13.728c-19.404,12.538-38.766,25.139-58.135,37.731c-7.722,5.02-15.42,10.075-23.123,15.125
		c-9.269,6.077-18.591,12.076-27.781,18.269c-15.271,10.291-30.531,20.603-45.652,31.113c-10.121,7.035-20.007,14.407-29.97,21.667
		c-6.054,4.412-12.132,8.796-18.06,13.373c-11.482,8.865-22.866,17.857-34.289,26.798c-4.914,3.846-9.868,7.641-14.726,11.556
		c-6.192,4.991-12.308,10.076-18.451,15.128c-5.781,4.754-11.592,9.474-17.322,14.29c-5.967,5.015-11.859,10.119-17.772,15.198
		c-4.02,3.453-8.021,6.93-12.028,10.399c-0.472,0.409-0.94,0.823-1.39,1.256c-8.322,8.003-16.636,16.014-24.967,24.008
		c-1.124,1.078-2.325,2.076-3.49,3.113c-0.034-4.884,1.393-9.537,2.378-14.246c2.806-13.421,6.27-26.683,10.199-39.817
		c0.888-2.969,2.172-5.82,3.275-8.727c1.166-0.758,2.454-1.376,3.475-2.293c4.406-3.959,8.718-8.022,13.095-12.013
		c2.879-2.625,5.808-5.196,8.721-7.783c3.147-2.794,6.281-5.603,9.458-8.361c3.647-3.167,7.366-6.251,10.998-9.434
		c3.633-3.185,7.176-6.473,10.799-9.67c2.921-2.577,5.896-5.093,8.858-7.623c3.199-2.733,6.428-5.431,9.614-8.179
		c5.312-4.58,10.58-9.21,15.903-13.775c5.796-4.971,11.627-9.901,17.456-14.832c3.093-2.617,6.22-5.193,9.325-7.797
		c4.538-3.806,9.065-7.626,13.606-11.428c4.541-3.803,9.067-7.625,13.647-11.38c7.593-6.226,15.246-12.38,22.835-18.611
		c7.831-6.43,15.595-12.94,23.427-19.369c7.952-6.527,15.984-12.955,23.918-19.503c6.371-5.257,12.657-10.617,18.966-15.949
		c7.617-6.437,15.356-12.739,22.788-19.384c7.786-6.962,15.565-13.958,22.674-21.637c2.963-3.201,5.848-6.483,8.618-9.852
		c1.778-2.163,3.399-4.479,4.877-6.859c1.741-2.805,2.745-5.868,3.091-9.226c0.709-6.874-5.553-12.173-10.792-12.411
		c-3.148-0.142-6.186,0.127-9.227,1.095c-15.742,5.013-30.227,12.629-43.975,21.613c-9.265,6.054-18.148,12.696-27.145,19.156
		c-6.588,4.731-13.007,9.7-19.635,14.373c-14.025,9.887-28.173,19.6-42.2,29.486c-6.629,4.672-13.158,9.492-19.615,14.399
		c-7.075,5.377-14.076,10.857-20.998,16.43c-7.771,6.255-15.437,12.64-23.111,19.014c-4.436,3.684-8.778,7.482-13.214,11.166
		c-0.687,0.57-1.651,0.806-2.487,1.196c0.726-1.532,1.229-3.229,2.216-4.568c6.38-8.66,12.7-17.374,19.367-25.811
		c6.083-7.698,12.581-15.07,18.897-22.584c0.201-0.239,0.414-0.467,0.629-0.693c6.235-6.549,12.304-13.268,18.754-19.598
		c6.335-6.217,13.08-12.016,19.605-18.041c10.67-9.851,22.145-18.707,33.805-27.327c13.555-10.021,27.581-19.342,42.101-27.912
		c12.229-7.218,24.697-13.999,37.516-20.108c13.664-6.511,27.558-12.522,41.821-17.585c12.49-4.433,25.096-8.558,37.747-12.513
		c6.839-2.138,13.889-3.598,20.824-5.439c4.067-1.08,8.149-2.151,12.131-3.502c8.905-3.02,18.057-4.819,27.342-6.146
		c4.311-0.616,8.604-1.502,12.82-2.593c5.914-1.53,11.911-2.37,17.969-2.952c2.166-0.208,4.349-0.445,6.462-0.936
		c2.604-0.605,5.21-0.814,7.869-0.949c5.909-0.3,11.808-0.819,17.71-1.252c2.482-0.182,4.964-0.512,7.447-0.528
		C606.742,81.028,612.669,81.136,618.596,81.185z"/>
	<path fill="#6C7BA0" d="M629.4,734.821c5.376-6.287,10.752-12.574,16.127-18.862c8.621-10.085,17.276-20.14,25.85-30.264
		c6.758-7.98,13.4-16.059,20.146-24.05c0.66-0.782,1.69-1.252,2.548-1.867c-0.384,1.492-0.8,2.976-1.144,4.476
		c-1.415,6.159,2.882,11.675,9.214,11.9c2.927,0.104,5.57-0.752,7.929-2.381c2.436-1.682,4.874-3.397,7.105-5.334
		c8.242-7.157,16.466-14.338,24.57-21.651c7.992-7.212,15.918-14.487,24.536-20.967c11.47-8.625,22.918-17.282,34.317-26
		c16.851-12.889,33.82-25.632,50.431-38.824c21.131-16.782,41.99-33.909,62.902-50.966c17.05-13.907,33.714-28.272,49.42-43.688
		c10.684-10.487,21.104-21.251,31.431-32.092c18.511-19.43,36.399-39.423,53.57-60.055c3.082-3.703,6.088-7.523,9.974-10.481
		c1.936,1.809,3.096,4.08,3.905,6.554c-1.667,0.003-2.428,1.184-3.186,2.405c-2.06,3.315-4.149,6.613-6.214,9.926
		c-9.591,15.381-20.132,30.109-30.852,44.711c-7.391,10.067-14.578,20.301-22.339,30.077c-7.954,10.019-16.398,19.658-24.806,29.308
		c-11.178,12.829-22.515,25.521-33.809,38.248c-17.925,20.2-35.483,40.728-54.566,59.882c-7.046,7.072-13.686,14.56-20.327,22.022
		c-6.252,7.025-11.498,14.807-15.83,23.148c-6.476,12.469-12.862,24.987-19.11,37.571c-7.087,14.273-14.558,28.325-22.932,41.893
		c-6.008,9.733-13.047,18.666-20.571,27.256c-10.024,11.446-21.631,21.164-33.259,30.874
		c-13.789,11.515-28.303,22.095-42.531,33.045c-18.565,14.288-36.687,29.118-53.951,44.968
		c-8.625,7.919-17.218,15.875-25.684,23.963c-24.74,23.635-50.372,46.233-77.265,67.405c-14.719,11.589-29.057,23.665-43.859,35.145
		c-11.344,8.798-23.125,17.034-34.749,25.47c-14.531,10.547-29.123,21.007-42.724,32.771c-5.328,4.609-10.275,9.573-14.878,14.896
		c-4.037-1.513-8.152-2.852-12.094-4.583c-6.218-2.731-12.338-5.686-18.457-8.636c-1.507-0.727-2.846-1.801-4.26-2.716
		c3.755-4.408,8.073-8.209,12.405-12.036c6.189-5.468,12.048-11.308,18.081-16.953c4.667-4.366,9.322-8.748,14.096-12.995
		c6.752-6.005,13.604-11.898,20.421-17.829c7.641-6.648,15.213-13.379,22.961-19.901c7.987-6.723,16.096-13.305,24.249-19.828
		c15.823-12.661,31.659-25.307,47.593-37.826c11.647-9.151,23.483-18.061,35.196-27.13c10.478-8.113,20.832-16.386,31.366-24.426
		c12.643-9.651,24.898-19.777,37.052-30.023c7.981-6.728,15.746-13.713,23.614-20.576c2.936-2.561,5.886-5.104,8.834-7.652
		c3.654-3.158,7.357-6.261,10.956-9.481c4.414-3.949,8.725-8.013,13.11-11.994c6.23-5.656,12.488-11.281,18.734-16.921
		c0.463-0.418,0.912-0.852,1.376-1.269c5.557-5.005,11.238-9.881,16.642-15.046c6.542-6.252,12.856-12.743,19.252-19.146
		c1.101-1.103,2.213-2.215,3.168-3.441c3.829-4.923,7.691-9.824,11.35-14.872c1.914-2.64,3.607-5.479,5.072-8.393
		c0.962-1.914,1.558-4.085,1.916-6.209c0.37-2.198-0.812-3.591-3.073-3.878c-1.524-0.194-3.122-0.155-4.646,0.065
		c-7.274,1.049-14.409,2.748-21.342,5.176c-7.654,2.68-15.245,5.532-22.617,8.946c-9.481,4.391-19.068,8.555-28.496,13.054
		c-6.19,2.954-12.185,6.316-18.258,9.513c-11.87,6.249-23.735,12.505-35.596,18.772c-2.344,1.238-4.639,2.567-6.984,3.802
		c-2.623,1.381-5.28,2.698-7.917,4.052C631.447,735.405,630.421,735.515,629.4,734.821z"/>
	<path fill="#222D57" d="M1058.327,363.714c-3.886,2.958-6.892,6.778-9.974,10.481c-17.171,20.633-35.059,40.625-53.57,60.055
		c-10.328,10.841-20.747,21.605-31.431,32.092c-15.706,15.416-32.37,29.781-49.42,43.688c-20.912,17.057-41.77,34.184-62.902,50.966
		c-16.611,13.192-33.58,25.935-50.431,38.824c-11.399,8.719-22.847,17.375-34.317,26c-8.618,6.481-16.544,13.756-24.536,20.967
		c-8.104,7.313-16.328,14.494-24.57,21.651c-2.231,1.937-4.669,3.652-7.105,5.334c-2.359,1.629-5.003,2.485-7.929,2.381
		c-6.332-0.225-10.63-5.74-9.214-11.9c0.345-1.5,0.761-2.984,1.144-4.476c0.144-0.173,0.27-0.358,0.379-0.555
		c1.156-0.256,1.708-0.982,1.686-2.158c0.998-1.155,1.997-2.31,2.995-3.465c1.589-0.129,2.344-1.443,3.324-2.396
		c6.272-6.09,12.531-12.193,18.765-18.322c7.124-7.004,14.302-13.954,21.304-21.078c13.463-13.697,26.239-28.032,39.137-42.256
		c17.303-19.083,34.424-38.302,50.698-58.292c14.681-18.033,29.822-35.702,45.089-53.246c10.756-12.36,21.811-24.482,33.177-36.282
		c20.907-21.705,41.591-43.6,60.913-66.745c4.602-5.512,9.155-11.066,13.664-16.654c1.043-1.293,2.508-2.445,2.328-4.417
		c0,0,0.271-0.109,0.271-0.109l-0.206,0.183c-1.473,0.838-3.04,1.546-4.406,2.533c-17.678,12.768-35.336,25.563-52.98,38.378
		c-10.082,7.323-20.113,14.716-30.206,22.024c-1.885,1.365-3.902,2.573-5.956,3.67c-1.652,0.883-3.479,1.418-5.405,1.111
		c-1.016-0.162-1.672-0.759-1.624-1.896c0.02-0.467,0.037-0.933,0.056-1.4c0.151-0.22,0.244-0.462,0.28-0.726
		c2.99-2.596,4.998-5.847,6.368-9.526c0.141-0.196,0.263-0.403,0.365-0.621c1.01-0.39,1.461-1.149,1.458-2.208
		c0.144-0.203,0.268-0.417,0.374-0.642c2.244-1.769,3.56-4.136,4.393-6.815c0.138-0.197,0.257-0.404,0.358-0.623
		c1.011-0.396,1.456-1.163,1.454-2.223c0.141-0.199,0.262-0.409,0.364-0.631c2.221-1.793,3.548-4.154,4.355-6.846
		c0.137-0.198,0.256-0.406,0.358-0.624c1.009-0.397,1.438-1.17,1.44-2.22c0.145-0.203,0.269-0.418,0.372-0.645
		c1.523-0.9,2.294-2.277,2.532-3.992c0.138-0.199,0.257-0.409,0.359-0.629c1.007-0.402,1.438-1.174,1.433-2.227
		c0.142-0.203,0.264-0.417,0.366-0.642c1.523-0.905,2.275-2.296,2.521-4.005c0.137-0.197,0.253-0.405,0.35-0.624
		c2.215-1.809,3.508-4.192,4.288-6.894c0.138-0.201,0.256-0.413,0.353-0.636c1.517-0.917,2.264-2.312,2.502-4.025
		c0.134-0.199,0.249-0.408,0.345-0.628c0.447-0.396,1.023-0.713,1.322-1.2c2.721-4.427,5.407-8.876,8.062-13.342
		c0.297-0.5,0.341-1.15,0.502-1.73c0.139-0.206,0.257-0.423,0.356-0.651c1.506-0.914,2.245-2.315,2.538-3.999
		c0.138-0.186,0.259-0.383,0.361-0.592c0.379-0.258,0.843-0.445,1.123-0.784c4.558-5.531,9.154-11.033,13.622-16.636
		c10.985-13.777,21.24-28.088,30.987-42.765c1.024-1.542,1.826-3.298,3.601-4.207c4.142,4.856,8.426,9.597,12.401,14.586
		c22.115,27.755,41.165,57.482,57.035,89.232C1056.935,359.59,1057.55,361.693,1058.327,363.714z"/>
	<path fill="#6C7BA0" d="M579.392,1013.509c-1.346,0.738-2.643,1.586-4.044,2.195c-11.101,4.826-22.258,9.527-33.323,14.433
		c-6.24,2.767-12.345,5.84-18.499,8.8c-1.079,0.519-2.329,0.876-2.933,2.478c0.562,0.26,1.074,0.713,1.562,0.688
		c2.778-0.143,5.549-0.4,8.323-0.618c-0.641,1.773-2.291,2.489-3.685,3.437c-9.924,6.747-19.882,13.447-29.794,20.211
		c-1.529,1.044-2.885,2.342-4.32,3.523c-2.979,0.119-5.869-0.436-8.701-1.267c-11.738-3.447-23.469-6.915-35.192-10.412
		c-1.768-0.527-3.611-0.986-4.909-2.484c1.132-0.812,2.211-1.722,3.411-2.423c13.489-7.88,26.357-16.712,39.311-25.421
		c36.809-24.745,71.992-51.714,107.334-78.461c21.529-16.293,42.803-32.922,64.268-49.299c5.951-4.54,12.083-8.861,18.301-13.03
		c12.704-8.517,25.526-16.859,38.294-25.281c15.659-10.329,30.271-22.042,44.749-33.928c7.961-6.535,15.953-13.036,23.76-19.752
		c5.557-4.781,10.838-9.883,16.221-14.864c8.02-7.419,16.021-14.858,24.03-22.289c0.343-0.318,0.707-0.62,1.014-0.971
		c8.464-9.687,18.706-17.431,28.279-25.908c8.178-7.242,16.316-14.531,24.367-21.914c13.688-12.552,27.225-25.269,40.955-37.775
		c10.503-9.566,21.471-18.592,32.742-27.246c12.315-9.456,25.748-17.057,39.644-23.875c5.323-2.612,10.745-5.023,16.141-7.484
		c0.782-0.357,1.673-0.474,3.103-0.862c-0.56,1.561-0.818,2.567-1.265,3.48c-10.387,21.218-22.195,41.556-36.721,60.27
		c-5.843,7.528-11.817,14.923-18.25,21.951c-12.751,13.928-25.49,27.866-38.226,41.808c-10.436,11.424-19.824,23.692-29.125,36.036
		c-8.641,11.468-17.38,22.862-26.097,34.272c-5.892,7.713-12.657,14.605-19.708,21.263c-7.404,6.992-15.47,13.094-23.757,18.968
		c-11.59,8.216-22.827,16.903-33.662,26.1c-3.328,2.825-6.596,5.72-9.925,8.544c-0.826,0.701-1.741,1.318-2.68,1.86
		c-11.894,6.867-23.792,13.727-35.713,20.546c-1.191,0.681-2.542,1.083-3.819,1.614c0.177-1.583,1.372-2.346,2.507-3.195
		c7.365-5.516,14.708-11.062,22.069-16.583c12.484-9.364,24.254-19.589,35.865-29.989c5.921-5.303,11.429-11.053,17.301-16.431
		c9.429-8.636,17.906-18.281,27.663-26.591c19.077-19.317,38.953-37.846,57.198-57.985c3.454-3.812,6.895-7.638,10.452-11.352
		c6.479-6.765,12.413-13.998,18.297-21.267c6.476-8.001,12.759-16.151,18.605-24.637c9.668-14.032,17.939-28.883,25.998-43.863
		c0.349-0.65,0.878-1.354,0.029-2.337c-0.459,0.185-1.066,0.295-1.504,0.629c-2.355,1.796-4.693,3.619-6.992,5.487
		c-6.05,4.915-12.145,9.781-17.651,15.325c-0.99,0.997-1.982,1.995-3.032,2.926c-7.579,6.722-15.252,13.339-22.743,20.158
		c-9.247,8.417-17.478,17.789-25.379,27.471c-5.911,7.244-11.939,14.4-18.118,21.416c-4.738,5.38-9.711,10.561-14.723,15.69
		c-13.088,13.392-26.434,26.523-40.156,39.267c-0.343,0.319-0.689,0.634-1.041,0.942c-4.454,3.902-8.929,7.78-13.36,11.709
		c-6.415,5.688-12.73,11.488-19.211,17.099c-7.422,6.426-14.989,12.685-22.47,19.043c-2.85,2.423-5.642,4.915-8.451,7.386
		c-3.277,2.883-6.522,5.803-9.821,8.661c-6.125,5.306-12.28,10.576-18.419,15.865c-4.25,3.661-8.491,7.333-12.746,10.988
		c-2.365,2.032-4.767,4.02-7.125,6.06c-5.303,4.591-10.521,9.282-15.899,13.784c-6.215,5.202-12.531,10.285-18.863,15.346
		c-8.769,7.01-17.607,13.935-26.389,20.928c-5.123,4.079-10.205,8.209-15.289,12.336c-6.293,5.109-12.414,10.444-18.888,15.311
		c-8.601,6.465-17.472,12.573-26.227,18.835c-1.014,0.725-2.069,1.403-3.02,2.203
		C578.392,1011.838,578.751,1012.708,579.392,1013.509z"/>
	<path fill="#8F9CBA" d="M629.4,734.821c1.021,0.694,2.048,0.584,3.094,0.047c2.637-1.354,5.294-2.671,7.917-4.052
		c2.345-1.235,4.641-2.563,6.984-3.802c11.86-6.267,23.726-12.523,35.596-18.772c6.073-3.197,12.068-6.56,18.258-9.513
		c9.428-4.499,19.015-8.664,28.496-13.054c7.372-3.414,14.962-6.266,22.617-8.946c6.934-2.428,14.069-4.127,21.342-5.176
		c1.524-0.22,3.122-0.259,4.646-0.065c2.261,0.287,3.443,1.68,3.073,3.878c-0.358,2.124-0.954,4.295-1.916,6.209
		c-1.465,2.914-3.158,5.753-5.072,8.393c-3.66,5.047-7.522,9.949-11.35,14.872c-0.954,1.227-2.066,2.339-3.168,3.441
		c-6.397,6.403-12.711,12.894-19.252,19.146c-5.404,5.165-11.085,10.041-16.642,15.046c-0.464,0.418-0.913,0.851-1.376,1.269
		c-6.245,5.64-12.503,11.265-18.734,16.921c-4.385,3.981-8.697,8.045-13.11,11.994c-3.599,3.22-7.302,6.323-10.956,9.481
		c-2.947,2.547-5.898,5.091-8.834,7.652c-7.868,6.863-15.633,13.848-23.614,20.576c-12.154,10.247-24.409,20.372-37.052,30.023
		c-10.533,8.04-20.888,16.313-31.366,24.426c-11.712,9.069-23.548,17.979-35.196,27.13c-15.935,12.519-31.771,25.165-47.593,37.826
		c-8.152,6.523-16.261,13.105-24.249,19.828c-7.748,6.522-15.319,13.253-22.961,19.901c-6.818,5.931-13.67,11.824-20.421,17.829
		c-4.774,4.247-9.43,8.629-14.096,12.995c-6.034,5.645-11.893,11.485-18.081,16.953c-4.331,3.827-8.65,7.628-12.405,12.036
		c-1.461-0.518-3.016-0.859-4.363-1.585c-7.939-4.284-15.829-8.657-23.737-13.002c0.647-0.869,1.169-1.877,1.963-2.58
		c6.53-5.785,13.158-11.458,19.658-17.275c5.109-4.572,10.063-9.317,15.112-13.957c6.424-5.904,12.875-11.778,19.313-17.666
		c0.23-0.21,0.462-0.419,0.686-0.636c10.076-9.764,20.207-19.472,30.202-29.319c4.882-4.81,9.418-9.972,14.275-14.81
		c6.516-6.49,13.207-12.803,19.785-19.231c1.446-1.413,2.721-3,4.096-4.487c1.058-1.143,2.066-2.352,3.241-3.364
		c8.519-7.34,16.302-15.408,23.752-23.813c1.033-1.166,2.165-2.245,3.246-3.369c9.51-9.888,19.269-19.553,28.44-29.746
		c6.144-6.828,13.105-12.938,18.418-20.518c0.408-0.582,1.248-0.86,1.889-1.28c1.614-0.014,2.998-0.616,4.386-1.422
		c5.128-2.974,10.274-5.922,15.48-8.756c11.787-6.416,23.649-12.694,35.415-19.147c12.32-6.757,24.305-14.076,35.993-21.881
		c3.374-2.253,6.828-4.387,10.273-6.531c3.577-2.226,7.179-4.411,10.787-6.588c2.249-1.357,3.658-3.363,4.548-5.769
		c2.339-6.322-2.285-13.731-9.307-13.316c-2.717,0.161-5.228,0.697-7.568,2.104c-3.878,2.333-7.671,4.847-11.706,6.874
		c-9.761,4.906-19.642,9.571-29.47,14.345c-1.572,0.764-3.19,1.264-4.96,1.125c0.576-1.069,0.993-2.27,1.754-3.184
		c3.874-4.648,7.828-9.23,11.782-13.811C627.966,736.021,628.717,735.451,629.4,734.821z"/>
	<path fill="#6C7BA0" d="M575.149,1081.64c0.836-0.92,1.612-1.902,2.516-2.749c14.404-13.495,30.013-25.388,46.909-35.62
		c17.627-10.675,35.303-21.282,52.66-32.383c18.701-11.961,38.328-22.272,57.518-33.361c11.217-6.482,22.4-13.032,33.451-19.792
		c15.766-9.645,30.088-21.202,43.823-33.54c11.067-9.941,21.09-20.851,30.597-32.245c13.117-15.722,26.911-30.807,41.851-44.81
		c14.237-13.344,28.632-26.519,42.947-39.781c5.382-4.986,10.67-10.076,16.118-14.987c3.821-3.445,7.677-6.89,11.803-9.952
		c14.415-10.699,28.953-21.232,43.447-31.825c2.143-1.566,4.284-3.135,6.45-4.668c0.609-0.431,1.306-0.739,1.881-1.058
		c1.021,0.827,0.612,1.571,0.309,2.246c-1.792,3.987-3.562,7.985-5.435,11.933c-3.88,8.18-7.878,16.305-11.715,24.505
		c-2.327,4.972-5.14,9.611-8.363,14.055c-9.265,12.776-19.111,25.089-29.46,36.99c-10.268,11.808-21.689,22.428-33.95,32.164
		c-7.087,5.628-13.983,11.497-20.994,17.222c-0.822,0.671-1.826,1.121-2.745,1.673c0.237-1.692,1.482-2.712,2.608-3.768
		c3.752-3.519,7.69-6.851,11.297-10.511c10.401-10.555,20.676-21.235,30.997-31.869c0.434-0.447,0.843-0.92,1.252-1.392
		c3.574-4.119,7.144-8.242,10.719-12.362c2.758-3.179,5.666-6.24,8.256-9.55c8.169-10.439,16.295-20.914,24.284-31.49
		c3.758-4.975,7.176-10.208,10.718-15.345c0.396-0.574,0.962-1.3-0.359-2.083c-1.866,1.961-3.545,4.148-5.256,6.322
		c-4.145,5.266-8.267,10.553-12.559,15.697c-4.393,5.264-8.953,10.389-13.484,15.535c-4.531,5.146-8.882,10.478-13.724,15.316
		c-15.119,15.107-29.795,30.658-45.641,45.041c-7.155,6.494-14.12,13.197-21.47,19.48c-6.633,5.67-13.166,11.458-19.856,17.06
		c-9.441,7.906-18.893,15.805-28.508,23.496c-11.689,9.351-23.491,18.562-35.354,27.691c-17.923,13.792-35.97,27.423-53.907,41.197
		c-8.285,6.362-16.36,12.998-24.664,19.335c-9.053,6.908-18.151,13.766-27.43,20.364c-9.154,6.509-18.526,12.719-28.316,18.258
		c-5.43,3.072-10.792,6.281-16.337,9.131c-11.237,5.776-22.581,11.343-33.872,17.012c-3.05,1.531-6.402,2.53-8.933,4.993
		c-5.583,0.181-11.151,0.303-16.724-0.448c-2.752-0.371-5.582-0.115-8.366-0.304C578.464,1082.35,576.811,1081.925,575.149,1081.64z
		"/>
	<path fill="#6C7BA0" d="M197.782,302.102c0.836-0.39,1.801-0.626,2.487-1.196c4.436-3.684,8.778-7.482,13.214-11.166
		c7.674-6.374,15.34-12.759,23.111-19.014c6.923-5.572,13.923-11.052,20.998-16.43c6.457-4.907,12.986-9.727,19.615-14.399
		c14.026-9.886,28.174-19.598,42.2-29.486c6.628-4.673,13.046-9.642,19.635-14.373c8.996-6.46,17.88-13.101,27.145-19.156
		c13.748-8.984,28.233-16.6,43.975-21.613c3.041-0.968,6.079-1.237,9.227-1.095c5.238,0.237,11.501,5.537,10.792,12.411
		c-0.346,3.358-1.35,6.421-3.091,9.226c-1.478,2.38-3.098,4.696-4.877,6.859c-2.77,3.369-5.654,6.651-8.618,9.852
		c-7.109,7.678-14.887,14.674-22.674,21.637c-7.432,6.645-15.171,12.947-22.788,19.384c-6.309,5.332-12.595,10.692-18.966,15.949
		c-7.935,6.547-15.967,12.976-23.918,19.503c-7.832,6.428-15.596,12.939-23.427,19.369c-7.589,6.231-15.241,12.385-22.835,18.611
		c-4.58,3.755-9.106,7.577-13.647,11.38c-4.541,3.803-9.068,7.622-13.606,11.428c-3.104,2.603-6.231,5.18-9.325,7.797
		c-5.83,4.931-11.66,9.861-17.456,14.832c-5.323,4.566-10.592,9.196-15.903,13.775c-3.186,2.747-6.415,5.446-9.614,8.179
		c-2.962,2.53-5.938,5.046-8.858,7.623c-3.623,3.197-7.165,6.485-10.799,9.67c-3.632,3.184-7.351,6.268-10.998,9.434
		c-3.177,2.759-6.312,5.567-9.458,8.361c-2.914,2.587-5.842,5.158-8.721,7.783c-4.377,3.991-8.689,8.054-13.095,12.013
		c-1.02,0.917-2.309,1.535-3.475,2.293c0.441-1.804,0.775-3.645,1.343-5.409c3.817-11.851,8.201-23.494,13.026-34.974
		c1.165,0.664,2.411,0.831,3.57,0.146c1.87-1.106,3.877-2.11,5.45-3.564c8.052-7.448,16.972-13.745,25.945-19.985
		c17.83-12.401,34.857-25.832,51.278-40.038c7.908-6.842,15.598-13.954,23.742-20.5c15.571-12.516,31.49-24.598,47.087-37.082
		c13.775-11.026,27.787-21.724,42.062-32.09c9.471-6.878,18.878-13.85,28.149-20.994c8.409-6.479,16.56-13.293,23.945-20.952
		c1.617-1.677,3.028-3.559,4.457-5.406c0.461-0.596,0.782-1.388-0.285-2.22c-0.568,0.244-1.304,0.453-1.928,0.843
		c-11.12,6.944-22.271,13.84-33.323,20.891c-10.132,6.464-20.2,13.03-30.214,19.675c-13.136,8.716-26.426,17.227-39.22,26.423
		c-15.967,11.475-31.538,23.504-47.195,35.407c-5.603,4.26-11.33,8.295-17.429,11.806c-15.961,9.19-31.893,18.432-47.881,27.575
		c-3.374,1.929-6.937,3.526-10.414,5.277c0.401-1.168,0.598-2.465,1.235-3.486c6.028-9.657,12.127-19.269,18.225-28.882
		c0.242-0.381,0.673-0.641,1.019-0.957c0.383-0.325,0.764-0.65,1.144-0.976L197.782,302.102z"/>
	<path fill="#6C7BA0" d="M837.695,937.304c-0.998,1.168-1.925,2.408-3.007,3.493c-6.172,6.188-12.576,12.158-18.519,18.557
		c-5.195,5.595-9.949,11.607-14.766,17.541c-1.862,2.293-3.392,4.861-5.001,7.35c-0.376,0.582-0.458,1.353-0.642,1.934
		c1.274,1.035,1.999,0.246,2.674-0.321c2.866-2.408,5.667-4.893,8.542-7.29c8.987-7.495,17.989-14.97,26.998-22.437
		c5.406-4.481,10.761-9.028,16.277-13.37c6.989-5.501,14.034-10.938,21.207-16.196c9.452-6.929,18.405-14.458,27.345-22.018
		c7.267-6.146,14.704-12.091,22.025-18.173c5.876-4.882,11.682-9.847,17.543-14.747c0.89-0.744,1.908-1.334,3.312-1.549
		c-0.824,1.261-1.594,2.561-2.48,3.778c-9.936,13.647-20.881,26.458-32.501,38.682c-7.956,8.369-16.138,16.523-24.256,24.737
		c-17.379,17.585-36.516,33.113-56.129,48.101c-27.597,21.091-56.818,39.607-87.343,56.162
		c-23.639,12.821-48.057,23.918-72.829,34.294c-2.732,1.145-5.557,2.068-8.342,3.086c-1.189,0.435-2.33,0.919-2.831,2.229
		c-0.302,0.086-0.596,0.244-0.893,0.248c-7.844,0.107-15.626,1.53-23.493,1.101c2.113-2.951,4.71-5.398,7.78-7.319
		c3.828-2.395,7.665-4.779,11.549-7.083c11.388-6.754,22.848-13.387,34.188-20.219c8.672-5.224,17.285-10.554,25.782-16.057
		c15.959-10.336,31.499-21.286,46.892-32.443c16.901-12.25,33.609-24.749,49.887-37.826c9.104-7.314,18.094-14.754,26.897-22.424
		C834.765,938.076,835.974,937.134,837.695,937.304z"/>
	<path fill="#6C7BA0" d="M1087.8,437.811c-0.863,1.467-1.896,2.862-2.565,4.413c-10.549,24.445-23.945,47.351-37.937,69.918
		c-6.003,9.682-12.271,19.213-18.762,28.574c-7.855,11.329-16.855,21.714-27.602,30.434c-4.113,3.338-8.408,6.498-12.866,9.355
		c-9.725,6.233-19.582,12.262-29.434,18.295c-11.615,7.113-22.478,15.246-32.821,24.077c-7.36,6.284-14.57,12.743-21.885,19.079
		c-2.326,2.014-4.778,3.884-7.365,5.975c-0.276-0.726-0.656-1.244-0.527-1.467c0.778-1.343,1.582-2.69,2.541-3.905
		c15.671-19.857,31.869-39.269,48.734-58.128c8.428-9.424,16.534-19.136,24.903-28.614c7.542-8.542,15.274-16.916,22.869-25.412
		c8.427-9.427,16.725-18.97,25.2-28.353c14.35-15.889,27.596-32.677,40.594-49.664c6.261-8.182,12.264-16.56,18.411-24.83
		c1.016-1.368,2.17-2.633,3.262-3.948c0.42,0.446,1.051,0.826,1.223,1.354C1085.163,429.232,1086.469,433.526,1087.8,437.811z"/>
	<path fill="#222D57" d="M176.195,336.369c3.476-1.75,7.04-3.347,10.414-5.277c15.988-9.143,31.92-18.385,47.881-27.575
		c6.099-3.512,11.826-7.547,17.429-11.806c15.656-11.903,31.228-23.931,47.195-35.407c12.795-9.196,26.085-17.706,39.22-26.423
		c10.014-6.645,20.082-13.212,30.214-19.675c11.052-7.051,22.203-13.947,33.323-20.891c0.624-0.39,1.36-0.599,1.928-0.843
		c1.067,0.832,0.746,1.624,0.285,2.22c-1.429,1.847-2.84,3.729-4.457,5.406c-7.386,7.659-15.536,14.472-23.945,20.952
		c-9.271,7.144-18.678,14.116-28.149,20.994c-14.275,10.367-28.287,21.064-42.062,32.09c-15.597,12.484-31.517,24.566-47.087,37.082
		c-8.144,6.547-15.834,13.659-23.742,20.5c-16.421,14.206-33.447,27.638-51.278,40.038c-8.973,6.24-17.893,12.538-25.945,19.985
		c-1.573,1.454-3.58,2.459-5.45,3.564c-1.159,0.685-2.405,0.518-3.57-0.146c3.027-6.798,6.037-13.606,9.1-20.39
		c0.442-0.98,1.057-1.911,1.734-2.749c1.195-1.477,2.116-2.979,2.246-4.983c0.066-1.023,0.691-2.047,1.198-3
		c3.861-7.265,7.736-14.524,11.669-21.751C174.755,337.535,175.569,337.003,176.195,336.369z"/>
	<path fill="#8F9CBA" d="M837.695,937.304c-1.721-0.17-2.929,0.772-4.133,1.82c-8.803,7.67-17.792,15.11-26.897,22.424
		c-16.278,13.077-32.987,25.576-49.887,37.826c-15.393,11.157-30.934,22.107-46.892,32.443c-8.497,5.503-17.11,10.833-25.782,16.057
		c-11.34,6.832-22.8,13.465-34.188,20.219c-3.884,2.303-7.721,4.688-11.549,7.083c-3.07,1.921-5.667,4.368-7.78,7.319
		c-8.427,1.137-16.887,1.091-25.358,0.722c2.53-2.465,5.882-3.463,8.932-4.995c11.292-5.669,22.636-11.236,33.872-17.012
		c5.545-2.85,10.907-6.059,16.337-9.131c9.79-5.539,19.162-11.749,28.316-18.258c9.279-6.598,18.378-13.456,27.43-20.364
		c8.304-6.337,16.379-12.973,24.664-19.335c17.937-13.774,35.984-27.405,53.907-41.197c11.863-9.129,23.665-18.34,35.354-27.691
		c9.615-7.692,19.067-15.59,28.508-23.496c6.689-5.602,13.223-11.39,19.856-17.06c7.35-6.283,14.316-12.986,21.47-19.48
		c15.846-14.383,30.522-29.934,45.641-45.041c4.842-4.838,9.193-10.17,13.724-15.316c4.532-5.146,9.092-10.271,13.484-15.535
		c4.293-5.144,8.415-10.431,12.559-15.697c1.711-2.174,3.39-4.361,5.256-6.322c1.32,0.783,0.755,1.509,0.359,2.083
		c-3.542,5.137-6.96,10.37-10.718,15.345c-7.989,10.577-16.115,21.052-24.284,31.49c-2.59,3.31-5.497,6.372-8.256,9.55
		c-3.575,4.119-7.144,8.242-10.719,12.362c-0.409,0.471-0.818,0.944-1.252,1.392c-10.321,10.634-20.596,21.314-30.997,31.869
		c-3.607,3.66-7.545,6.992-11.297,10.511c-1.126,1.057-2.371,2.076-2.608,3.768c-1.143,1.02-2.285,2.04-3.428,3.06
		c-3.441,0.826-5.424,3.261-6.902,6.253c-0.828,0.723-1.657,1.446-2.485,2.169c-3.034,0.578-4.726,2.668-5.95,5.284
		c-1.172,1.029-2.343,2.059-3.515,3.088c-2.534,0.472-4.021,2.112-4.916,4.411c-1.161,1.035-2.322,2.07-3.484,3.105
		c-0.938,0.441-2.039,0.698-2.782,1.359c-2.034,1.808-3.951,3.752-5.836,5.718c-0.494,0.515-0.7,1.307-1.039,1.972
		c-0.822,0.742-1.644,1.484-2.467,2.226c-1.77,0.079-2.785,0.983-3.012,2.75c-1.314,1.191-2.628,2.381-3.942,3.572
		C841.314,931.474,838.947,933.778,837.695,937.304L837.695,937.304z"/>
	<path fill="#6C7BA0" d="M806.759,894.227c-4.779,5.793-10.357,10.782-15.934,15.765c-14.47,12.927-30.287,24.013-46.784,34.174
		c-16.066,9.896-32.187,19.709-48.103,29.843c-10.913,6.948-21.579,14.293-32.245,21.621
		c-15.296,10.508-30.481,21.176-45.732,31.747c-11.695,8.107-22.649,17.089-32.573,27.308c-6.954,7.16-13.979,14.251-20.917,21.427
		c-1.397,1.445-2.543,3.132-3.806,4.707c-10.524-0.731-20.959-2.154-31.334-4.026c0.877-1.265,1.631-2.642,2.656-3.772
		c1.781-1.963,3.764-3.74,5.601-5.654c8.111-8.449,16.738-16.344,25.761-23.797c6.611-5.46,13.357-10.758,20.09-16.068
		c1.37-1.08,2.782-2.032,3.172-3.872c1.572-0.642,3.108-1.395,4.72-1.91c11.144-3.558,22.282-7.127,33.074-11.684
		c7.771-3.281,15.32-6.995,22.554-11.338c6.017-3.612,12.042-7.212,18.037-10.86c10.819-6.583,20.801-14.304,30.583-22.322
		c11.833-9.699,24.332-18.499,37.258-26.679c11.597-7.339,23.227-14.625,34.883-21.869c3.84-2.386,7.841-4.512,11.711-6.852
		c7.606-4.598,15.169-9.266,22.756-13.895c1.442-0.88,2.728-2.156,4.634-1.936L806.759,894.227z"/>
	<path fill="#6C7BA0" d="M142.375,762.224c2.757-2.517,5.394-5.181,8.289-7.527c15.99-12.957,32.116-25.737,49.3-37.112
		c11.83-7.831,23.62-15.723,35.45-23.555c9.75-6.455,19.6-12.763,29.282-19.319c9.036-6.12,17.899-12.496,26.859-18.729
		c2.817-1.96,5.674-3.863,8.566-5.71c1.175-0.75,2.452-1.381,3.753-1.885c1.852-0.718,3.057,0.134,2.924,2.166
		c-0.085,1.295-0.077,2.457,0.634,3.579c0.979,1.542,0.466,2.998-0.386,4.386c-0.324,0.528-0.701,1.045-1.144,1.474
		c-4.93,4.768-9.873,9.522-14.825,14.266c-0.787,0.754-1.684,1.395-2.449,2.169c-6.594,6.674-13.989,12.4-21.396,18.111
		c-7.283,5.615-14.632,11.147-21.84,16.857c-7.328,5.805-14.515,11.789-21.777,17.677c-1.21,0.981-2.497,1.867-3.738,2.813
		c-1.03,0.785-2.155,1.242-3.473,1.106c0.959-1.207,1.817-2.512,2.894-3.602c3.292-3.331,6.762-6.49,9.976-9.892
		c1.915-2.027,3.574-4.32,5.159-6.624c0.679-0.987,1.077-2.276,1.251-3.479c0.345-2.386-1.558-4.342-3.932-4.08
		c-1.22,0.135-2.472,0.485-3.582,1.008c-2.679,1.262-5.406,2.491-7.893,4.079c-5.128,3.274-10.333,6.493-15.111,10.237
		c-11.302,8.856-22.384,17.994-33.536,27.042c-7.523,6.104-14.783,12.497-21.376,19.618c-1.376,1.486-2.806,2.922-4.212,4.382
		C144.005,768.844,142.778,765.693,142.375,762.224z"/>
	<path fill="#222D57" d="M146.04,771.681c1.405-1.459,2.836-2.895,4.212-4.382c6.593-7.121,13.853-13.514,21.376-19.618
		c11.152-9.048,22.234-18.186,33.536-27.042c4.779-3.745,9.983-6.963,15.111-10.237c2.487-1.588,5.214-2.817,7.893-4.079
		c1.11-0.523,2.362-0.873,3.582-1.008c2.374-0.263,4.277,1.694,3.932,4.08c-0.174,1.203-0.572,2.492-1.251,3.479
		c-1.585,2.304-3.244,4.597-5.159,6.624c-3.214,3.402-6.684,6.561-9.976,9.892c-1.077,1.09-1.935,2.395-2.894,3.602
		c-2.72,2.534-5.463,5.042-8.153,7.606c-5.61,5.346-11.207,10.706-16.774,16.098c-1.105,1.07-2.049,2.308-3.067,3.468
		c-0.782,0.485-1.665,0.86-2.332,1.471c-9.421,8.637-19.242,16.841-28.118,26.069c-1.281,1.331-2.854,2.382-4.292,3.562
		c-0.505-1.065-1.01-2.13-1.513-3.19c-0.209-0.519-0.42-1.043-0.632-1.568c-0.736-1.662-1.471-3.323-2.204-4.979
		c-0.201-0.526-0.405-1.057-0.609-1.589c-0.703-1.658-1.406-3.315-2.107-4.968c-0.161-0.42-0.324-0.845-0.488-1.269
		C146.091,773.028,146.065,772.354,146.04,771.681z"/>
	<path fill="#8F9CBA" d="M110.026,569.999c2.511-1.548,5.178-2.893,7.506-4.679c11.257-8.638,22.587-17.194,33.572-26.169
		c10.02-8.187,19.938-16.495,30.164-24.428c9.733-7.55,19.385-15.205,29.134-22.733c13.825-10.676,27.65-21.354,41.582-31.889
		c11.942-9.03,24.034-17.862,36.066-26.772c0.72-0.533,1.501-0.985,2.229-1.459c0.993,1.078,0.289,1.69-0.256,2.152
		c-4.045,3.424-8.131,6.799-12.197,10.198c-5.022,4.198-10.04,8.401-15.053,12.61c-5.371,4.509-10.741,9.018-16.098,13.543
		c-2.738,2.313-5.438,4.672-8.17,6.993c-5.7,4.843-11.413,9.671-17.114,14.513c-4.752,4.036-9.488,8.089-14.241,12.124
		c-5.583,4.74-11.198,9.443-16.76,14.207c-5.327,4.562-10.589,9.2-15.909,13.771c-5.437,4.672-10.919,9.291-16.362,13.954
		c-3.314,2.839-6.595,5.717-9.886,8.582c-4.466,3.888-8.939,7.767-13.387,11.676c-3.278,2.881-6.542,5.779-9.775,8.711
		c-4.04,3.666-8.018,7.401-12.078,11.044c-0.91,0.816-2.048,1.378-3.079,2.059C109.953,582.005,109.99,576.002,110.026,569.999z"/>
	<path fill="#8F9CBA" d="M586.61,1023.629c-0.39,1.841-1.802,2.792-3.172,3.872c-6.733,5.31-13.48,10.607-20.09,16.068
		c-9.023,7.453-17.65,15.348-25.761,23.797c-1.837,1.914-3.821,3.691-5.601,5.654c-1.025,1.13-1.779,2.507-2.656,3.772
		c-4.447-0.71-8.914-1.31-13.333-2.156c-5.953-1.139-11.879-2.43-17.799-3.737c-1.944-0.429-4.047-0.594-5.517-2.245
		c1.433-1.18,2.788-2.479,4.318-3.522c9.913-6.765,19.87-13.464,29.794-20.211c1.394-0.948,3.044-1.664,3.685-3.437
		c1.048-0.307,2.08-0.69,3.146-0.911c15.953-3.311,31.19-8.881,46.37-14.639C582.176,1025.107,584.403,1024.395,586.61,1023.629z"/>
	<path fill="#6C7BA0" d="M986.536,253.844c-1.775,0.909-2.577,2.665-3.601,4.207c-9.747,14.677-20.002,28.988-30.987,42.765
		c-4.468,5.603-9.063,11.105-13.622,16.636c-0.28,0.339-0.744,0.526-1.123,0.784c0.431-0.984,0.75-2.037,1.31-2.941
		c9.473-15.262,18.197-30.953,26.778-46.724c3.655-6.717,7.16-13.516,10.752-20.268c0.132-0.247,0.457-0.392,0.692-0.584
		c1.455,0.947,3.069,0.709,4.662,0.623C983.507,249.806,985.565,251.317,986.536,253.844z"/>
	<path fill="#6C7BA0" d="M153.668,791.265c1.438-1.18,3.011-2.231,4.292-3.562c8.876-9.227,18.698-17.432,28.118-26.069
		c0.667-0.611,1.549-0.986,2.332-1.471c-0.288,0.709-0.422,1.545-0.886,2.11c-8.404,10.222-15.81,21.183-23.672,31.805
		c-1.649,2.227-2.974,4.778-5.414,6.349C156.848,797.373,155.258,794.319,153.668,791.265z"/>
	<path fill="#222D57" d="M981.397,248.343c-1.593,0.086-3.207,0.324-4.662-0.623c0.364-1.317,0.95-2.48,2.203-3.18
		C979.757,245.807,980.577,247.075,981.397,248.343z"/>
	<path fill="#6C7BA0" d="M1079.763,412.598c-0.991-1.292-1.571-2.729-1.537-4.374
		C1079.523,409.41,1079.846,410.933,1079.763,412.598z"/>
	<path fill="#6C7BA0" d="M1069.441,386.4c-0.908-0.984-1.541-2.08-1.425-3.477C1069.157,383.814,1069.656,384.961,1069.441,386.4z"
		/>
	<path fill="#6C7BA0" d="M1065.747,377.925c-0.221-0.523-0.442-1.046-0.661-1.564
		C1065.308,376.886,1065.528,377.405,1065.747,377.925z"/>
	<path fill="#6C7BA0" d="M1076.974,405.088c-0.178-0.53-0.357-1.06-0.533-1.585C1076.62,404.034,1076.797,404.561,1076.974,405.088z
		"/>
	<path fill="#6C7BA0" d="M146.116,773.702c0.163,0.425,0.327,0.849,0.488,1.269C145.927,774.742,145.72,774.337,146.116,773.702z"/>
	<path fill="#6C7BA0" d="M148.711,779.939c0.204,0.531,0.408,1.063,0.609,1.589C149.115,780.995,148.913,780.467,148.711,779.939z"
		/>
	<path fill="#6C7BA0" d="M151.523,786.508c0.212,0.524,0.423,1.049,0.632,1.568C151.943,787.549,151.733,787.028,151.523,786.508z"
		/>
	<path fill="#8F9CBA" d="M197.818,302.069c-0.381,0.325-0.762,0.65-1.144,0.976C197.053,302.72,197.436,302.395,197.818,302.069z"/>
	<path fill="#8F9CBA" d="M568.78,765.818c-0.807,1.121-1.529,2.315-2.434,3.351c-5.064,5.8-10.172,11.562-15.265,17.337
		c-0.806-0.584-1.677-0.847-2.631-0.426c-1.141,0.503-2.263,1.049-3.393,1.576c-15.701,7.323-30.57,16.24-46.035,24.018
		c-4.594,2.311-9.074,4.85-13.582,7.329c-7.649,4.207-15.283,8.441-22.914,12.68c-6.406,3.558-12.848,7.053-19.185,10.728
		c-9.04,5.242-18.425,9.816-27.729,14.547c-9.169,4.663-18.399,9.207-27.529,13.945c-8.163,4.236-16.147,8.822-24.356,12.965
		c-10.022,5.057-20.187,9.835-30.311,14.689c-5.061,2.426-10.222,4.649-15.243,7.152c-6.133,3.057-12.203,6.244-18.235,9.497
		c-7.134,3.848-14.149,7.921-21.308,11.72c-5.648,2.997-11.448,5.704-17.155,8.592c-1.662,0.841-3.233,1.86-4.846,2.797
		c-9.388-8.458-17.951-17.728-26.21-27.256c-7.849-9.055-15.35-18.412-22.409-28.11c0.119-0.364,0.238-0.729,0.359-1.094
		c12.343-1.469,24.122-5.005,35.515-9.857c6.602-2.812,13.16-5.743,19.637-8.832c7.179-3.423,14.301-6.976,21.34-10.678
		c6.904-3.631,13.682-7.5,20.496-11.3c6.814-3.8,13.636-7.587,20.395-11.482c8.112-4.675,16.221-9.361,24.226-14.217
		c14.695-8.914,28.658-18.905,42.369-29.251c9.963-7.517,19.925-15.037,29.826-22.636c7.92-6.078,15.719-12.313,23.623-18.413
		c7.656-5.909,15.38-11.729,23.067-17.599c15.748-12.026,31.47-24.087,47.243-36.081c14.532-11.05,29.126-22.017,43.673-33.048
		c8.827-6.694,17.573-13.493,26.428-20.149c13.844-10.408,27.586-20.962,41.668-31.04c18.783-13.443,37.919-26.391,57.899-38.019
		c7.28-4.237,14.663-8.334,22.218-12.05c7.973-3.922,16.001-7.805,24.552-10.397c2.09-0.634,4.199-1.224,6.329-1.696
		c1.046-0.232,2.166-0.242,3.243-0.184c1.154,0.062,1.86,1.323,1.384,2.428c-0.367,0.851-0.808,1.699-1.367,2.433
		c-7.079,9.313-13.892,18.83-21.706,27.573c-4.257,4.764-8.093,9.905-12.365,14.654c-3.542,3.938-7.416,7.582-11.199,11.297
		c-1.555,1.527-3.301,2.856-4.888,4.352c-6.923,6.53-13.761,13.15-20.742,19.617c-6.291,5.828-12.655,11.581-19.117,17.218
		c-7.871,6.866-15.897,13.553-23.821,20.359c-5.441,4.674-10.791,9.453-16.235,14.122c-5.326,4.567-10.749,9.02-16.074,13.588
		c-3.55,3.045-6.991,6.218-10.505,9.307c-3.747,3.294-7.519,6.558-11.285,9.83c-0.471,0.409-1.004,0.75-1.455,1.178
		c-6.676,6.336-13.493,12.533-19.952,19.084c-3.595,3.646-6.639,7.844-9.838,11.868c-2.465,3.101-3.844,6.786-5.055,10.498
		c-2.591,7.94,2.435,14.998,10.73,15.259c4.116,0.129,8.051-0.781,11.986-1.815C563.317,767.067,566.055,766.468,568.78,765.818z"/>
	<path fill="#222D57" d="M271.339,822.13c-0.563-0.1-2.142-0.205-3.607-0.671c-4.491-1.427-7.115-5.171-7.161-9.88
		c-0.027-2.743,0.882-5.217,2.112-7.589c2.17-4.185,4.865-8.039,8.234-11.316c4.806-4.676,9.69-9.286,14.76-13.671
		c9.566-8.274,19.721-15.805,29.85-23.375c7.743-5.787,15.277-11.886,22.591-18.209c15.465-13.368,30.694-27.009,46.089-40.461
		c5.051-4.413,10.178-8.761,15.504-12.834c13.762-10.522,27.52-21.058,41.538-31.232c10.731-7.788,21.887-14.99,32.801-22.528
		c19.134-13.215,38.353-26.313,57.289-39.807c10.542-7.512,20.516-15.818,30.875-23.593c9.61-7.213,19.33-14.285,29.114-21.262
		c15.083-10.755,31.676-18.726,48.651-25.955c1.433-0.61,2.923-1.099,4.416-1.548c0.888-0.267,1.827-0.448,2.751-0.491
		c5.008-0.233,7.916,3.875,5.852,8.397c-0.701,1.535-1.76,2.948-2.849,4.255c-1.897,2.276-3.877,4.493-5.94,6.619
		c-13.37,13.775-26.686,27.604-40.183,41.254c-18.463,18.673-38.16,35.953-59.199,51.688c-16.632,12.439-32.639,25.653-48.33,39.249
		c-14.288,12.381-29.12,24.05-44.751,34.689c-21.552,14.669-42.643,29.964-63.424,45.714c-13.052,9.892-26.559,19.207-40.13,28.385
		c-17.97,12.152-36.171,23.964-54.347,35.807c-3.514,2.29-7.304,4.196-11.094,6.012C279.501,821.336,275.996,822.188,271.339,822.13
		z"/>
	<path fill="#222D57" d="M958.923,223.505c-0.481,1.463-0.788,3.014-1.47,4.377c-9.273,18.549-19.102,36.803-29.391,54.807
		c-1.229,2.151-2.856,4.076-4.298,6.105c-1.87,0.264-2.883,1.785-4.104,2.925c-6.388,5.962-12.741,11.962-19.054,18.004
		c-6.426,6.15-12.786,12.369-19.184,18.549c-9.666,9.337-20.29,17.558-30.511,26.251c-7.603,6.467-15.233,12.952-22.315,19.97
		c-13.653,13.53-28.191,26.038-42.767,38.529c-11.61,9.949-23.103,20.042-34.43,30.312c-15.152,13.737-30.586,27.125-46.731,39.686
		c-3.025,2.354-6.2,4.115-10.146,4.336c-1.362,0.076-2.696,0.721-4.036,1.127c-3.408,1.034-6.507,0.547-9.107-1.984
		c-2.713-2.641-3.395-5.863-2.417-9.467c1.002-3.695,3.012-6.881,5.443-9.738c4.953-5.821,9.981-11.583,15.14-17.22
		c6.113-6.68,12.227-13.352,17.697-20.577c3.579-4.727,7.099-9.501,10.564-14.313c7.214-10.018,15.162-19.433,23.303-28.698
		c9.785-11.135,19.527-22.309,29.255-33.495c10.047-11.553,20.729-22.49,31.925-32.923c13.357-12.447,26.896-24.7,40.145-37.26
		c15.815-14.992,29.831-31.497,40.618-50.543c2.842-5.019,5.433-10.192,7.915-15.401c4.434-9.307,9.139-18.46,14.507-27.265
		c0.404-0.662,0.707-1.386,1.055-2.081c1.923,1.268,3.962,2.394,5.755,3.826c11.387,9.093,22.283,18.75,32.787,28.85
		C956.29,221.366,957.636,222.405,958.923,223.505z"/>
	<path fill="#8F9CBA" d="M579.392,1013.509c-0.641-0.801-1-1.671-0.072-2.452c0.951-0.801,2.006-1.478,3.02-2.203
		c8.754-6.262,17.625-12.369,26.227-18.835c6.474-4.867,12.596-10.202,18.888-15.311c5.084-4.128,10.166-8.257,15.289-12.336
		c8.783-6.993,17.62-13.918,26.389-20.928c6.331-5.061,12.648-10.144,18.863-15.346c5.378-4.501,10.596-9.193,15.899-13.784
		c2.357-2.041,4.76-4.029,7.125-6.06c4.255-3.655,8.496-7.327,12.746-10.988c6.14-5.288,12.295-10.559,18.419-15.865
		c3.299-2.858,6.544-5.778,9.821-8.661c2.809-2.471,5.601-4.963,8.451-7.386c7.481-6.359,15.048-12.617,22.47-19.043
		c6.48-5.611,12.796-11.412,19.211-17.099c4.431-3.929,8.906-7.807,13.36-11.709c0.352-0.308,0.698-0.624,1.041-0.942
		c13.722-12.745,27.068-25.876,40.156-39.267c5.013-5.129,9.985-10.31,14.723-15.69c6.179-7.016,12.206-14.172,18.118-21.416
		c7.901-9.682,16.132-19.054,25.379-27.471c7.491-6.819,15.164-13.436,22.743-20.158c1.05-0.931,2.043-1.929,3.032-2.926
		c5.505-5.545,11.6-10.41,17.651-15.325c2.299-1.868,4.636-3.69,6.992-5.487c0.437-0.333,1.044-0.444,1.504-0.629
		c0.849,0.984,0.32,1.688-0.029,2.337c-8.059,14.98-16.33,29.831-25.998,43.863c-5.847,8.486-12.129,16.636-18.605,24.637
		c-5.884,7.269-11.818,14.502-18.297,21.267c-3.557,3.714-6.998,7.54-10.452,11.352c-18.245,20.138-38.121,38.668-57.198,57.985
		c-9.757,8.31-18.234,17.954-27.663,26.591c-5.872,5.378-11.38,11.128-17.301,16.431c-11.611,10.4-23.381,20.625-35.865,29.989
		c-7.361,5.521-14.704,11.067-22.069,16.583c-1.135,0.85-2.329,1.613-2.507,3.196c-0.114,0.176-0.275,0.269-0.485,0.279
		c-1.185-0.147-1.977,0.338-2.369,1.468c-1.155,0.71-2.311,1.419-3.466,2.129c-1.06-0.032-1.797,0.435-2.202,1.419
		c-0.803,0.482-1.606,0.963-2.41,1.445c-1.076-0.021-1.844,0.433-2.248,1.451c-4.256,2.635-8.512,5.271-12.768,7.906
		c-1.067,0.003-1.828,0.462-2.213,1.482c-0.164,0.194-0.37,0.32-0.617,0.379c-1.068,0.014-1.818,0.489-2.192,1.511
		c-2.405,1.673-4.809,3.347-7.214,5.02c-1.067,0.041-1.798,0.541-2.143,1.568c-5.222,3.848-10.443,7.696-15.665,11.544
		c-1.067,0.042-1.8,0.539-2.141,1.571c-5.88,4.542-11.882,8.906-18.373,12.553c-1.07-0.025-1.845,0.413-2.253,1.431
		c-0.801,0.467-1.602,0.935-2.404,1.402c-1.078-0.053-1.857,0.381-2.28,1.396c-3.32,2.018-6.639,4.037-9.959,6.055
		c-1.047-0.03-1.815,0.394-2.234,1.38c-1.409,0.815-2.817,1.63-4.226,2.445c-1.082-0.086-1.876,0.327-2.325,1.34
		c-3.914,2.046-7.828,4.092-11.742,6.139c-2.481,0.198-4.63,1.026-6.065,3.203c-8.632,4.71-17.251,9.445-25.908,14.109
		C583.17,1012.004,581.248,1012.695,579.392,1013.509z"/>
	<path fill="#6C7BA0" d="M854.431,922.077c0.338-0.665,0.544-1.456,1.039-1.972c1.885-1.966,3.802-3.91,5.836-5.718
		c0.743-0.66,1.844-0.917,2.782-1.359C861.613,916.428,857.523,920.261,854.431,922.077z"/>
	<path fill="#6C7BA0" d="M837.695,937.303c1.252-3.525,3.619-5.829,7.315-6.678C843.074,933.402,840.788,935.795,837.695,937.303z"
		/>
	<path fill="#6C7BA0" d="M884.437,894.972c1.478-2.992,3.461-5.427,6.902-6.253C889.628,891.453,887.374,893.589,884.437,894.972z"
		/>
	<path fill="#6C7BA0" d="M876.002,902.424c1.224-2.616,2.916-4.705,5.95-5.284C880.467,899.463,878.559,901.309,876.002,902.424z"/>
	<path fill="#6C7BA0" d="M867.571,909.924c0.895-2.299,2.381-3.939,4.916-4.411C871.329,907.518,869.761,909.068,867.571,909.924z"
		/>
	<path fill="#6C7BA0" d="M610.857,996.937c1.436-2.177,3.584-3.005,6.065-3.203C615.24,995.443,613.178,996.436,610.857,996.937z"/>
	<path fill="#6C7BA0" d="M848.952,927.054c0.227-1.768,1.242-2.672,3.012-2.75C851.433,925.737,850.438,926.664,848.952,927.054z"/>
	<path fill="#6C7BA0" d="M727.998,922.17c0.392-1.131,1.184-1.615,2.369-1.468C729.873,921.667,729.102,922.188,727.998,922.17z"/>
	<path fill="#6C7BA0" d="M722.33,925.717c0.405-0.984,1.142-1.451,2.202-1.419C724.085,925.218,723.344,925.68,722.33,925.717z"/>
	<path fill="#6C7BA0" d="M717.671,928.613c0.405-1.018,1.173-1.472,2.248-1.451C719.449,928.076,718.686,928.54,717.671,928.613z"/>
	<path fill="#6C7BA0" d="M699.881,939.89c0.374-1.022,1.124-1.497,2.192-1.511C701.342,938.883,700.612,939.387,699.881,939.89z"/>
	<path fill="#6C7BA0" d="M690.524,946.479c0.345-1.027,1.076-1.527,2.143-1.568C691.953,945.433,691.238,945.956,690.524,946.479z"
		/>
	<path fill="#6C7BA0" d="M672.718,959.594c0.341-1.032,1.074-1.529,2.141-1.571C674.146,958.546,673.432,959.07,672.718,959.594z"/>
	<path fill="#6C7BA0" d="M652.093,973.577c0.407-1.018,1.183-1.456,2.253-1.431C653.87,973.057,653.1,973.504,652.093,973.577z"/>
	<path fill="#6C7BA0" d="M647.409,976.375c0.423-1.015,1.202-1.449,2.28-1.396C648.929,975.444,648.169,975.91,647.409,976.375z"/>
	<path fill="#6C7BA0" d="M635.215,983.81c0.419-0.986,1.186-1.41,2.234-1.38C636.97,983.32,636.208,983.752,635.215,983.81z"/>
	<path fill="#6C7BA0" d="M628.664,987.595c0.449-1.013,1.243-1.426,2.325-1.34C630.215,986.702,629.44,987.148,628.664,987.595z"/>
	<path fill="#6C7BA0" d="M702.69,938.001c0.385-1.02,1.146-1.48,2.213-1.482C704.166,937.013,703.428,937.507,702.69,938.001z"/>
	<path fill="#6C7BA0" d="M806.821,894.284c0,0-0.064-0.059-0.063-0.057C806.759,894.227,806.821,894.284,806.821,894.284z"/>
	<polygon fill="#6C7BA0" points="783.344,172.799 783.503,172.657 783.356,172.813 	"/>
	<polygon fill="#6C7BA0" points="434.127,322.129 434.432,322.035 434.392,322.307 	"/>
	<path fill="#6C7BA0" d="M987.53,333.912c0.181,1.972-1.285,3.124-2.328,4.417c-4.509,5.589-9.062,11.142-13.664,16.654
		c-19.322,23.145-40.006,45.039-60.913,66.745c-11.366,11.8-22.422,23.922-33.177,36.282
		c-15.267,17.543-30.408,35.212-45.089,53.246c-16.274,19.99-33.395,39.209-50.698,58.292
		c-12.898,14.225-25.674,28.56-39.137,42.256c-7.002,7.124-14.181,14.075-21.304,21.078c-6.234,6.129-12.494,12.232-18.765,18.322
		c-0.981,0.952-1.735,2.267-3.324,2.396c-0.175-1.429,0.834-2.28,1.604-3.236c10.37-12.886,20.818-25.71,31.101-38.665
		c11.836-14.911,23.663-29.832,35.246-44.939c13.103-17.088,26.09-34.27,38.836-51.625c13.117-17.86,26.09-35.833,38.743-54.023
		c12.742-18.318,25.022-36.957,37.478-55.473c1.041-1.548,1.823-3.269,2.843-4.834c0.574-0.881,1.387-1.605,2.093-2.4
		c-0.019,0.466-0.036,0.933-0.056,1.4c-0.048,1.137,0.608,1.734,1.624,1.896c1.925,0.307,3.753-0.228,5.405-1.111
		c2.054-1.098,4.071-2.306,5.956-3.67c10.093-7.308,20.124-14.701,30.206-22.024c17.644-12.815,35.302-25.61,52.98-38.378
		c1.366-0.986,2.932-1.695,4.406-2.533L987.53,333.912z"/>
	<path fill="#222D57" d="M285.742,965.179c-0.819-0.412-1.775-0.67-2.435-1.261c-4.103-3.673-8.16-7.399-12.185-11.158
		c-0.998-0.932-1.823-2.049-2.727-3.082c15.013-13.012,31.188-24.475,47.671-35.5c14.418-9.644,29.622-17.975,44.927-26.112
		c10.891-5.79,21.843-11.452,33.23-16.234c13.385-5.621,26.776-11.229,40.092-17.012c8.014-3.481,15.946-7.164,23.809-10.973
		c9.271-4.491,18.427-9.219,27.635-13.839c8.231-4.13,16.489-8.207,24.692-12.393c5.144-2.625,10.192-5.438,15.318-8.1
		c1.482-0.77,2.9-1.953,4.792-1.389c0.443,0.908-0.228,1.431-0.725,1.976c-2.714,2.979-5.431,5.954-8.174,8.906
		c-5.592,6.016-11.155,12.06-16.826,18.002c-2.24,2.347-4.736,4.449-7.115,6.664c-0.874,0.279-1.821,0.424-2.609,0.857
		c-12.027,6.607-24.094,13.137-35.766,20.378c-5.688,3.529-11.588,6.765-17.602,9.707c-9.383,4.59-18.899,8.918-28.44,13.176
		c-15.81,7.056-31.552,14.203-46.715,22.628c-20.074,11.154-39.506,23.258-57.82,37.125
		C301.061,953.381,293.416,959.299,285.742,965.179z"/>
	<path fill="#8F9CBA" d="M316.703,988.928c-1.214-0.658-2.538-1.172-3.624-1.998c-7.005-5.332-13.975-10.711-20.904-16.141
		c-0.808-0.633-1.295-1.677-1.927-2.53c0.635-0.455,1.226-0.988,1.905-1.355c12.354-6.669,24.715-13.324,37.083-19.966
		c2.062-1.107,4.189-2.094,6.245-3.213c9.316-5.071,18.623-10.157,27.92-15.261c6.837-3.753,13.68-7.495,20.472-11.328
		c10.595-5.979,21.183-11.973,31.712-18.066c9.72-5.625,19.377-11.361,29.031-17.1c10.727-6.377,21.408-12.832,32.145-19.192
		c1.168-0.692,2.578-0.976,3.876-1.449c-0.303,0.539-0.517,1.159-0.924,1.603c-3.574,3.901-7.07,7.883-10.799,11.632
		c-17.464,17.562-34.986,35.066-52.509,52.57c-2.525,2.522-5.168,4.925-7.756,7.383c-1.061-0.787-2.054-0.4-3.036,0.177
		c-4.03,2.363-8.071,4.707-12.088,7.092c-10.847,6.441-21.673,12.917-32.529,19.342c-5.36,3.172-10.798,6.214-16.146,9.405
		c-4.279,2.553-8.532,5.159-12.696,7.895C326.95,981.846,321.849,985.421,316.703,988.928z"/>
	<path fill="#6C7BA0" d="M613.827,753.715c1.77,0.139,3.388-0.362,4.96-1.125c9.828-4.773,19.709-9.439,29.47-14.345
		c4.035-2.028,7.827-4.541,11.706-6.874c2.339-1.408,4.851-1.944,7.568-2.104c7.022-0.415,11.646,6.994,9.307,13.316
		c-0.89,2.406-2.299,4.412-4.548,5.769c-3.607,2.177-7.21,4.362-10.787,6.588c-3.445,2.144-6.899,4.278-10.273,6.531
		c-11.688,7.805-23.673,15.124-35.993,21.881c-11.766,6.453-23.628,12.731-35.415,19.147c-5.206,2.834-10.352,5.781-15.48,8.756
		c-1.388,0.805-2.772,1.408-4.386,1.422c4.881-5.456,9.763-10.913,14.648-16.368c10.706-11.954,21.381-23.935,32.147-35.834
		C608.933,758.062,611.459,755.96,613.827,753.715z"/>
	<path fill="#6C7BA0" d="M530.561,808.127c-1.892-0.564-3.31,0.62-4.792,1.389c-5.126,2.662-10.174,5.475-15.318,8.1
		c-8.203,4.186-16.461,8.263-24.692,12.393c-9.209,4.62-18.364,9.348-27.635,13.839c-7.864,3.809-15.795,7.492-23.809,10.973
		c-13.315,5.783-26.707,11.391-40.092,17.012c-11.387,4.782-22.339,10.444-33.23,16.234c-15.305,8.137-30.509,16.468-44.927,26.112
		c-16.483,11.025-32.658,22.488-47.671,35.5c-4.424-3.268-8.102-7.307-11.765-11.365c1.611-0.937,3.183-1.956,4.844-2.797
		c5.706-2.888,11.507-5.595,17.155-8.592c7.16-3.799,14.174-7.872,21.308-11.72c6.031-3.253,12.102-6.44,18.235-9.497
		c5.022-2.503,10.182-4.726,15.243-7.152c10.124-4.854,20.288-9.632,30.311-14.689c8.209-4.142,16.192-8.729,24.356-12.965
		c9.13-4.737,18.36-9.282,27.529-13.945c9.304-4.731,18.689-9.305,27.729-14.547c6.338-3.675,12.78-7.171,19.185-10.728
		c7.631-4.239,15.265-8.473,22.914-12.68c4.508-2.479,8.988-5.018,13.582-7.329c15.464-7.779,30.334-16.695,46.035-24.018
		c1.13-0.527,2.252-1.073,3.393-1.576c0.954-0.42,1.825-0.158,2.631,0.426c-4.614,5.211-9.24,10.412-13.834,15.64
		c-1.121,1.275-2.086,2.689-3.223,3.947c-0.698,0.773-1.587,1.373-2.39,2.05c-0.425-0.1-0.855-0.754-1.272,0.012L530.561,808.127z"
		/>
	<path fill="#6C7BA0" d="M480.638,861.329c-1.298,0.473-2.708,0.757-3.876,1.449c-10.737,6.36-21.418,12.815-32.145,19.192
		c-9.654,5.739-19.311,11.475-29.031,17.1c-10.53,6.093-21.117,12.087-31.712,18.066c-6.792,3.833-13.636,7.574-20.472,11.328
		c-9.297,5.104-18.605,10.19-27.92,15.261c-2.056,1.119-4.183,2.105-6.245,3.213c-12.368,6.642-24.73,13.297-37.083,19.966
		c-0.68,0.367-1.27,0.9-1.905,1.355c-1.85-0.521-3.264-1.674-4.505-3.079c7.674-5.88,15.319-11.798,23.026-17.634
		c18.314-13.867,37.745-25.971,57.82-37.125c15.163-8.425,30.906-15.572,46.715-22.628c9.541-4.258,19.057-8.586,28.44-13.176
		c6.013-2.942,11.914-6.178,17.602-9.707c11.673-7.242,23.739-13.771,35.766-20.378c0.789-0.433,1.735-0.578,2.609-0.857
		c-0.246,0.557-0.362,1.241-0.76,1.652C491.663,850.805,486.689,856.618,480.638,861.329z"/>
	<path fill="#6C7BA0" d="M316.703,988.928c5.146-3.507,10.248-7.082,15.452-10.501c4.164-2.735,8.417-5.341,12.696-7.895
		c5.348-3.191,10.786-6.233,16.146-9.405c10.856-6.425,21.682-12.902,32.529-19.342c4.017-2.385,8.058-4.729,12.088-7.092
		c0.983-0.576,1.975-0.963,3.036-0.177c-2.445,2.409-4.875,4.833-7.341,7.22c-1.345,1.303-2.759,2.534-4.125,3.815
		c-12.076,11.313-24.078,22.707-36.248,33.918c-7.46,6.873-15.157,13.49-22.8,20.163c-1.151,1.005-2.585,1.684-3.882,2.514
		c-1.313-1.041-2.59-2.14-3.96-3.109c-3.5-2.477-7.066-4.86-10.55-7.358C318.642,990.889,317.712,989.853,316.703,988.928z"/>
	<path fill="#6C7BA0" d="M933.948,323.479c-0.161,0.58-0.205,1.231-0.502,1.73c-2.655,4.467-5.341,8.915-8.062,13.342
		c-0.299,0.487-0.874,0.804-1.322,1.2c0.087-0.444,0.061-0.957,0.28-1.323c2.822-4.726,5.669-9.438,8.545-14.131
		C933.104,323.942,933.588,323.748,933.948,323.479z"/>
	<path fill="#6C7BA0" d="M893.723,388.154c-1.37,3.679-3.378,6.931-6.368,9.526C889.023,393.866,891.16,390.668,893.723,388.154z"/>
	<path fill="#6C7BA0" d="M900.312,377.867c-0.832,2.679-2.148,5.046-4.393,6.815C896.697,381.968,898.007,379.597,900.312,377.867z"
		/>
	<path fill="#6C7BA0" d="M906.843,367.544c-0.806,2.692-2.134,5.053-4.355,6.846C903.241,371.664,904.562,369.299,906.843,367.544z"
		/>
	<path fill="#6C7BA0" d="M920.862,345.041c-0.78,2.702-2.073,5.085-4.288,6.894C917.296,349.197,918.599,346.821,920.862,345.041z"
		/>
	<path fill="#6C7BA0" d="M936.842,318.829c-0.293,1.684-1.032,3.085-2.538,3.999C934.512,321.091,935.257,319.693,936.842,318.829z"
		/>
	<path fill="#6C7BA0" d="M923.717,340.38c-0.237,1.712-0.984,3.108-2.502,4.025C921.427,342.677,922.154,341.268,923.717,340.38z"/>
	<path fill="#6C7BA0" d="M916.224,352.56c-0.246,1.709-0.998,3.1-2.521,4.005C913.916,354.836,914.646,353.431,916.224,352.56z"/>
	<path fill="#6C7BA0" d="M911.544,360.063c-0.238,1.715-1.009,3.092-2.532,3.992C909.222,362.322,909.968,360.93,911.544,360.063z"
		/>
	<path fill="#6C7BA0" d="M902.124,375.021c0.002,1.059-0.443,1.826-1.454,2.223C900.645,376.17,901.107,375.414,902.124,375.021z"/>
	<path fill="#6C7BA0" d="M913.336,357.208c0.005,1.053-0.426,1.825-1.433,2.227C911.87,358.364,912.327,357.608,913.336,357.208z"/>
	<path fill="#6C7BA0" d="M908.641,364.7c-0.002,1.05-0.431,1.823-1.44,2.22C907.176,365.853,907.625,365.093,908.641,364.7z"/>
	<path fill="#6C7BA0" d="M696.136,657.065c0.023,1.176-0.53,1.902-1.686,2.158C694.361,657.996,694.932,657.283,696.136,657.065z"/>
	<path fill="#6C7BA0" d="M895.545,385.324c0.003,1.059-0.447,1.818-1.458,2.208C894.061,386.458,894.526,385.708,895.545,385.324z"
		/>
	<path fill="#222D57" d="M530.362,808.156c0.417-0.766,0.847-0.112,1.272-0.012C531.21,808.148,530.786,808.152,530.362,808.156z"/>
	<polygon fill="#6C7BA0" points="987.595,333.986 987.801,333.803 987.53,333.912 	"/>
</g>
</svg>
