<?xml version="1.0" encoding="utf-8"?>
<!-- Designed by Vexels.com - 2020 All Rights Reserved - https://vexels.com/terms-and-conditions/  -->
<svg version="1.1" id="Capa_1" xmlns="http://www.w3.org/2000/svg" xmlns:xlink="http://www.w3.org/1999/xlink" x="0px" y="0px"
	 viewBox="0 0 1200 1200" enable-background="new 0 0 1200 1200" xml:space="preserve">
<g>
	<path fill="none" d="M945.168,431.257L945.168,431.257L945.168,431.257z"/>
	<path fill="none" d="M946.514,432.526c-0.173,0.287-0.353,0.57-0.522,0.859c0,0,0,0,0,0
		C946.16,433.096,946.34,432.813,946.514,432.526z"/>
	<path fill="none" d="M946.312,479.998c0-0.013-0.001-0.026-0.001-0.039C946.311,479.972,946.311,479.985,946.312,479.998z"/>
	<path fill="none" d="M735.899,218.749c0.344-0.514,0.687-1.028,1.03-1.542C736.586,217.721,736.243,218.235,735.899,218.749
		L735.899,218.749z"/>
	<path fill="none" d="M896.262,743.488c2.36,1.302,4.852,2.062,7.397,2.49C901.113,745.551,898.621,744.789,896.262,743.488
		c1.31-3.074,2.743-6.107,4.053-9.181C899.004,737.381,897.572,740.413,896.262,743.488z"/>
	<path fill="none" d="M900.315,734.307c0.525-1.23,1.03-2.466,1.5-3.714C901.345,731.841,900.84,733.077,900.315,734.307z"/>
	<path fill="none" d="M731.777,142.424c-0.055-1.365-0.001-2.743-0.027-4.111c-0.323-0.415-0.646-0.829-0.97-1.244
		c0.323,0.415,0.646,0.829,0.97,1.244C731.777,139.681,731.722,141.059,731.777,142.424z"/>
	<path fill="none" d="M904.616,746.123c0.64,0.087,1.282,0.155,1.926,0.207C905.898,746.278,905.256,746.21,904.616,746.123z"/>
	<path fill="none" d="M895.553,744.169c-0.273,1.207-0.446,2.452-0.76,3.644C895.107,746.621,895.28,745.376,895.553,744.169
		L895.553,744.169z"/>
	<path fill="none" d="M899.842,209.415L899.842,209.415c-0.059-0.05-0.117-0.103-0.175-0.154
		C899.726,209.313,899.782,209.365,899.842,209.415z"/>
	<path fill="none" d="M945.254,475.271c0.294,0.496,0.509,1.005,0.665,1.525C945.762,476.276,945.548,475.766,945.254,475.271
		C945.254,475.271,945.254,475.271,945.254,475.271z"/>
	<path fill="none" d="M734.805,1123.083c0.085,1.236,0.016,2.499,0.059,3.743c0.545,0.594,0.927,1.254,1.216,1.951
		c-0.289-0.697-0.671-1.357-1.217-1.951c-1.6,0.468-3.191,0.971-4.788,1.453c1.596-0.482,3.188-0.985,4.788-1.453
		C734.821,1125.582,734.89,1124.319,734.805,1123.083z"/>
	<path fill="none" d="M902.962,206.754c0.363-0.295,0.731-0.584,1.109-0.86C903.693,206.17,903.325,206.459,902.962,206.754z"/>
	<path fill="none" d="M944.7,429.058c-0.113-0.742-0.189-1.49-0.253-2.239C944.511,427.568,944.588,428.316,944.7,429.058z"/>
	<path fill="none" d="M689.509,983.786c-1.439,11.033-3.963,21.888-6.472,32.731c1.099-0.611,2.24-1.166,3.351-1.76
		c-1.112,0.594-2.253,1.149-3.353,1.76C685.545,1005.674,688.069,994.819,689.509,983.786z"/>
	<path fill="none" d="M614.512,1057.825L614.512,1057.825c-0.005-1.086-0.024-2.173-0.045-3.26
		C614.488,1055.652,614.507,1056.739,614.512,1057.825z"/>
	<path fill="none" d="M711.964,995.948c0,0,0.016,0.002,0.032,0.004L711.964,995.948z"/>
	<path fill="none" d="M899.017,204.339c0.443,1.435,0.684,2.897,0.093,4.435c0,0,0,0-0.001-0.001
		C899.702,207.236,899.461,205.774,899.017,204.339z"/>
	<path fill="none" d="M613.329,1059.314c0.318,1.621,0.715,3.232,0.932,4.866c-0.217-1.634-0.614-3.245-0.933-4.866
		c0.23-0.289,0.46-0.578,0.69-0.867C613.788,1058.736,613.559,1059.025,613.329,1059.314z"/>
	<path fill="none" d="M1071.84,321.383c-0.579,1.205-1.161,2.408-1.724,3.619C1070.679,323.79,1071.261,322.587,1071.84,321.383z"/>
	<path fill="#EEB548" d="M213.763,265.737c2.594,9.377,5.718,18.557,9.992,27.332c3.433,7.047,8.183,13.033,14.081,18.12
		c12.61,10.876,27.158,5.484,33.993-3.834c6.638-9.051,9.717-19.36,10.901-30.367c1.427-13.261,0.644-26.443-1.649-39.532
		c-3.915-22.352-10.05-44.075-18.917-64.993c-0.652-1.538-1.465-3.006-2.201-4.508c0.847-0.803,1.628-1.689,2.546-2.396
		c11.263-8.67,22.775-16.997,34.659-24.799c3.342-2.194,6.834-4.16,10.257-6.231c8.7,4.344,14.877,11.26,19.691,19.505
		c2.884,4.939,4.896,10.284,6.772,15.668c5.516,15.831,10.782,31.747,13.955,48.244c2.701,14.04,3.536,28.215,2.762,42.522
		c-0.653,12.07-1.92,24.032-4.162,35.913c-2.898,15.357-6.857,30.396-12.902,44.832c-6.279,14.995-11.876,30.249-17.405,45.53
		c-3.362,9.293-6.997,18.495-10.101,27.872c-4.905,14.821-8.359,30.049-10.73,45.451c-2.194,14.251,1.274,27.349,10.775,38.462
		c4.524,5.291,10.213,9.213,16.659,11.829c5.587,2.268,11.526,1.997,17.376,1.365c8.542-0.923,16.005-4.237,22.714-9.777
		c6.271-5.178,11.395-11.338,16.446-17.547c12.9-15.852,22.16-33.878,30.425-52.449c6.693-15.037,11.48-30.737,16.212-46.467
		c3.872-12.873,6.292-26.04,8.695-39.231c3.094-16.986,6.779-33.853,11.602-50.436c3.945-13.561,9.492-26.486,16.678-38.676
		c2.569-4.358,5.648-8.308,9.401-11.717c0.62-0.563,1.224-1.149,1.886-1.658c3.871-2.978,6.391-3.146,10.577-0.517
		c3.451,2.168,6.275,5.053,8.489,8.45c3.11,4.771,6.154,9.592,9.045,14.497c3.331,5.65,7.028,11.056,11.342,15.957
		c6.501,7.386,14.246,13.391,23.521,16.748c12.405,4.489,23.727,1.674,33.756-6.704c10.759-8.987,16.506-20.921,19.823-34.193
		c2.681-10.728,2.702-21.53,0.559-32.402c-2.564-13.007-7.965-24.837-14.464-36.248c-4.489-7.882-9.988-15.077-15.3-22.4
		c-6.492-8.951-13.155-17.794-18.22-27.68c-6.345-12.384-10.092-25.496-11.057-39.404c-0.537-7.735-0.133-15.427,1.197-23.028
		c1.357-7.748,3.144-15.421,4.736-23.125c1.789-0.286,3.575-0.704,5.381-0.838c11.749-0.87,23.501-1.694,35.255-2.486
		c1.645-0.111,3.307,0.039,4.961,0.068c-1.069,4.222-2.278,8.414-3.184,12.671c-4.49,21.098-3.874,42.034,3.132,62.492
		c4.366,12.748,10.973,24.426,19.193,35.162c1.986,2.594,4.543,4.463,7.153,6.262c7.562,5.211,15.941,7.752,25.154,7.065
		c9.328-0.696,16.376-5.429,21.809-12.797c1.19-1.614,2.136-3.405,3.221-5.098c1.717-2.68,3.372-5.405,5.208-8.002
		c2.072-2.929,4.834-4.916,8.208-6.356c13.583-5.796,27.751-7.407,42.331-6.377c1.211,0.086,2.42,0.18,3.629,0.28
		c3.628,0.299,7.253,0.648,10.879,0.961c0.09,0.116,0.18,0.231,0.27,0.346c0.323,0.415,0.646,0.829,0.97,1.244
		c0.026,1.368-0.029,2.746,0.027,4.111c0.019,0.455,0.049,0.909,0.099,1.36c1.951,17.601,3.453,35.233,3.988,52.941
		c0.172,5.674,0.388,11.348,0.626,17.02c0.049,1.158,0.287,2.308,0.439,3.462c-0.343,0.514-0.686,1.029-1.03,1.542
		c-1.142,0.521-2.319,0.98-3.448,1.525c-0.376,0.181-0.747,0.372-1.109,0.578c-8.646,4.908-16.554,10.77-23.413,18.023
		c-4.39,4.643-6.92,10.259-8.755,16.222c-4.595,14.942-7.834,30.143-8.911,45.794c-0.367,5.329-1.559,10.598-2.29,15.906
		c-0.548,3.973-2.76,6.628-6.055,8.758c-8.831,5.71-18.427,9.555-28.581,12.083c-11.499,2.864-23.165,3.509-34.947,2.427
		c-9.859-0.905-19.744-1.313-29.633-0.907c-12.1,0.497-24.031,2.34-35.672,5.69c-20.292,5.838-39.164,14.775-56.685,26.551
		c-4.887,3.285-9.452,6.95-13.108,11.629c-6.143,7.863-7.817,16.899-6.832,26.574c0.893,8.78,3.572,17.054,7.687,24.833
		c4.634,8.76,10.195,16.887,16.406,24.644c7.083,8.845,15.868,15.381,25.871,20.307c7.207,3.549,14.672,6.592,22.103,9.664
		c8.098,3.349,15.756,7.446,22.814,12.637c2.986,2.196,5.697,4.718,7.704,7.859c3.084,4.827,4.385,10.127,3.662,15.842
		c-0.946,7.481-1.888,14.963-2.958,22.427c-1.69,11.791-3.201,23.586-2.63,35.544c0.337,7.05,0.999,14.032,3.299,20.78
		c2.688,7.89,7.379,14.155,14.314,18.857c9.297,6.303,19.361,8.907,30.533,7.236c7.168-1.072,14.135-2.859,20.841-5.556
		c5.593-2.251,11.072-4.786,16.612-7.171c1.191-0.513,2.428-0.92,4.096-1.545c0.071,1.176,0.298,1.968,0.125,2.661
		c-0.405,1.622-0.955,3.213-1.527,4.787c-3.661,10.081-7.363,20.147-11,30.236c-0.56,1.556-0.853,3.208-1.271,4.815
		c-0.001,0-0.001,0-0.002,0c-1.124,1.586-2.248,3.172-3.372,4.757c-1.295,0.762-2.729,1.359-3.861,2.314
		c-4.223,3.563-8.496,7.087-12.476,10.912c-6.887,6.617-13.578,13.439-20.335,20.191c-10.15,10.143-21.744,18.339-34.177,25.413
		c-10.508,5.979-21.539,10.885-32.624,15.64c-10.314,4.424-20.724,8.648-31.233,12.583c-9.759,3.655-19.907,6.008-30.304,6.937
		c-9.675,0.864-19.371,1.599-29.074,2.017c-10.607,0.457-21.013,2.023-31.259,4.688c-24.969,6.495-48.7,16.097-70.729,29.528
		c-11.145,6.795-21.783,14.437-32.506,21.903c-9.761,6.797-19.299,13.911-28.983,20.819c-14.458,10.314-29.015,20.49-43.425,30.871
		c-15.632,11.262-31.107,22.743-46.725,34.026c-8.148,5.886-16.494,11.497-24.676,17.338c-5.587,3.988-11.044,8.157-16.562,12.243
		c-0.372-0.544-0.742-1.087-1.112-1.629c0,0-0.262-0.349-0.259-0.344c-0.964-1.141-2.005-2.233-2.887-3.441
		c-16.735-22.94-31.736-46.959-44.769-72.193c-1.6-3.099-2.996-6.304-4.487-9.46c2.175-1.198,4.563-0.901,6.891-0.951
		c14.102-0.303,28.105-1.468,41.896-4.602c9.978-2.268,19.779-5.073,29.351-8.74c9.403-3.602,18.679-7.432,27.42-12.467
		c8.306-4.786,16.159-10.146,22.792-17.177c4.277-4.534,8.136-9.383,11.246-14.757c4.195-7.247,8.118-14.652,12.167-21.984
		c2.753-4.986,5.493-9.981,8.29-14.943c4.954-8.789,11.787-15.826,20.225-21.293c11.777-7.63,24.527-13.059,38.135-16.445
		c9.801-2.438,19.754-3.502,29.874-3.498c14.604,0.006,29.107,1.44,43.643,2.493c10.357,0.751,20.73,1.297,31.099,1.89
		c3.846,0.22,7.699,0.431,11.549,0.443c12.084,0.038,24.129-0.311,35.813-3.986c9.054-2.848,17.3-7.232,24.835-12.947
		c3.063-2.323,6.036-4.793,8.852-7.408c12.385-11.502,17.188-26.04,16.598-42.59c-0.575-16.139-6.293-30.288-16.451-42.85
		c-5.083-6.286-10.562-12.154-16.521-17.542c-10.285-9.3-21.9-16.522-34.978-21.328c-11.41-4.193-23.182-6.557-35.271-7.599
		c-13.051-1.125-26.123-0.692-39.188-0.799c-12.595-0.103-25.101,0.995-37.568,2.687c-7.14,0.968-14.291,1.848-21.429,2.825
		c-3.718,0.509-7.309,0.33-10.877-1.019c-3.759-1.422-7.604-2.623-11.432-3.856c-11.649-3.751-20.433-11.302-27.481-21.002
		c-6.445-8.871-11.188-18.709-14.958-28.951c-1.604-4.357-2.383-9.077-3.062-13.702c-0.973-6.626-1.508-13.315-2.233-19.977
		c-0.127-1.166-0.115-2.373-0.43-3.488c-3.045-10.795-4.942-21.87-8.614-32.531c-5.077-14.743-12.421-28.184-21.609-40.676
		c-6.851-9.315-14.438-18.027-22.042-26.739c-8.694-9.96-17.561-19.804-25.203-30.639c-8.318-11.794-16.282-23.801-21.693-37.281
		c-1.435-3.574-2.637-7.24-3.977-10.853c-0.756-2.038-1.576-4.053-2.366-6.081c3.989-5.577,7.777-11.308,12.009-16.69
		c7.547-9.6,15.248-19.085,23.111-28.427c4.191-4.98,8.855-9.561,13.305-14.322c3.701,5.083,5.997,10.874,7.813,16.784
		C209.396,248.87,211.441,257.345,213.763,265.737z"/>
	<path fill="#E78420" d="M156.943,300.14c5.411,13.48,13.374,25.486,21.693,37.281c7.642,10.835,16.509,20.679,25.203,30.639
		c7.604,8.712,15.191,17.424,22.042,26.739c9.188,12.491,16.532,25.933,21.609,40.676c3.672,10.661,5.569,21.736,8.614,32.531
		c0.315,1.114,0.303,2.322,0.43,3.488c0.725,6.662,1.26,13.351,2.233,19.977c0.679,4.625,1.458,9.345,3.062,13.702
		c3.77,10.241,8.513,20.08,14.958,28.951c7.048,9.7,15.832,17.25,27.481,21.002c3.828,1.233,7.673,2.434,11.432,3.856
		c3.568,1.35,7.158,1.529,10.877,1.019c7.138-0.977,14.289-1.857,21.429-2.825c12.466-1.692,24.972-2.79,37.568-2.687
		c13.066,0.108,26.137-0.325,39.188,0.799c12.09,1.042,23.861,3.406,35.271,7.599c13.078,4.806,24.693,12.028,34.978,21.328
		c5.958,5.388,11.438,11.256,16.521,17.542c10.158,12.562,15.876,26.711,16.451,42.85c0.59,16.55-4.213,31.088-16.598,42.59
		c-2.817,2.615-5.789,5.085-8.852,7.408c-7.535,5.715-15.781,10.099-24.835,12.947c-11.684,3.675-23.729,4.024-35.813,3.986
		c-3.85-0.012-7.704-0.223-11.549-0.443c-10.369-0.593-20.741-1.139-31.099-1.89c-14.536-1.054-29.04-2.487-43.643-2.493
		c-10.12-0.004-20.073,1.06-29.874,3.498c-13.607,3.386-26.358,8.815-38.135,16.445c-8.439,5.467-15.272,12.503-20.225,21.293
		c-2.796,4.962-5.536,9.956-8.29,14.943c-4.048,7.332-7.972,14.737-12.167,21.984c-3.111,5.374-6.97,10.223-11.246,14.757
		c-6.632,7.031-14.485,12.391-22.792,17.177c-8.741,5.035-18.016,8.865-27.42,12.467c-9.572,3.667-19.374,6.472-29.351,8.74
		c-13.791,3.134-27.794,4.299-41.896,4.602c-2.328,0.05-4.717-0.247-6.891,0.951c-0.599-0.996-1.307-1.944-1.781-2.997
		c-4.889-10.846-10.033-21.587-14.55-32.586c-19.547-47.594-32.066-97.006-37.654-148.151
		c-7.57-69.291-2.184-137.589,16.113-204.831c14.494-53.263,36.61-103.201,66.191-149.803c4.752-7.486,9.975-14.673,14.979-21.996
		c0.79,2.028,1.61,4.042,2.366,6.081C154.306,292.899,155.508,296.566,156.943,300.14z"/>
	<path fill="#E78420" d="M202.055,901.057c15.618-11.283,31.092-22.764,46.725-34.026c14.41-10.38,28.966-20.557,43.425-30.871
		c9.684-6.908,19.223-14.022,28.983-20.819c10.723-7.467,21.361-15.108,32.506-21.903c22.029-13.431,45.759-23.033,70.729-29.528
		c10.245-2.665,20.652-4.231,31.259-4.688c9.703-0.418,19.399-1.153,29.074-2.017c10.397-0.929,20.545-3.282,30.304-6.937
		c10.509-3.935,20.92-8.159,31.233-12.583c11.085-4.755,22.117-9.66,32.624-15.64c12.432-7.074,24.027-15.27,34.177-25.413
		c6.757-6.752,13.448-13.573,20.335-20.191c3.98-3.825,8.253-7.349,12.476-10.912c1.132-0.955,2.566-1.552,3.861-2.314
		c0.415,2.49-0.838,4.591-1.72,6.72c-6.605,15.938-13.192,31.885-19.973,47.748c-9.75,22.807-20.495,45.157-31.95,67.147
		c-8.122,15.594-16.709,30.951-25.3,46.295c-11.872,21.207-24.775,41.796-38.555,61.806c-9.971,14.479-20.246,28.762-30.795,42.825
		c-6.922,9.229-14.593,17.896-21.895,26.842c-8.05,9.864-16.613,19.25-25.471,28.401c-4.646,4.8-8.609,10.316-13.723,14.64
		c-7.175,6.067-13.532,12.997-20.604,19.137c-16.826,14.609-34.186,28.562-53.08,40.457c-7.081,4.458-14.422,8.507-21.67,12.697
		c-2.754,1.593-5.581,3.06-8.374,4.584c-2.23-1.15-4.5-2.229-6.684-3.461c-24.699-13.945-48.211-29.659-70.464-47.26
		c-14.337-11.341-28.141-23.281-41.272-36.001c-14.336-13.887-28.023-28.384-40.723-43.783c-5.751-6.973-11.143-14.24-16.696-21.373
		c5.517-4.086,10.975-8.255,16.562-12.243C185.561,912.555,193.907,906.943,202.055,901.057z"/>
	<path fill="#E78420" d="M532.248,99.868c0.965,13.908,4.712,27.02,11.057,39.404c5.065,9.887,11.728,18.729,18.22,27.68
		c5.311,7.323,10.811,14.518,15.3,22.4c6.499,11.41,11.9,23.241,14.464,36.248c2.143,10.871,2.123,21.674-0.559,32.402
		c-3.317,13.272-9.065,25.206-19.823,34.193c-10.029,8.378-21.351,11.193-33.756,6.704c-9.274-3.356-17.02-9.361-23.521-16.748
		c-4.314-4.901-8.011-10.307-11.342-15.957c-2.892-4.905-5.935-9.726-9.045-14.497c-2.214-3.397-5.038-6.282-8.489-8.45
		c-4.186-2.63-6.706-2.461-10.577,0.517c-0.662,0.509-1.266,1.095-1.886,1.658c-3.753,3.409-6.832,7.359-9.401,11.717
		c-7.185,12.19-12.733,25.115-16.678,38.676c-4.823,16.582-8.508,33.45-11.602,50.436c-2.403,13.191-4.823,26.358-8.695,39.231
		c-4.732,15.73-9.519,31.43-16.212,46.467c-8.265,18.57-17.526,36.597-30.425,52.449c-5.052,6.209-10.176,12.369-16.446,17.547
		c-6.709,5.541-14.172,8.855-22.714,9.777c-5.851,0.632-11.789,0.903-17.376-1.365c-6.446-2.616-12.135-6.538-16.659-11.829
		c-9.501-11.113-12.969-24.211-10.775-38.462c2.371-15.402,5.825-30.63,10.73-45.451c3.104-9.378,6.739-18.58,10.101-27.872
		c5.529-15.281,11.126-30.534,17.405-45.53c6.045-14.436,10.004-29.475,12.902-44.832c2.242-11.88,3.509-23.842,4.162-35.913
		c0.774-14.306-0.061-28.481-2.762-42.522c-3.173-16.497-8.439-32.413-13.955-48.244c-1.876-5.384-3.888-10.729-6.772-15.668
		c-4.814-8.246-10.991-15.161-19.691-19.505c1.081-0.777,2.119-1.624,3.25-2.32c67.295-41.487,140.16-67.315,218.534-77.627
		c2.975-0.392,5.977-0.582,8.972-0.868c-1.592,7.704-3.379,15.377-4.736,23.125C532.115,84.441,531.711,92.133,532.248,99.868z"/>
	<path fill="#DF5014" d="M736.08,1128.777c-0.289-0.697-0.671-1.357-1.216-1.951c-0.043-1.243,0.026-2.507-0.059-3.743
		c-0.029-0.412-0.074-0.821-0.146-1.225c-1.475-8.232-3.135-16.432-4.592-24.667c-2.855-16.138-5.649-32.286-8.41-48.44
		c-3.015-17.641-5.789-35.326-9.693-52.804l0.032,0.004c0.013,0.002,0.027,0.004,0.027,0.004c4.126-3.41,8.249-6.824,12.384-10.225
		c0.646-0.531,1.398-0.939,2.016-1.497c5.837-5.267,11.704-10.504,17.461-15.858c3.188-2.966,5.999-6.355,9.306-9.171
		c5.996-5.107,11.551-10.596,16.623-16.628c2.579-3.067,5.712-5.661,8.461-8.594c2.627-2.803,5.084-5.767,7.611-8.664
		c0.44-0.505,0.84-1.046,1.291-1.54c11.983-13.117,22.75-27.195,33.354-41.435c9.422-12.653,18.042-25.82,26.343-39.194
		c6.356-10.24,12.082-20.871,18.088-31.327c0,0,0,0,0,0c8.929,1.774,17.745,3.941,26.346,6.925c1.229,0.426,2.453,0.869,3.673,1.33
		c5.325,2.012,10.792,3.647,16.112,5.671c4.537,1.726,8.966,3.739,13.422,5.672c3.075,1.334,6.079,2.835,9.18,4.103
		c4.211,1.723,8.571,2.754,13.17,2.969c6.791,0.317,12.935-1.879,18.797-4.779c7.203-3.564,14.155-7.632,21.24-11.438
		c5.756-3.093,11.548-6.063,17.738-8.295c7.801-2.814,15.745-3.016,23.807-2.181c3.16,0.327,6.283,1.023,9.421,1.564
		c13.046,2.248,26.084,4.548,39.141,6.732c6.123,1.024,12.303,1.459,18.525,1.354c2.501-0.042,5.009,0.271,7.514,0.421
		c-0.879,2.164-1.678,4.365-2.649,6.489c-24.233,52.979-55.996,100.951-95.423,143.866c-15.667,17.054-32.334,33.046-49.998,47.995
		c-17.021,14.405-34.896,27.679-53.56,39.9c-47.887,31.359-99.439,54.599-154.568,69.943c-3.22,0.896-6.499,1.58-9.75,2.363
		c0,0,0,0,0,0C736.79,1131.2,736.563,1129.938,736.08,1128.777z"/>
	<path fill="#DF5E13" d="M366.7,1065.233c18.894-11.895,36.254-25.849,53.08-40.457c7.072-6.14,13.429-13.07,20.604-19.137
		c5.114-4.324,9.077-9.84,13.723-14.64c8.857-9.151,17.421-18.537,25.471-28.401c7.302-8.946,14.973-17.613,21.895-26.842
		c10.549-14.063,20.824-28.346,30.795-42.825c13.781-20.01,26.683-40.599,38.555-61.806c8.591-15.344,17.177-30.701,25.3-46.295
		c11.455-21.99,22.201-44.34,31.95-67.147c6.782-15.863,13.368-31.81,19.973-47.748c0.882-2.129,2.135-4.23,1.72-6.72
		c1.124-1.586,2.248-3.172,3.372-4.757c0.001,0,0.001,0,0.002,0c0,0,0,0.001,0,0.001c1.77,0.056,3.024-0.947,4.315-1.911
		c0.185-0.138,0.37-0.274,0.558-0.407c14.925-10.566,30.36-20.284,46.923-28.116c12.663-5.988,25.891-10.109,39.805-11.873
		c7.253-0.919,14.373-0.243,21.279,2.301c3.825,1.409,7.114,3.588,10.209,6.253c9.373,8.07,13.531,18.532,14.25,30.548
		c0.398,6.655-1.39,12.931-4.109,18.972c-3.208,7.126-8.106,13.053-13.192,18.856c-5.954,6.793-11.914,13.58-17.853,20.385
		c-3.411,3.907-6.859,7.785-10.166,11.779c-9.418,11.372-19.87,21.761-30.495,31.971c-4.577,4.399-9.55,8.392-14.413,12.487
		c-4.351,3.664-8.798,7.215-13.202,10.816c-4.145,3.389-8.291,6.778-12.436,10.167c-0.648,0.53-1.325,1.029-1.939,1.596
		c-8.492,7.826-17.341,15.264-25.332,23.636c-2.416,2.531-5.313,4.595-7.848,7.023c-8.749,8.376-17.004,17.151-21.169,28.877
		c-1.736,4.886-3.433,9.799-4.826,14.79c-2.116,7.579-4.13,15.197-5.859,22.872c-1.728,7.675-3.277,15.405-4.501,23.174
		c-2.169,13.773-5.113,27.341-10.024,40.406c-2.296,6.106-4.782,12.172-7.669,18.016c-3.632,7.352-7.659,14.517-11.706,21.654
		c-4.39,7.74-9.839,14.761-15.293,21.77c-1.953,2.509-3.801,5.101-5.694,7.657c-3.469,4.684-3.991,9.778-2.25,15.257
		c1.674,5.268,3.289,10.556,4.823,15.865c2.604,9.014,5.136,18.05,6.636,27.334c-0.231,0.238-0.461,0.476-0.69,0.715
		c-2.581,1.168-5.089,2.549-7.756,3.467c-9.796,3.371-19.573,6.828-29.491,9.805c-13.272,3.984-26.579,7.893-40.167,10.721
		c-5.888,1.224-11.747,2.586-17.638,3.796c-15.23,3.128-30.636,5.16-46.017,7.352c-1.621,0.23-3.193,0.81-4.787,1.227
		c-1.755-0.52-3.545-0.948-5.261-1.575c-18.273-6.681-36.143-14.315-53.541-23.023c-6.732-3.37-13.31-7.046-19.957-10.581
		c2.794-1.524,5.62-2.991,8.374-4.584C352.278,1073.74,359.618,1069.691,366.7,1065.233z"/>
	<path fill="#DF5014" d="M1113.399,702.72c-15.717,0.44-29.603-4.776-42.595-13.019c-1.679-1.066-3.176-2.466-4.611-3.862
		c-3.724-3.624-7.6-7.132-10.984-11.057c-4.467-5.18-9.969-5.609-16.024-4.42c-4.219,0.829-7.852,2.964-11.115,5.625
		c-6.613,5.394-13.048,11.005-19.648,16.414c-5.308,4.35-10.677,8.635-16.156,12.767c-6.016,4.538-12.118,8.97-18.308,13.267
		c-13.533,9.391-27.884,17.332-43.033,23.822c-6.245,2.676-12.818,4.13-19.546,4.211c-1.61,0.02-3.229-0.01-4.838-0.139
		c-0.644-0.052-1.286-0.12-1.926-0.207c-0.32-0.043-0.639-0.092-0.957-0.145c-2.546-0.428-5.038-1.189-7.397-2.49
		c1.31-3.075,2.743-6.107,4.053-9.181c0.525-1.23,1.03-2.466,1.5-3.714c0.235-0.624,0.462-1.251,0.677-1.882
		c5.031-14.709,10.375-29.321,14.472-44.337c2.859-10.483,5.938-20.911,8.514-31.463c4.084-16.729,7.791-33.55,10.413-50.586
		c0.712-4.627,1.509-9.242,2.153-13.878c0.227-1.634,0.113-3.315,0.156-4.974l0,0c0.357-0.42,0.727-0.825,1.107-1.217
		c2.663-2.748,5.847-4.884,8.915-7.12c11.368-8.284,22.856-16.402,34.261-24.635c6.918-4.995,14.024-9.749,20.198-15.715
		c1.436-1.387,3.305-2.327,4.731-3.722c2.506-2.453,4.847-5.076,7.21-7.671c1.012-1.112,1.898-2.338,2.852-3.503
		c2.861-3.494,5.949-6.827,8.547-10.506c6.194-8.772,11.661-17.974,15.863-27.906c5.289-12.5,11.076-24.77,17.117-36.929
		c5.888-11.85,11.397-23.887,17.225-35.767c5.184-10.57,11.783-20.255,19.086-29.468c1.766-2.228,3.544-4.447,5.317-6.67
		c0.898,1.792,1.877,3.547,2.68,5.38c13.14,29.985,23.687,60.831,31.302,92.7c17.399,72.82,20.067,146.132,7.889,219.988
		c-0.325,1.967-0.888,3.894-1.34,5.84c-2.082,0.595-4.241,1.001-6.23,1.82C1128.02,701.214,1120.888,702.511,1113.399,702.72z"/>
	<path fill="#E6691B" d="M1077.01,820.097c-13.057-2.184-26.095-4.483-39.141-6.732c-3.138-0.541-6.261-1.237-9.421-1.564
		c-8.062-0.835-16.006-0.633-23.807,2.181c-6.19,2.232-11.982,5.202-17.738,8.295c-7.084,3.806-14.037,7.875-21.24,11.438
		c-5.863,2.901-12.006,5.097-18.797,4.779c-4.599-0.215-8.959-1.246-13.17-2.969c-3.101-1.268-6.105-2.77-9.18-4.103
		c-4.456-1.933-8.885-3.946-13.422-5.672c-5.32-2.024-10.788-3.659-16.112-5.671c-1.22-0.461-2.444-0.904-3.673-1.33
		c-8.601-2.984-17.417-5.151-26.346-6.925c0,0,0,0,0,0l0,0c-0.233-0.241-0.467-0.483-0.7-0.724c1.343-1.902,2.938-3.676,3.989-5.728
		c7.623-14.881,15.142-29.817,21.626-45.244c1.555-3.699,3.129-7.392,4.546-11.143c0.145-0.382,0.264-0.774,0.369-1.171
		c0.313-1.192,0.486-2.437,0.76-3.644c0.237-0.226,0.473-0.453,0.708-0.681c2.36,1.302,4.851,2.063,7.397,2.49
		c0.318,0.053,0.637,0.102,0.957,0.145c0.64,0.087,1.282,0.155,1.926,0.207c1.61,0.129,3.229,0.159,4.838,0.139
		c6.728-0.081,13.301-1.535,19.546-4.211c15.148-6.49,29.499-14.431,43.033-23.822c6.191-4.296,12.292-8.729,18.308-13.267
		c5.479-4.132,10.848-8.417,16.156-12.767c6.6-5.41,13.035-11.021,19.648-16.414c3.263-2.662,6.895-4.797,11.115-5.625
		c6.055-1.19,11.557-0.76,16.024,4.42c3.385,3.925,7.26,7.433,10.984,11.057c1.435,1.396,2.932,2.797,4.611,3.862
		c12.992,8.243,26.878,13.458,42.595,13.019c7.488-0.21,14.621-1.507,21.53-4.35c1.99-0.819,4.149-1.225,6.23-1.82
		c-0.199,1.649-0.306,3.315-0.611,4.943c-6.413,34.29-15.974,67.679-28.819,100.112c-2.705,6.83-5.777,13.515-8.681,20.268
		c-2.505-0.15-5.012-0.464-7.514-0.421C1089.313,821.557,1083.133,821.121,1077.01,820.097z"/>
	<path fill="#DF5014" d="M1069.287,326.827c-3.928,8.899-8.303,17.554-14.262,25.291c-3.157,4.1-6.554,8.016-9.858,12.002
		c-3.092,3.73-6.193,7.452-9.31,11.161c-1.933,2.3-3.811,4.655-5.877,6.831c-3.109,3.274-6.34,6.436-9.558,9.606
		c-7.835,7.719-16.668,13.97-27.085,17.689c-4.715,1.684-9.598,2.904-14.416,4.3c-5.3,1.535-10.604,3.06-15.921,4.535
		c-7.378,2.047-12.689,6.524-16.001,13.41c-0.144,0.301-0.312,0.59-0.486,0.876c-0.173,0.287-0.353,0.57-0.523,0.859
		c-0.349-0.694-0.616-1.405-0.823-2.128l0,0c-0.207-0.723-0.356-1.458-0.468-2.199c-0.113-0.742-0.189-1.49-0.253-2.239
		c-0.064-0.75-0.115-1.501-0.178-2.248c-0.819-9.838-1.324-19.709-2.383-29.52c-1.346-12.485-2.982-24.945-4.747-37.379
		c-1.224-8.62-2.7-17.214-4.374-25.758c-2.673-13.641-5.408-27.276-8.476-40.832c-3.55-15.683-7.513-31.269-12.347-46.62
		c-2.012-6.39-3.855-12.833-5.878-19.219c-1.314-4.15-2.76-8.26-4.263-12.345c-0.454-1.234-1.297-2.326-1.961-3.482l0,0
		c0,0,0.001,0,0.001,0c1.047-0.878,2.06-1.801,3.119-2.662c0.363-0.295,0.731-0.584,1.109-0.86
		c9.716-7.108,19.304-14.366,28.577-22.061c4.39-3.643,8.599-7.423,12.598-11.466c1.116,0.731,2.324,1.354,3.333,2.212
		c6.761,5.75,13.662,11.354,20.179,17.37c21.317,19.68,41.459,40.473,59.608,63.165c13.407,16.763,25.872,34.18,37.33,52.319
		c2.493,3.947,4.68,8.088,7.008,12.139c-0.286,0.604-0.574,1.207-0.864,1.809c-0.579,1.205-1.161,2.408-1.724,3.619
		C1069.834,325.608,1069.557,326.216,1069.287,326.827z"/>
	<path fill="#E6691B" d="M1076.225,408.78c-5.828,11.88-11.337,23.917-17.225,35.767c-6.041,12.158-11.828,24.429-17.117,36.929
		c-4.202,9.932-9.669,19.135-15.863,27.906c-2.597,3.679-5.685,7.012-8.547,10.506c-0.954,1.165-1.84,2.391-2.852,3.503
		c-2.363,2.595-4.704,5.218-7.21,7.671c-1.426,1.395-3.295,2.335-4.731,3.722c-6.174,5.965-13.279,10.72-20.198,15.715
		c-11.405,8.233-22.893,16.351-34.261,24.635c-3.068,2.236-6.252,4.372-8.915,7.12c-0.38,0.393-0.75,0.797-1.107,1.217l0,0l0,0
		c-0.232-0.226-0.465-0.452-0.698-0.676c1.254-1.466,1.681-3.223,1.899-5.09c0.875-7.48,1.92-14.943,2.656-22.437
		c1.032-10.489,1.96-20.991,2.712-31.503c0.49-6.839,0.613-13.706,0.853-20.562c0.252-7.19,0.467-14.383,0.659-21.575
		c0.007-0.272,0.015-0.544,0.021-0.816c0.005-0.272,0.009-0.544,0.008-0.816c0-0.013-0.001-0.026-0.001-0.039
		c-0.006-1.073-0.083-2.137-0.392-3.164c-0.156-0.519-0.371-1.029-0.665-1.525c-0.106-2.84-0.254-5.678-0.308-8.517
		c-0.13-6.854,0.256-13.713-0.641-20.556c-0.573-4.371,0.124-8.673,1.686-12.812c0.169-0.289,0.349-0.572,0.522-0.859
		c0.174-0.286,0.342-0.575,0.486-0.876c3.313-6.886,8.624-11.363,16.001-13.41c5.317-1.475,10.62-3,15.921-4.535
		c4.817-1.395,9.7-2.615,14.416-4.3c10.416-3.72,19.25-9.97,27.085-17.689c3.218-3.17,6.448-6.331,9.558-9.606
		c2.066-2.176,3.944-4.531,5.877-6.831c3.117-3.709,6.218-7.431,9.31-11.161c3.304-3.986,6.701-7.902,9.858-12.002
		c5.958-7.737,10.334-16.392,14.262-25.291c0.27-0.611,0.547-1.219,0.828-1.825c0.563-1.212,1.145-2.415,1.724-3.619
		c0.29-0.602,0.578-1.205,0.864-1.809c1.488,2.208,3.186,4.304,4.43,6.642c6.348,11.935,12.628,23.907,18.82,35.924
		c1.752,3.401,3.127,6.997,4.675,10.503c-1.773,2.223-3.551,4.442-5.317,6.67C1088.009,388.525,1081.41,398.21,1076.225,408.78z"/>
	<path fill="#E78420" d="M719.562,73.529c0.934,3.561,1.828,7.131,2.581,10.729c2.192,10.482,4.047,21.037,5.907,31.585
		c0.929,5.271,1.593,10.59,2.285,15.899c0.214,1.64,0.126,3.32,0.177,4.981c-3.627-0.313-7.251-0.662-10.879-0.961
		c-1.209-0.1-2.419-0.194-3.629-0.28c-14.58-1.03-28.748,0.581-42.331,6.377c-3.374,1.44-6.136,3.427-8.208,6.356
		c-1.836,2.597-3.491,5.322-5.208,8.002c-1.085,1.693-2.031,3.484-3.221,5.098c-5.432,7.368-12.48,12.102-21.809,12.797
		c-9.213,0.687-17.591-1.855-25.154-7.065c-2.61-1.799-5.167-3.668-7.153-6.262c-8.219-10.736-14.826-22.414-19.193-35.162
		c-7.007-20.458-7.623-41.394-3.132-62.492c0.906-4.257,2.115-8.449,3.184-12.671c0.656-0.092,1.311-0.249,1.968-0.265
		c42.493-1.075,84.553,2.705,126.174,11.349c1.629,0.338,3.218,0.866,4.826,1.306l0,0l0,0
		C717.656,66.415,718.629,69.968,719.562,73.529z"/>
	<path fill="#DF5E13" d="M859.33,128.618c-4.372,10.796-11.972,18.379-22.817,22.666c-6.451,2.55-13.14,3.636-20.093,3.813
		c-14.205,0.359-28.009-1.788-41.587-5.78c-10.593-3.114-21.196-6.196-31.805-9.259c-2.089-0.603-4.2-1.183-6.339-1.536
		c-1.614-0.266-3.29-0.153-4.939-0.208c-0.324-0.414-0.647-0.829-0.97-1.244c-0.09-0.115-0.18-0.231-0.27-0.346
		c-0.051-1.661,0.037-3.341-0.177-4.981c-0.692-5.309-1.356-10.628-2.285-15.899c-1.86-10.548-3.714-21.103-5.907-31.585
		c-0.753-3.599-1.647-7.168-2.581-10.729c-0.934-3.561-1.906-7.114-2.816-10.68l0,0c1.316,0.2,2.649,0.319,3.944,0.611
		c48.495,10.931,94.672,28.105,138.527,51.516c1.466,0.783,2.827,1.763,4.236,2.651l0.055,0.286
		c-0.69,1.511-1.457,2.992-2.049,4.539C860.683,124.482,860.145,126.605,859.33,128.618z"/>
	<path fill="#E78420" d="M247.703,177.494c3.963-3.328,8.169-6.368,12.26-9.539c0.737,1.502,1.55,2.971,2.201,4.508
		c8.866,20.918,15.002,42.641,18.917,64.993c2.292,13.089,3.076,26.271,1.649,39.532c-1.184,11.006-4.263,21.316-10.901,30.367
		c-6.835,9.318-21.383,14.71-33.993,3.834c-5.898-5.087-10.649-11.073-14.081-18.12c-4.274-8.775-7.397-17.955-9.992-27.332
		c-2.322-8.392-4.367-16.867-6.924-25.186c-1.817-5.91-4.112-11.701-7.813-16.784c0.719-0.916,1.367-1.899,2.166-2.737
		C215.876,205.643,231.42,191.169,247.703,177.494z"/>
	<path fill="#DF5014" d="M614.192,1111.696c0.86-7.805,1.749-15.632,1.472-23.503c-0.228-6.508-0.732-13.008-1.113-19.511
		c-0.088-1.502-0.092-3.014-0.289-4.502c-0.217-1.634-0.614-3.245-0.932-4.866c0.23-0.289,0.459-0.578,0.689-0.868
		c0.165-0.207,0.33-0.414,0.495-0.621c0,0,0,0,0,0l0,0c0,0,0,0,0,0c3.977-1.273,7.605-3.28,11.219-5.294
		c1.205-0.671,2.408-1.344,3.622-1.99c7.824-4.165,15.522-8.587,23.095-13.194c7.859-4.781,15.491-9.934,23.253-14.876
		c2.106-1.341,4.324-2.505,6.491-3.751c-0.51,2.62-0.981,5.249-1.536,7.86c-2.818,13.257-5.276,26.587-6.455,40.092
		c-0.857,9.815-1.02,19.696,0.607,29.475c0.822,4.942,1.924,9.849,3.149,14.709c2.084,8.268,4.355,16.489,6.574,24.723
		c0.303,1.124,0.758,2.207,1.141,3.309l0,0c0.267,1.329,0.534,2.657,0.8,3.986c-1.127,0.275-2.24,0.637-3.381,0.812
		c-24.434,3.739-49.01,5.831-73.727,6.223c-1.32,0.021-2.644-0.153-3.965-0.236c0.838-2.226,1.826-4.412,2.605-6.654
		c0.26-0.747,0.497-1.5,0.697-2.263C611.209,1131.205,613.11,1121.514,614.192,1111.696z"/>
	<path fill="#DF5014" d="M466.218,1109.114c5.89-1.21,11.75-2.572,17.638-3.796c13.589-2.827,26.895-6.737,40.167-10.721
		c9.919-2.977,19.695-6.434,29.491-9.805c2.667-0.918,5.175-2.298,7.756-3.467c1.343,2.237,1.453,4.806,1.606,7.257
		c0.526,8.461,1.138,16.883,0.445,25.427c-0.782,9.646-1.869,19.214-3.44,28.75c-0.292,1.775-0.051,3.638-0.057,5.46
		c-0.996,0.022-1.997,0.131-2.985,0.054c-47.371-3.666-93.425-13.623-138.336-29.026c-1.08-0.371-2.062-1.03-3.09-1.555
		c1.595-0.417,3.166-0.997,4.787-1.227C435.582,1114.274,450.989,1112.242,466.218,1109.114z"/>
	<path fill="#E6691B" d="M559.882,1142.76c1.571-9.536,2.657-19.104,3.44-28.75c0.693-8.544,0.081-16.966-0.445-25.427
		c-0.153-2.451-0.262-5.02-1.606-7.257c0.229-0.239,0.459-0.477,0.69-0.715c1.613-0.298,3.33-0.337,4.823-0.935
		c13.583-5.437,27.078-11.077,40.108-17.77c2.048-1.053,4.285-1.738,6.436-2.593c0.32,1.622,0.716,3.232,0.933,4.866
		c0.198,1.487,0.201,3,0.289,4.502c0.382,6.503,0.885,13.003,1.113,19.511c0.277,7.871-0.612,15.698-1.472,23.503
		c-1.082,9.819-2.983,19.509-5.487,29.061c-0.2,0.763-0.437,1.516-0.697,2.263c-0.779,2.241-1.768,4.428-2.606,6.654
		c-0.823,0.103-1.645,0.291-2.468,0.297c-13.74,0.101-27.461-0.351-41.166-1.332c-0.655-0.047-1.296-0.274-1.943-0.418
		C559.831,1146.398,559.59,1144.536,559.882,1142.76z"/>
	<path fill="#E6691B" d="M904.07,205.894c-0.377,0.276-0.745,0.565-1.109,0.86c-1.059,0.861-2.072,1.784-3.119,2.662
		c0,0,0,0-0.001,0c-0.06-0.05-0.116-0.103-0.175-0.154c-0.187-0.161-0.373-0.321-0.556-0.488c0.592-1.538,0.351-3-0.093-4.435
		c-0.148-0.479-0.318-0.955-0.488-1.429c-2.816-7.892-5.433-15.863-8.527-23.644c-5.263-13.236-10.767-26.378-16.297-39.506
		c-2.666-6.331-5.604-12.548-8.457-18.799c-0.484-1.061-1.155-2.036-1.739-3.049c0,0.002-0.055-0.285-0.055-0.286
		c1.206,0.554,2.452,1.034,3.61,1.673c23.87,13.181,46.553,28.176,68.19,44.756c3.436,2.633,6.665,5.535,9.99,8.313
		c-3.999,4.042-8.208,7.822-12.598,11.466C923.374,191.528,913.786,198.786,904.07,205.894z"/>
	<path fill="#E78420" d="M685.675,1138.888C685.675,1138.889,685.675,1138.889,685.675,1138.888
		c13.196-3.085,26.401-6.136,39.583-9.28c1.619-0.387,3.22-0.848,4.817-1.331c1.596-0.482,3.188-0.985,4.788-1.453
		c0.546,0.594,0.927,1.255,1.217,1.951c0.483,1.161,0.71,2.424,1.022,3.653c0,0,0,0,0,0c-0.948,0.321-1.881,0.709-2.849,0.953
		c-14.634,3.694-29.396,6.782-44.292,9.217c-1.146,0.187-2.323,0.187-3.485,0.275
		C686.209,1141.546,685.942,1140.217,685.675,1138.888L685.675,1138.888z"/>
	<path fill="#E78420" d="M159.425,928.95c0,0,0.025-0.282,0.021-0.287c-0.003-0.004,0.259,0.344,0.259,0.344L159.425,928.95z"/>
	<path fill="#E78420" d="M736.536,224.2c0.019,11.567,0.181,23.141-0.157,34.699c-0.352,12.052-1.144,24.093-1.869,36.131
		c-1.119,18.571-2.753,37.103-5.103,55.556c-2.076,16.291-4.341,32.562-6.83,48.795c-2.998,19.552-6.685,38.988-10.777,58.342
		c-5.064,23.945-10.804,47.729-17.187,71.359c-7.213,26.706-15.175,53.182-24.099,79.367c-0.477,1.401-0.794,2.857-1.138,4.111
		c0.91,1.134,1.745,0.737,2.432,0.339c7.973-4.618,15.899-9.263,23.159-15.036c6.988-5.556,13.123-11.951,19.436-18.188
		c3.935-3.887,7.812-7.834,11.732-11.736c7.306-7.271,15.706-13.046,24.735-17.934c6.5-3.519,13.229-6.504,20.357-8.557
		c10.188-2.935,20.493-3.602,30.792-1.017c4.515,1.133,8.851,3.074,13.162,4.898c6.637,2.807,13.11,6.01,19.786,8.715
		c8.443,3.421,17.235,5.565,26.411,5.588c11.128,0.026,21.564-2.57,31.132-8.438c5.441-3.336,10.737-6.823,15.415-11.212
		c3.049-2.86,6.59-5.247,9.369-8.333c4.808-5.341,9.779-10.563,13.963-16.455c5.525-7.78,9.158-16.336,10.964-25.687
		c0.667-3.456,1.3-6.919,2.002-10.368c0.266-1.305,0.683-2.579,1.031-3.869c0.294,0.496,0.509,1.005,0.665,1.524
		c0.309,1.026,0.386,2.091,0.392,3.164c0,0.013,0.001,0.026,0.001,0.039c0.001,0.272-0.003,0.543-0.008,0.816
		c-0.006,0.272-0.014,0.544-0.021,0.816c-0.193,7.192-0.407,14.384-0.659,21.575c-0.241,6.856-0.364,13.723-0.853,20.562
		c-0.752,10.512-1.68,21.014-2.712,31.503c-0.737,7.494-1.781,14.956-2.656,22.437c-0.218,1.867-0.646,3.625-1.899,5.09
		c-0.508,0.437-0.997,0.899-1.528,1.307c-7.175,5.502-14.425,10.91-21.513,16.522c-4.722,3.739-9.064,7.964-13.848,11.617
		c-6.967,5.32-12.93,11.668-19.062,17.845c-8.951,9.018-15.715,19.562-20.972,31.079c-3.063,6.709-5.883,13.51-7.284,20.828
		c-2.32,12.112,1.374,22.531,8.982,31.739c2.462,2.98,5.154,5.696,6.542,9.408c0.403,1.077,1.075,2.112,1.832,2.987
		c6.193,7.162,12.933,13.62,22.148,16.817c0.946,0.328,1.838,0.813,2.755,1.225c-0.273,1.207-0.447,2.452-0.76,3.644
		c-0.105,0.397-0.224,0.789-0.369,1.171c-1.417,3.751-2.991,7.445-4.546,11.143c-6.484,15.427-14.003,30.363-21.626,45.244
		c-1.051,2.052-2.646,3.826-3.989,5.728c-9.846-2.068-19.633-4.349-29.099-7.836c-5.674-2.09-11.463-3.797-17.456-4.674
		c-3.477-0.509-6.979-0.873-10.48-1.183c-25.66-2.273-49.172,4.105-70.883,17.674c-11.219,7.012-19.525,16.738-25.923,28.162
		c-3.274,5.845-6.465,11.755-9.31,17.816c-3.86,8.221-6.953,16.787-7.591,25.92c-0.466,6.67-0.552,13.414-0.155,20.087
		c0.657,11.042,1.986,22.039,4.601,32.82c1.856,7.653,3.972,15.243,5.885,22.884c2.766,11.052,5.452,22.124,8.172,33.187
		c0,0-0.014-0.002-0.027-0.004c-0.016-0.002-0.032-0.004-0.032-0.004c-7.61,5.726-15.184,11.501-22.856,17.143
		c-0.465,0.342-0.95,0.656-1.447,0.953c-0.416,0.249-0.843,0.484-1.273,0.714c-1.112,0.594-2.252,1.149-3.351,1.76
		c2.509-10.843,5.033-21.698,6.472-32.731c0.206-1.576,0.39-3.156,0.548-4.739c1.035-10.37,0.862-20.721-2.792-30.739
		c-1.868-5.121-4.568-9.802-8.277-13.646c-6.443-6.68-14.393-10.207-23.907-9.435c-8.389,0.682-14.194,5.458-18.746,12.045
		c-3.157,4.569-5.175,9.74-7.3,14.84c-5.704,13.686-9.357,27.907-10.888,42.649c-0.743,7.151-1.253,14.328-1.773,21.501
		c-0.69,9.506-1.383,19.014-1.884,28.531c-0.171,3.249-0.084,6.511-0.021,9.772c0.021,1.086,0.039,2.173,0.045,3.26c0,0,0,0,0,0
		c-0.165,0.208-0.33,0.414-0.495,0.621c-0.23,0.289-0.46,0.578-0.69,0.867c-2.151,0.855-4.388,1.54-6.436,2.593
		c-13.03,6.694-26.525,12.334-40.108,17.77c-1.493,0.598-3.21,0.637-4.823,0.935c-1.5-9.284-4.032-18.32-6.636-27.334
		c-1.534-5.31-3.149-10.598-4.823-15.865c-1.741-5.479-1.219-10.573,2.25-15.257c1.893-2.556,3.741-5.147,5.694-7.657
		c5.454-7.008,10.903-14.03,15.293-21.77c4.047-7.137,8.074-14.302,11.706-21.654c2.887-5.844,5.374-11.91,7.669-18.016
		c4.911-13.065,7.855-26.634,10.024-40.406c1.224-7.769,2.774-15.499,4.501-23.174c1.728-7.675,3.742-15.293,5.859-22.872
		c1.394-4.99,3.091-9.904,4.826-14.79c4.165-11.726,12.42-20.501,21.169-28.877c2.534-2.427,5.432-4.491,7.848-7.023
		c7.991-8.372,16.84-15.81,25.332-23.636c0.615-0.566,1.291-1.066,1.939-1.596c4.145-3.389,8.29-6.778,12.436-10.167
		c4.405-3.601,8.851-7.151,13.202-10.816c4.863-4.095,9.836-8.087,14.413-12.487c10.624-10.21,21.077-20.598,30.495-31.971
		c3.307-3.994,6.756-7.872,10.166-11.779c5.94-6.805,11.899-13.593,17.853-20.385c5.086-5.803,9.984-11.73,13.192-18.856
		c2.719-6.042,4.507-12.318,4.109-18.972c-0.719-12.016-4.877-22.478-14.25-30.548c-3.095-2.665-6.384-4.844-10.209-6.253
		c-6.906-2.543-14.026-3.22-21.279-2.301c-13.914,1.764-27.142,5.885-39.805,11.873c-16.564,7.832-31.999,17.55-46.923,28.116
		c-0.187,0.133-0.373,0.27-0.558,0.407c-1.292,0.964-2.545,1.967-4.315,1.911c0,0,0-0.001,0-0.001
		c0.418-1.606,0.71-3.259,1.271-4.815c3.637-10.089,7.339-20.155,11-30.236c0.572-1.574,1.122-3.165,1.527-4.787
		c0.173-0.692-0.054-1.485-0.125-2.661c-1.668,0.625-2.905,1.032-4.096,1.545c-5.54,2.385-11.019,4.921-16.612,7.171
		c-6.706,2.698-13.674,4.484-20.841,5.556c-11.172,1.671-21.236-0.933-30.533-7.236c-6.935-4.702-11.626-10.967-14.314-18.857
		c-2.299-6.748-2.962-13.729-3.299-20.78c-0.571-11.958,0.94-23.753,2.63-35.544c1.07-7.463,2.012-14.946,2.958-22.427
		c0.723-5.715-0.578-11.014-3.662-15.842c-2.007-3.141-4.718-5.663-7.704-7.859c-7.058-5.192-14.716-9.288-22.814-12.637
		c-7.431-3.073-14.895-6.115-22.103-9.664c-10.003-4.926-18.789-11.463-25.871-20.307c-6.211-7.757-11.772-15.884-16.406-24.644
		c-4.115-7.779-6.794-16.053-7.687-24.833c-0.985-9.675,0.689-18.711,6.832-26.574c3.657-4.679,8.222-8.345,13.108-11.629
		c17.522-11.776,36.394-20.713,56.685-26.551c11.641-3.35,23.572-5.193,35.672-5.69c9.889-0.406,19.774,0.002,29.633,0.907
		c11.782,1.082,23.448,0.436,34.947-2.427c10.153-2.528,19.75-6.372,28.581-12.083c3.294-2.13,5.507-4.785,6.055-8.758
		c0.732-5.308,1.923-10.577,2.29-15.906c1.077-15.651,4.316-30.852,8.911-45.794c1.834-5.964,4.364-11.579,8.755-16.222
		c6.859-7.254,14.767-13.115,23.413-18.023c0.362-0.206,0.733-0.397,1.109-0.578c1.129-0.544,2.306-1.003,3.448-1.525l0,0
		C736.122,220.566,736.533,222.383,736.536,224.2z"/>
	<path fill="#DF5E13" d="M768.186,210.52c17.109-0.224,34.114,0.971,50.832,4.997c4.229,1.018,8.531,1.731,12.8,2.583
		c4.103,0.819,8.221,1.566,12.304,2.473c7.207,1.599,14.422,2.984,21.869,2.647c3.376-0.153,6.69-0.599,9.847-1.764
		c8.369-3.091,16.232-7.138,23.272-12.682c0,0,0.001,0.001,0.001,0.001c0.183,0.167,0.37,0.327,0.556,0.488
		c0.059,0.05,0.116,0.104,0.175,0.154c0.664,1.156,1.507,2.248,1.961,3.482c1.503,4.085,2.948,8.196,4.263,12.345
		c2.022,6.386,3.866,12.829,5.878,19.219c4.834,15.351,8.797,30.937,12.347,46.62c3.068,13.556,5.804,27.191,8.476,40.832
		c1.674,8.544,3.15,17.138,4.374,25.758c1.764,12.434,3.4,24.894,4.747,37.379c1.058,9.812,1.564,19.682,2.383,29.52
		c0.062,0.747,0.113,1.498,0.178,2.248c0.064,0.749,0.14,1.497,0.253,2.239c0.112,0.741,0.261,1.476,0.468,2.199l0,0
		c0.207,0.723,0.474,1.434,0.823,2.128c0,0,0,0,0,0c-1.563,4.139-2.259,8.441-1.686,12.812c0.897,6.843,0.511,13.702,0.641,20.556
		c0.054,2.839,0.202,5.677,0.308,8.517c0,0,0,0,0,0c-0.348,1.289-0.765,2.563-1.031,3.869c-0.702,3.449-1.336,6.912-2.002,10.368
		c-1.805,9.352-5.439,17.907-10.964,25.687c-4.184,5.892-9.154,11.113-13.963,16.455c-2.779,3.086-6.32,5.473-9.369,8.333
		c-4.679,4.388-9.975,7.875-15.415,11.212c-9.568,5.868-20.004,8.464-31.132,8.438c-9.175-0.022-17.967-2.167-26.411-5.588
		c-6.676-2.705-13.15-5.908-19.786-8.715c-4.312-1.824-8.648-3.765-13.162-4.898c-10.299-2.585-20.604-1.917-30.792,1.017
		c-7.128,2.053-13.857,5.038-20.357,8.557c-9.029,4.888-17.429,10.664-24.735,17.934c-3.921,3.901-7.797,7.849-11.732,11.736
		c-6.313,6.237-12.448,12.632-19.436,18.188c-7.26,5.773-15.186,10.418-23.159,15.036c-0.687,0.398-1.522,0.795-2.432-0.339
		c0.344-1.254,0.661-2.71,1.138-4.111c8.924-26.185,16.886-52.661,24.099-79.367c6.383-23.629,12.123-47.413,17.187-71.359
		c4.093-19.353,7.78-38.79,10.777-58.342c2.489-16.233,4.754-32.504,6.83-48.795c2.35-18.454,3.984-36.986,5.103-55.556
		c0.725-12.038,1.517-24.079,1.869-36.131c0.338-11.558,0.176-23.132,0.157-34.699c-0.003-1.817-0.414-3.634-0.637-5.452
		c0.344-0.514,0.687-1.028,1.03-1.542c3.673-1.125,7.388-2.132,11.01-3.402C754.505,211.504,761.338,210.61,768.186,210.52z"/>
	<path fill="#E78420" d="M873.706,139.76c5.529,13.128,11.034,26.27,16.297,39.506c3.094,7.781,5.711,15.752,8.527,23.644
		c0.169,0.475,0.34,0.951,0.488,1.429c0.443,1.435,0.684,2.897,0.092,4.434c-7.04,5.543-14.904,9.591-23.272,12.682
		c-3.156,1.166-6.47,1.611-9.847,1.764c-7.447,0.338-14.661-1.048-21.869-2.647c-4.083-0.907-8.202-1.653-12.304-2.473
		c-4.268-0.852-8.571-1.565-12.8-2.583c-16.718-4.025-33.723-5.221-50.832-4.997c-6.848,0.09-13.681,0.984-20.247,3.286
		c-3.622,1.27-7.337,2.276-11.01,3.402c-0.151-1.154-0.39-2.304-0.439-3.462c-0.238-5.672-0.454-11.345-0.626-17.02
		c-0.536-17.707-2.038-35.34-3.988-52.941c-0.05-0.452-0.081-0.905-0.099-1.36c-0.055-1.365-0.001-2.743-0.026-4.111
		c1.649,0.055,3.325-0.058,4.939,0.208c2.14,0.353,4.251,0.933,6.339,1.536c10.608,3.063,21.211,6.145,31.805,9.259
		c13.578,3.992,27.382,6.14,41.587,5.78c6.953-0.176,13.642-1.263,20.093-3.813c10.845-4.287,18.445-11.87,22.817-22.666
		c0.815-2.013,1.353-4.136,2.13-6.166c0.592-1.548,1.36-3.028,2.049-4.539c0,0,0,0,0,0c0.584,1.013,1.255,1.988,1.739,3.049
		C868.101,127.213,871.039,133.429,873.706,139.76z"/>
	<path fill="#DF5E13" d="M703.85,962.769c-1.912-7.64-4.028-15.23-5.885-22.884c-2.615-10.781-3.943-21.778-4.601-32.82
		c-0.397-6.673-0.312-13.417,0.155-20.087c0.638-9.133,3.732-17.698,7.591-25.92c2.845-6.061,6.036-11.971,9.31-17.816
		c6.398-11.424,14.704-21.15,25.923-28.162c21.711-13.569,45.223-19.947,70.883-17.674c3.501,0.31,7.003,0.674,10.48,1.183
		c5.993,0.877,11.782,2.584,17.456,4.674c9.465,3.487,19.253,5.768,29.099,7.836c0.233,0.242,0.466,0.483,0.7,0.724l0,0
		c-6.006,10.456-11.732,21.087-18.088,31.327c-8.301,13.373-16.921,26.541-26.343,39.194c-10.604,14.24-21.371,28.318-33.354,41.435
		c-0.451,0.494-0.851,1.035-1.291,1.54c-2.527,2.897-4.984,5.861-7.611,8.664c-2.75,2.933-5.882,5.527-8.461,8.594
		c-5.072,6.032-10.627,11.521-16.623,16.628c-3.307,2.816-6.118,6.205-9.306,9.171c-5.757,5.354-11.624,10.59-17.461,15.858
		c-0.618,0.558-1.37,0.966-2.016,1.497c-4.135,3.4-8.258,6.815-12.384,10.225C709.303,984.893,706.617,973.821,703.85,962.769z"/>
	<path fill="#E6691B" d="M686.388,1014.758c0.43-0.23,0.857-0.465,1.273-0.714c0.498-0.297,0.982-0.611,1.447-0.953
		c7.672-5.642,15.246-11.417,22.856-17.143c3.904,17.478,6.678,35.162,9.693,52.804c2.761,16.154,5.555,32.302,8.41,48.44
		c1.457,8.235,3.118,16.435,4.592,24.667c0.072,0.404,0.117,0.813,0.146,1.225c0.085,1.236,0.016,2.499,0.059,3.743
		c-1.6,0.468-3.192,0.971-4.788,1.453c-1.597,0.482-3.198,0.944-4.817,1.331c-13.182,3.144-26.387,6.194-39.583,9.28c0,0,0,0,0,0
		c-0.384-1.101-0.839-2.185-1.141-3.309c-2.219-8.234-4.49-16.455-6.574-24.723c-1.225-4.86-2.327-9.768-3.149-14.709
		c-1.628-9.78-1.464-19.661-0.607-29.475c1.179-13.504,3.637-26.834,6.455-40.092c0.555-2.611,1.026-5.24,1.536-7.86
		c0.28-0.734,0.56-1.468,0.842-2.203C684.134,1015.906,685.276,1015.352,686.388,1014.758z"/>
	<path fill="#DF5E13" d="M892.799,742.944c-9.215-3.197-15.955-9.654-22.148-16.817c-0.757-0.875-1.429-1.91-1.832-2.987
		c-1.389-3.712-4.08-6.429-6.542-9.408c-7.608-9.208-11.301-19.627-8.982-31.739c1.401-7.318,4.221-14.119,7.284-20.828
		c5.257-11.517,12.021-22.062,20.972-31.079c6.132-6.177,12.095-12.525,19.062-17.845c4.783-3.653,9.126-7.878,13.848-11.617
		c7.088-5.612,14.337-11.02,21.513-16.522c0.531-0.407,1.02-0.87,1.528-1.307c0.233,0.225,0.466,0.45,0.698,0.676l0,0
		c-0.042,1.659,0.071,3.34-0.156,4.974c-0.644,4.636-1.441,9.251-2.153,13.878c-2.623,17.037-6.33,33.857-10.413,50.586
		c-2.576,10.552-5.654,20.98-8.514,31.463c-4.096,15.015-9.441,29.628-14.472,44.337c-0.216,0.631-0.442,1.258-0.677,1.882
		c-0.47,1.248-0.975,2.484-1.5,3.714c-1.311,3.074-2.743,6.107-4.053,9.181c-0.235,0.228-0.471,0.455-0.708,0.681l0,0
		C894.636,743.757,893.745,743.272,892.799,742.944z"/>
	<path fill="#DF5E13" d="M614.489,1044.793c0.501-9.517,1.194-19.025,1.884-28.531c0.521-7.173,1.03-14.35,1.773-21.501
		c1.532-14.742,5.185-28.963,10.888-42.649c2.125-5.099,4.143-10.271,7.3-14.84c4.552-6.587,10.357-11.363,18.746-12.045
		c9.514-0.773,17.464,2.754,23.907,9.435c3.709,3.845,6.409,8.525,8.277,13.646c3.654,10.018,3.828,20.369,2.792,30.739
		c-0.158,1.584-0.342,3.163-0.548,4.739c-1.439,11.033-3.963,21.888-6.474,32.732c-0.281,0.735-0.561,1.469-0.842,2.203
		c-2.167,1.246-4.385,2.41-6.491,3.751c-7.762,4.942-15.394,10.094-23.253,14.876c-7.572,4.608-15.271,9.03-23.095,13.194
		c-1.214,0.646-2.417,1.319-3.622,1.99c-3.614,2.014-7.243,4.021-11.219,5.294c0,0,0,0,0,0c-0.005-1.086-0.024-2.173-0.045-3.26
		C614.404,1051.305,614.318,1048.042,614.489,1044.793z"/>
</g>
</svg>
